<svg xmlns="http://www.w3.org/2000/svg" xmlns:xlink="http://www.w3.org/1999/xlink" viewBox="0 0 1776.87 371.04"><defs><style>.cls-1{fill:url(#Безымянный_градиент_4);}.cls-2{fill:url(#Безымянный_градиент_2);}.cls-3{fill:url(#Безымянный_градиент_2-2);}.cls-4{fill:url(#Безымянный_градиент_2-3);}.cls-5{fill:url(#Безымянный_градиент_2-4);}.cls-6{fill:url(#Безымянный_градиент_2-5);}.cls-7{fill:url(#Безымянный_градиент_2-6);}.cls-8{fill:url(#Безымянный_градиент_2-7);}.cls-9{fill:url(#Безымянный_градиент_2-8);}.cls-10{fill:url(#Безымянный_градиент_2-9);}.cls-11{fill:url(#Безымянный_градиент_2-10);}.cls-12{fill:url(#Безымянный_градиент_2-11);}.cls-13{fill:url(#Безымянный_градиент_2-12);}.cls-14{fill:url(#Безымянный_градиент_2-13);}.cls-15{fill:url(#Безымянный_градиент_2-14);}.cls-16{fill:url(#Безымянный_градиент_2-15);}.cls-17{fill:url(#Безымянный_градиент_2-16);}.cls-18{fill:url(#Безымянный_градиент_2-17);}.cls-19{fill:url(#Безымянный_градиент_2-18);}.cls-20{fill:url(#Безымянный_градиент_2-19);}.cls-21{fill:url(#Безымянный_градиент_2-20);}.cls-22{fill:url(#Безымянный_градиент_2-21);}.cls-23{fill:url(#Безымянный_градиент_2-22);}.cls-24{fill:url(#Безымянный_градиент_2-23);}.cls-25{fill:url(#Безымянный_градиент_2-24);}.cls-26{fill:url(#Безымянный_градиент_2-25);}.cls-27{fill:url(#Безымянный_градиент_2-26);}.cls-28{fill:#fff;}</style><linearGradient id="Безымянный_градиент_4" x1="158" y1="371.04" x2="158" gradientUnits="userSpaceOnUse"><stop offset="0" stop-color="#fff"/><stop offset="1" stop-color="#fff"/></linearGradient><linearGradient id="Безымянный_градиент_2" x1="339.09" y1="264.84" x2="391.97" y2="264.84" xlink:href="#Безымянный_градиент_4"/><linearGradient id="Безымянный_градиент_2-2" x1="400.39" y1="264.84" x2="441.48" y2="264.84" xlink:href="#Безымянный_градиент_4"/><linearGradient id="Безымянный_градиент_2-3" x1="448.49" y1="264.84" x2="492.32" y2="264.84" xlink:href="#Безымянный_градиент_4"/><linearGradient id="Безымянный_градиент_2-4" x1="504.46" y1="264.84" x2="537.77" y2="264.84" xlink:href="#Безымянный_градиент_4"/><linearGradient id="Безымянный_градиент_2-5" x1="543.8" y1="264.84" x2="587.63" y2="264.84" xlink:href="#Безымянный_градиент_4"/><linearGradient id="Безымянный_градиент_2-6" x1="599.69" y1="264.84" x2="643.31" y2="264.84" xlink:href="#Безымянный_градиент_4"/><linearGradient id="Безымянный_градиент_2-7" x1="649.13" y1="264.84" x2="702.36" y2="264.84" xlink:href="#Безымянный_градиент_4"/><linearGradient id="Безымянный_градиент_2-8" x1="702.64" y1="265.19" x2="750.47" y2="265.19" xlink:href="#Безымянный_градиент_4"/><linearGradient id="Безымянный_градиент_2-9" x1="762.67" y1="264.84" x2="803.55" y2="264.84" xlink:href="#Безымянный_градиент_4"/><linearGradient id="Безымянный_градиент_2-10" x1="811.2" y1="264.84" x2="854.82" y2="264.84" xlink:href="#Безымянный_градиент_4"/><linearGradient id="Безымянный_градиент_2-11" x1="866.95" y1="264.84" x2="923.9" y2="264.84" xlink:href="#Безымянный_градиент_4"/><linearGradient id="Безымянный_градиент_2-12" x1="936.03" y1="264.84" x2="972.84" y2="264.84" xlink:href="#Безымянный_градиент_4"/><linearGradient id="Безымянный_градиент_2-13" x1="999.07" y1="264.84" x2="1042.9" y2="264.84" xlink:href="#Безымянный_градиент_4"/><linearGradient id="Безымянный_градиент_2-14" x1="1055.03" y1="264.84" x2="1108.75" y2="264.84" xlink:href="#Безымянный_градиент_4"/><linearGradient id="Безымянный_градиент_2-15" x1="1120.88" y1="264.84" x2="1164.29" y2="264.84" xlink:href="#Безымянный_градиент_4"/><linearGradient id="Безымянный_градиент_2-16" x1="1172.71" y1="264.84" x2="1225.59" y2="264.84" xlink:href="#Безымянный_градиент_4"/><linearGradient id="Безымянный_градиент_2-17" x1="1234" y1="264.84" x2="1275.1" y2="264.84" xlink:href="#Безымянный_градиент_4"/><linearGradient id="Безымянный_градиент_2-18" x1="1274.75" y1="264.84" x2="1316.26" y2="264.84" xlink:href="#Безымянный_градиент_4"/><linearGradient id="Безымянный_градиент_2-19" x1="1322.43" y1="264.84" x2="1366.05" y2="264.84" xlink:href="#Безымянный_градиент_4"/><linearGradient id="Безымянный_градиент_2-20" x1="1378.19" y1="264.84" x2="1435.13" y2="264.84" xlink:href="#Безымянный_градиент_4"/><linearGradient id="Безымянный_градиент_2-21" x1="1447.26" y1="264.84" x2="1484.08" y2="264.84" xlink:href="#Безымянный_градиент_4"/><linearGradient id="Безымянный_градиент_2-22" x1="1510.31" y1="264.84" x2="1564.03" y2="264.84" xlink:href="#Безымянный_градиент_4"/><linearGradient id="Безымянный_градиент_2-23" x1="1569.85" y1="264.84" x2="1623.08" y2="264.84" xlink:href="#Безымянный_градиент_4"/><linearGradient id="Безымянный_градиент_2-24" x1="1624.55" y1="264.84" x2="1670.27" y2="264.84" xlink:href="#Безымянный_градиент_4"/><linearGradient id="Безымянный_градиент_2-25" x1="1669.92" y1="265.19" x2="1717.75" y2="265.19" xlink:href="#Безымянный_градиент_4"/><linearGradient id="Безымянный_градиент_2-26" x1="1723.64" y1="264.84" x2="1776.87" y2="264.84" xlink:href="#Безымянный_градиент_4"/></defs><g id="Слой_2" data-name="Слой 2"><g id="white"><g id="logo"><path class="cls-1" d="M315.93,303.21,158.14,371,0,302.33V68.07L157.86,0,316,68.71ZM65.14,221.69c-5.82-.32-14.26-.9-14.33,7.11s8.51,7.43,14.33,7.11c-.24,19.17-.09,57.48-.09,57.48s-14.25-1.6-14.21,7.24c0,3.48,1.6,5.72,5,6.73,35.6,1.13,71.42.05,107.09.41h93.13c5.46,0,8.75-2.67,8.76-7.14,0-9.61-14.25-7.26-14.25-7.26s-.06-38.23-.09-57.46c5.82.32,14.26.9,14.34-7.11-.08-8-8.51-7.43-14.34-7.11.06-23.78.15-47.56,0-71.34,5.82.33,14.26.9,14.34-7.11-.08-8-8.51-7.43-14.34-7.1.24-19.17,0-38.31.09-57.49,5.73.19,13.25.86,14.21-6.29a7,7,0,0,0-5-7.68c-35.45-1.13-71.1,0-106.61-.41H59.57c-5.47,0-8.73,2.67-8.76,7.15-.23,7.36,8.11,7.6,14.24,7.25,0,19.27.06,38.24.09,57.47-5.82-.33-14.26-.91-14.33,7.1s8.51,7.44,14.33,7.11C65.09,174.13,65,197.91,65.14,221.69Zm67.63-71.27C115.22,173,99.8,192,112.63,221.65H65.1V236c18.12-.25,36.26,0,54.38-.14a8.75,8.75,0,0,1,6.33,2.38A47,47,0,0,0,155.67,250a49,49,0,0,0,35.7-12.83,5.5,5.5,0,0,1,3.34-1.23q27.9-.16,55.81,0v-14.3c-15.79-.27-31.9.57-47.53-.26,13.13-28.1-3.25-49.68-20.23-71.09,22.63,0,45.14-.05,67.76.1V136.09c-25.64.22-51.33,0-77,0-3.94-1-6.63-7.65-9.52-10.59-3.55-4.61-8.85-4.6-12.41,0-3.47,3.28-5.65,10.87-10.94,10.7-25.19-.17-50.38.11-75.56-.15V150.4C87.66,150.25,110.2,150.18,132.77,150.42Zm53,27.62c36.7,57.48-66.47,86.38-63.24,16.61a35.68,35.68,0,0,1,6.82-16c9.53-12.61,18.72-25.44,28.51-37.85C167.27,153.23,176.51,165.57,185.79,178ZM165.4,198.59c-.85,13.95-14.94,4.34-14.58,16.73,4.18,15.53,29.85-.15,28.28-14.76C179.64,192.39,166.68,190.32,165.4,198.59Z"/><g id="text"><path class="cls-2" d="M352,286.82a24.16,24.16,0,0,1-9.47-9,26.06,26.06,0,0,1,0-25.88,24.19,24.19,0,0,1,9.47-9.05,29.73,29.73,0,0,1,27.07,0,24.27,24.27,0,0,1,9.46,9,26.19,26.19,0,0,1,0,25.95,24.2,24.2,0,0,1-9.46,9,29.73,29.73,0,0,1-27.07,0Zm22.37-6.94a16,16,0,0,0,6.17-6.17,18.7,18.7,0,0,0,0-17.75,16,16,0,0,0-6.17-6.17,18.77,18.77,0,0,0-17.67,0,16.07,16.07,0,0,0-6.18,6.17,18.7,18.7,0,0,0,0,17.75,16,16,0,0,0,6.18,6.17,18.77,18.77,0,0,0,17.67,0Z"/><path class="cls-3" d="M431.7,242.4a16.2,16.2,0,0,1,7.26,6,18.46,18.46,0,0,1,0,18.62,16.14,16.14,0,0,1-7.26,6.06,27.24,27.24,0,0,1-11.12,2.11H409.5v14.16h-9.11V240.29h20.19A27.07,27.07,0,0,1,431.7,242.4ZM429.21,265a10,10,0,0,0,0-14.45c-2.06-1.68-5.07-2.52-9-2.52H409.5V267.5h10.66C424.14,267.5,427.15,266.66,429.21,265Z"/><path class="cls-4" d="M448.49,240.29h9v34.86l26.37-34.86h8.48v49.09h-9V254.6L457,289.38h-8.49Z"/><path class="cls-5" d="M537.7,248H513.36l.07,41.37h-9V240.29h33.31Z"/><path class="cls-6" d="M543.8,240.29h9v34.86l26.37-34.86h8.49v49.09h-9V254.6l-26.37,34.78H543.8Z"/><path class="cls-7" d="M643.31,240.29v49.09h-9.12v-21H608.81v21h-9.12V240.29h9.12v20.27h25.38V240.29Z"/><path class="cls-8" d="M687.91,278H663.37l-4.84,11.36h-9.4l22.09-49.09h9l22.16,49.09h-9.54Zm-3-7.15-9.26-21.46-9.19,21.46Z"/><path class="cls-9" d="M750.47,240.29v49.09h-9V248H722.13l-.42,12.27A101.56,101.56,0,0,1,720,277q-1.34,6.42-4.28,9.75a10.28,10.28,0,0,1-8.13,3.33,24.17,24.17,0,0,1-5-.7l.63-7.92a7.41,7.41,0,0,0,2.1.28c2.85,0,4.88-1.7,6.07-5.09s1.93-8.73,2.21-16l.7-20.34Z"/><path class="cls-10" d="M798.82,260.87q4.74,4,4.73,11.75,0,8.13-5.19,12.45t-14.58,4.31H762.67V240.29h9v16.62h13.6Q794.09,256.91,798.82,260.87Zm-7.26,19c1.92-1.63,2.88-4,2.88-7.15q0-8.91-11.08-8.91H771.65v18.52h11.71Q788.69,282.37,791.56,279.91Z"/><path class="cls-11" d="M854.82,240.29v49.09H845.7v-21H820.31v21H811.2V240.29h9.11v20.27H845.7V240.29Z"/><path class="cls-12" d="M903.1,260.87q4.74,4,4.73,11.75,0,8.13-5.18,12.45t-14.59,4.31H867V240.29h9v16.62h13.6Q898.37,256.91,903.1,260.87Zm-7.26,19c1.92-1.63,2.88-4,2.88-7.15q0-8.91-11.08-8.91H875.93v18.52h11.71Q893,282.37,895.84,279.91Zm19.08-39.62h9v49.09h-9Z"/><path class="cls-13" d="M972.84,281.74v7.64H936V240.29h35.83v7.65H945.14V260.7h23.71v7.5H945.14v13.54Z"/><path class="cls-14" d="M999.07,240.29h9v34.86l26.37-34.86h8.48v49.09h-9V254.6l-26.37,34.78h-8.49Z"/><path class="cls-15" d="M1100.06,289.38l-.07-32.54-16.13,26.93h-4.07l-16.13-26.51v32.12H1055V240.29h7.51L1082,272.76l19.22-32.47h7.43l.14,49.09Z"/><path class="cls-16" d="M1164.29,240.29v49.09h-9V248h-25.46v41.37h-9V240.29Z"/><path class="cls-17" d="M1185.61,286.82a24.13,24.13,0,0,1-9.46-9,26.06,26.06,0,0,1,0-25.88,24.16,24.16,0,0,1,9.46-9.05,29.73,29.73,0,0,1,27.07,0,24.3,24.3,0,0,1,9.47,9,26.19,26.19,0,0,1,0,25.95,24.23,24.23,0,0,1-9.47,9,29.73,29.73,0,0,1-27.07,0Zm22.38-6.94a16,16,0,0,0,6.17-6.17,18.7,18.7,0,0,0,0-17.75,16.11,16.11,0,0,0-6.17-6.17,18.78,18.78,0,0,0-17.68,0,16,16,0,0,0-6.17,6.17,18.7,18.7,0,0,0,0,17.75,16,16,0,0,0,6.17,6.17,18.78,18.78,0,0,0,17.68,0Z"/><path class="cls-18" d="M1265.32,242.4a16.12,16.12,0,0,1,7.25,6,18.39,18.39,0,0,1,0,18.62,16.06,16.06,0,0,1-7.25,6.06,27.27,27.27,0,0,1-11.12,2.11h-11.08v14.16H1234V240.29h20.2A27.1,27.1,0,0,1,1265.32,242.4ZM1262.83,265a10,10,0,0,0,0-14.45q-3.09-2.52-9-2.52h-10.66V267.5h10.66Q1259.74,267.5,1262.83,265Z"/><path class="cls-19" d="M1316.26,248H1300v41.37h-9V248h-16.2v-7.72h41.51Z"/><path class="cls-20" d="M1366.05,240.29v49.09h-9.11v-21h-25.39v21h-9.12V240.29h9.12v20.27h25.39V240.29Z"/><path class="cls-21" d="M1414.34,260.87q4.73,4,4.73,11.75,0,8.13-5.19,12.45t-14.59,4.31h-21.1V240.29h9v16.62h13.61Q1409.61,256.91,1414.34,260.87Zm-7.26,19c1.92-1.63,2.87-4,2.87-7.15q0-8.91-11.08-8.91h-11.71v18.52h11.71C1402.43,282.37,1405.16,281.55,1407.08,279.91Zm19.07-39.62h9v49.09h-9Z"/><path class="cls-22" d="M1484.08,281.74v7.64h-36.82V240.29h35.84v7.65h-26.72V260.7h23.7v7.5h-23.7v13.54Z"/><path class="cls-23" d="M1555.33,289.38l-.07-32.54-16.13,26.93h-4.07l-16.13-26.51v32.12h-8.62V240.29h7.5l19.43,32.47,19.21-32.47h7.44l.14,49.09Z"/><path class="cls-24" d="M1608.63,278h-24.55l-4.83,11.36h-9.4l22.09-49.09h9l22.16,49.09h-9.54Zm-3-7.15-9.25-21.46-9.19,21.46Z"/><path class="cls-25" d="M1637.35,286.82a24,24,0,0,1-9.4-9,26.36,26.36,0,0,1,0-25.95,24.35,24.35,0,0,1,9.44-9,27.66,27.66,0,0,1,13.43-3.26,28.06,28.06,0,0,1,11,2.1,22.56,22.56,0,0,1,8.41,6.1l-5.89,5.55a17.15,17.15,0,0,0-13.11-5.76,18.43,18.43,0,0,0-9,2.21,16,16,0,0,0-6.24,6.14,18.82,18.82,0,0,0,0,17.81,15.88,15.88,0,0,0,6.24,6.14,18.43,18.43,0,0,0,9,2.21,17.07,17.07,0,0,0,13.11-5.82l5.89,5.61a22.43,22.43,0,0,1-8.45,6.1,28.28,28.28,0,0,1-11,2.1A27.55,27.55,0,0,1,1637.35,286.82Z"/><path class="cls-26" d="M1717.75,240.29v49.09h-9V248h-19.35l-.42,12.27a102.52,102.52,0,0,1-1.69,16.72q-1.32,6.42-4.27,9.75a10.32,10.32,0,0,1-8.14,3.33,24.35,24.35,0,0,1-5-.7l.63-7.92a7.44,7.44,0,0,0,2.11.28q4.27,0,6.06-5.09t2.21-16l.7-20.34Z"/><path class="cls-27" d="M1762.42,278h-24.54L1733,289.38h-9.4l22.09-49.09h9l22.16,49.09h-9.54Zm-3-7.15-9.26-21.46L1741,270.87Z"/><path class="cls-28" d="M407.59,175.55,389.88,150H370.34v25.57H349.09V83.75h39.74q12.19,0,21.18,4.06a30.39,30.39,0,0,1,18.69,29.25,29.93,29.93,0,0,1-18.88,29l20.59,29.5Zm-5.38-70.36q-5-4.12-14.56-4.13H370.34v32h17.31q9.57,0,14.56-4.19t5-11.81Q407.19,109.32,402.21,105.19Z"/><path class="cls-28" d="M517.88,105v70.55H498.47v-8.39a27.15,27.15,0,0,1-9.7,7,30.68,30.68,0,0,1-12.2,2.42q-13.9,0-22-8t-8.13-23.73V105h20.46v36.85q0,17.06,14.29,17.05a15.36,15.36,0,0,0,11.8-4.79q4.47-4.79,4.46-14.23V105Z"/><path class="cls-28" d="M546.21,174.44A45,45,0,0,1,532.83,169l6.82-14.69a43,43,0,0,0,11.41,4.92,47.74,47.74,0,0,0,13.12,1.9q13,0,13-6.43,0-3-3.54-4.33a53.29,53.29,0,0,0-10.88-2.23,105.59,105.59,0,0,1-14.3-3,22.15,22.15,0,0,1-9.77-6q-4.12-4.32-4.13-12.32a19.3,19.3,0,0,1,3.87-11.87,24.91,24.91,0,0,1,11.28-8.07A48.23,48.23,0,0,1,567.2,104a68.25,68.25,0,0,1,14.88,1.64,41.56,41.56,0,0,1,12.26,4.52l-6.82,14.56a40.68,40.68,0,0,0-20.32-5.25c-4.38,0-7.66.62-9.84,1.84s-3.28,2.8-3.28,4.72q0,3.28,3.54,4.59a63.36,63.36,0,0,0,11.28,2.49,120.85,120.85,0,0,1,14.16,3.08,21.37,21.37,0,0,1,9.58,6q4.07,4.33,4.06,12.07a18.64,18.64,0,0,1-3.93,11.67q-3.93,5.11-11.48,7.93a51.07,51.07,0,0,1-17.9,2.82A68.67,68.67,0,0,1,546.21,174.44Z"/><path class="cls-28" d="M657.56,172.14a21,21,0,0,1-7.41,3.35,37.68,37.68,0,0,1-9.25,1.11q-12.58,0-19.47-6.42t-6.89-18.89v-29H603.65V106.57h10.89V89.39H635v17.18h17.57v15.74H635V151c0,3,.76,5.27,2.29,6.88a8.51,8.51,0,0,0,6.5,2.43,13.16,13.16,0,0,0,8.26-2.62Z"/><path class="cls-28" d="M701.3,106.57A36.68,36.68,0,0,1,715.66,104v18.88c-2.28-.17-3.81-.26-4.59-.26q-8.79,0-13.77,4.92t-5,14.75v33.31H671.85V105h19.54v9.31A22.76,22.76,0,0,1,701.3,106.57Z"/><path class="cls-28" d="M783.86,111.75q8.77,7.8,8.78,23.54v40.26H773.5v-8.78q-5.78,9.84-21.51,9.83a33.31,33.31,0,0,1-14.1-2.75,21,21,0,0,1-9.12-7.61,19.74,19.74,0,0,1-3.14-11q0-9.84,7.41-15.48t22.88-5.64h16.26q0-6.69-4.06-10.29t-12.2-3.61A35.61,35.61,0,0,0,744.84,122a29.39,29.39,0,0,0-9.25,4.79l-7.34-14.3a44.14,44.14,0,0,1,13.83-6.29,61.88,61.88,0,0,1,16.6-2.23Q775.06,104,783.86,111.75Zm-17.45,48.66a13.25,13.25,0,0,0,5.77-7.15v-7.21h-14q-12.58,0-12.59,8.26a7.37,7.37,0,0,0,3.08,6.23q3.09,2.29,8.46,2.29A17.78,17.78,0,0,0,766.41,160.41Z"/><path class="cls-28" d="M878,111.82q8.06,7.86,8.06,23.34v40.39H865.56V138.31q0-8.4-3.67-12.53t-10.62-4.13q-7.74,0-12.33,4.79t-4.59,14.23v34.88H813.89V105h19.54v8.26a27.22,27.22,0,0,1,10.1-6.89A35.32,35.32,0,0,1,856.77,104Q869.9,104,878,111.82Z"/><path class="cls-28" d="M913.82,174.44A45,45,0,0,1,900.45,169l6.82-14.69a43,43,0,0,0,11.41,4.92,47.73,47.73,0,0,0,13.11,1.9q13,0,13-6.43,0-3-3.54-4.33a53.42,53.42,0,0,0-10.89-2.23,105.59,105.59,0,0,1-14.3-3,22.21,22.21,0,0,1-9.77-6q-4.12-4.32-4.13-12.32A19.3,19.3,0,0,1,906,114.9a24.91,24.91,0,0,1,11.28-8.07A48.27,48.27,0,0,1,934.81,104a68.25,68.25,0,0,1,14.88,1.64A41.73,41.73,0,0,1,962,110.11l-6.82,14.56a40.71,40.71,0,0,0-20.33-5.25c-4.37,0-7.65.62-9.84,1.84s-3.28,2.8-3.28,4.72q0,3.28,3.54,4.59a63.57,63.57,0,0,0,11.28,2.49,121.08,121.08,0,0,1,14.17,3.08,21.39,21.39,0,0,1,9.57,6q4.07,4.33,4.07,12.07a18.59,18.59,0,0,1-3.94,11.67q-3.93,5.11-11.47,7.93A51.17,51.17,0,0,1,931,176.6,68.73,68.73,0,0,1,913.82,174.44Z"/><path class="cls-28" d="M977,130.44h37.11v16.39H977Z"/><path class="cls-28" d="M1034.48,83.75h21.25v74.49h46v17.31h-67.28Z"/><path class="cls-28" d="M1128.05,172A34.56,34.56,0,0,1,1114.22,159a37.81,37.81,0,0,1,0-37.51,34.62,34.62,0,0,1,13.83-12.92,42.39,42.39,0,0,1,20-4.65A42,42,0,0,1,1168,108.6a34.72,34.72,0,0,1,13.77,12.92,37.74,37.74,0,0,1,0,37.51A34.65,34.65,0,0,1,1168,172a42,42,0,0,1-19.93,4.65A42.39,42.39,0,0,1,1128.05,172ZM1161,154.5q5.05-5.31,5-14.22T1161,126a17,17,0,0,0-12.91-5.31,17.26,17.26,0,0,0-13,5.31q-5.11,5.33-5.11,14.24t5.11,14.22a17.23,17.23,0,0,0,13,5.32A17,17,0,0,0,1161,154.5Z"/><path class="cls-28" d="M1275.93,105v58.75q0,19.41-10.1,28.85t-29.51,9.45a74.27,74.27,0,0,1-19.41-2.49,42.52,42.52,0,0,1-15.21-7.22l8.13-14.69a33.33,33.33,0,0,0,11.28,5.84,44.91,44.91,0,0,0,13.64,2.16q10.62,0,15.67-4.78c3.36-3.2,5-8,5-14.5v-3q-8,8.79-22.3,8.78a37.46,37.46,0,0,1-17.77-4.26,32.47,32.47,0,0,1-12.79-12,36.06,36.06,0,0,1,0-35.67,32.47,32.47,0,0,1,12.79-12,37.46,37.46,0,0,1,17.77-4.26q15.35,0,23.35,10.09v-9Zm-25.38,45.57a17.73,17.73,0,0,0,0-25q-5.19-4.78-13.31-4.79t-13.38,4.79a17.59,17.59,0,0,0,0,25q5.25,4.78,13.38,4.79T1250.55,150.57Z"/><path class="cls-28" d="M1298.75,91.88a11.11,11.11,0,0,1,0-16.26,13,13,0,0,1,9.18-3.28,13.29,13.29,0,0,1,9.18,3.15,10.08,10.08,0,0,1,3.54,7.87,11.12,11.12,0,0,1-3.54,8.45,12.83,12.83,0,0,1-9.18,3.35A13,13,0,0,1,1298.75,91.88Zm-1,13.12h20.46v70.55H1297.7Z"/><path class="cls-28" d="M1346.49,174.44a44.92,44.92,0,0,1-13.38-5.44l6.82-14.69a43,43,0,0,0,11.41,4.92,47.73,47.73,0,0,0,13.11,1.9q13,0,13-6.43,0-3-3.54-4.33a53.26,53.26,0,0,0-10.89-2.23,105.59,105.59,0,0,1-14.3-3,22.27,22.27,0,0,1-9.77-6q-4.12-4.32-4.13-12.32a19.3,19.3,0,0,1,3.87-11.87,24.91,24.91,0,0,1,11.28-8.07,48.27,48.27,0,0,1,17.51-2.88,68.34,68.34,0,0,1,14.89,1.64,41.77,41.77,0,0,1,12.26,4.52l-6.82,14.56a40.71,40.71,0,0,0-20.33-5.25c-4.37,0-7.65.62-9.84,1.84s-3.28,2.8-3.28,4.72c0,2.19,1.19,3.72,3.55,4.59a63.2,63.2,0,0,0,11.27,2.49,120.62,120.62,0,0,1,14.17,3.08,21.39,21.39,0,0,1,9.57,6q4.06,4.33,4.07,12.07a18.59,18.59,0,0,1-3.94,11.67q-3.93,5.11-11.47,7.93a51.15,51.15,0,0,1-17.9,2.82A68.61,68.61,0,0,1,1346.49,174.44Z"/><path class="cls-28" d="M1457.83,172.14a20.9,20.9,0,0,1-7.41,3.35,37.63,37.63,0,0,1-9.25,1.11q-12.59,0-19.47-6.42t-6.89-18.89v-29h-10.88V106.57h10.88V89.39h20.46v17.18h17.58v15.74h-17.58V151c0,3,.77,5.27,2.3,6.88a8.49,8.49,0,0,0,6.49,2.43,13.14,13.14,0,0,0,8.26-2.62Z"/><path class="cls-28" d="M1473.18,91.88a11.08,11.08,0,0,1,0-16.26,13,13,0,0,1,9.18-3.28,13.31,13.31,0,0,1,9.18,3.15,10.08,10.08,0,0,1,3.54,7.87,11.12,11.12,0,0,1-3.54,8.45,14.37,14.37,0,0,1-18.36.07Zm-1,13.12h20.46v70.55h-20.46Z"/><path class="cls-28" d="M1528.19,172a34.78,34.78,0,0,1-14-12.92,37.35,37.35,0,0,1,0-37.51,34.85,34.85,0,0,1,14-12.92,43.43,43.43,0,0,1,20.27-4.65,39.28,39.28,0,0,1,19.47,4.65,27.62,27.62,0,0,1,12.13,13.31l-15.87,8.53q-5.51-9.7-15.87-9.71a17.93,17.93,0,0,0-13.24,5.25q-5.25,5.25-5.25,14.3t5.25,14.29a17.93,17.93,0,0,0,13.24,5.25q10.5,0,15.87-9.71l15.87,8.66a28.17,28.17,0,0,1-12.13,13.11,38.77,38.77,0,0,1-19.47,4.72A43.43,43.43,0,0,1,1528.19,172Z"/><path class="cls-28" d="M1595.93,172.93a12.45,12.45,0,0,1-3.67-9.18,11.94,11.94,0,0,1,3.67-9.11,13.51,13.51,0,0,1,18.1,0,12,12,0,0,1,3.67,9.11,12.49,12.49,0,0,1-3.67,9.18,13,13,0,0,1-18.1,0Z"/><path class="cls-28" d="M1663.8,106.57a36.71,36.71,0,0,1,14.36-2.62v18.88c-2.28-.17-3.8-.26-4.59-.26q-8.79,0-13.77,4.92t-5,14.75v33.31h-20.46V105h19.55v9.31A22.67,22.67,0,0,1,1663.8,106.57Z"/><path class="cls-28" d="M1764.72,105v70.55h-19.41v-8.39a27.19,27.19,0,0,1-9.71,7,30.63,30.63,0,0,1-12.19,2.42q-13.9,0-22-8t-8.13-23.73V105h20.46v36.85q0,17.06,14.3,17.05a15.37,15.37,0,0,0,11.8-4.79q4.46-4.79,4.46-14.23V105Z"/></g></g></g></g></svg>