<?xml version="1.0" encoding="utf-8"?>
<!-- Generator: Adobe Illustrator 25.4.1, SVG Export Plug-In . SVG Version: 6.00 Build 0)  -->
<svg version="1.1" id="Слой_1" xmlns="http://www.w3.org/2000/svg" xmlns:xlink="http://www.w3.org/1999/xlink" x="0px" y="0px"
	 viewBox="0 0 1800 1600" style="enable-background:new 0 0 1800 1600;" xml:space="preserve">
<style type="text/css">
	.st0{fill:#FFFFFF;}
	.st1{fill:#F3BA34;}
	.st2{fill:#EAEAEA;}
	.st3{font-family:'MicrosoftSansSerif';}
	.st4{font-size:129px;}
	.st5{letter-spacing:31;}
</style>
<g>
	<path class="st0" d="M984,556.9c-2.7,0.9-1.7,2.1-0.2,3.3c42.4,32.1,66.1,84.6,66.5,137.4c0,25,0.2,50,0.4,75c0,2.2-0.8,5.2,2,6.1
		c2.7,0.9,3.9-1.9,5.5-3.4c51.9-55.5,141.5-66.4,204.6-23.8c54.9,35.1,83.4,106,67.8,169.3c-0.7,3.7-3.7,4.5-6.8,4.7
		c-70.8,0.2-141.6,0.1-212.5,0.2c-8.5-1.5-10.5,3.3-4.3,8.7c12,15.6,27.1,26.3,46.5,31.6c11.8,3.2,23.5,2.2,35.2,2.3
		c39.4,1.6,80.6-2.1,119,1.3c1.4,2.4-0.9,3.9-2.1,5.6c-22.5,32.4-57.9,55.3-96.4,64c-65.7,15.1-139.5-16.4-172.7-75.5
		c-2.5-5.6-6.6-4.6-8.3,0.7c-8,13.4-17.4,25.5-29,36c-75.6,70.9-205.3,48.1-250.5-45.5c-1.7-4.9-5.9-4.2-7.4,0.4
		c-15.1,29.7-37.2,52.3-66.5,68.2c-67.5,38.3-159.8,16.7-204.4-46.4c-4.1-5.6-8.2-11.3-11.1-17.7c-0.8-3.9-5.4-4-6.5-0.2
		c-38.7,73.2-134.7,103.4-208.8,66.8c-75.3-33.5-111-127.6-78.5-203.1c41.2-104.4,186.7-131.9,262.7-49.1c3.1,2.8,4,5.4,1.2,9.8
		c-12,19-23.3,38.3-35,57.5C387.1,861,375.4,785,294,800.1c-80.7,17.5-89.5,131-12.5,161.3c35.3,14.9,77.2,3.1,99.7-27.9
		c33.6-49.6,60.6-103.6,96-151.9c44.5-54.4,124.7-72.2,188.2-42.3c32.8,14.6,60.5,40.8,76.1,73.1c2,4.1,4.8,4.4,6.8,0.3
		c11.4-23.3,28.5-43.2,49.7-58.1c48.3-35.8,117.7-39.6,170-10.2c5.8,5.6,10.5,3.2,9.2-4.9c-0.9-60.8,2.3-122.2-1.1-182.7
		C978.7,556.9,981.3,556.9,984,556.9z M599.2,968c111.6,0.2,111.9-169.4-1.7-169.6C486.4,803.3,490.4,968.4,599.2,968z M806.4,883.7
		c1.6,112.8,169.7,108.8,169.9-0.7C974.2,773.7,808.2,770.9,806.4,883.7z M1175.5,850.8c0-0.1,0-0.2,0-0.2c23.3,0,46.6,0,70,0
		c19.7,0.8-14.2-31.5-19.4-34.9c-22.2-17.2-53.4-20.5-79.7-11.8c-21.1,7.1-35.8,21.7-46.9,40.4c-3.7,5.8,3.4,6.9,7.6,6.5
		C1129.8,850.8,1152.7,850.8,1175.5,850.8z"/>
	<path class="st1" d="M1632,925.7c-6-12.8-11.9-26.8-24.1-35.1c-7.6-5-21.5-11.4-9.7-20.2c6.8-6.7,15.4-12.2,15.8-23.3
		c11.9-12.9,10.3-38.5,5.6-54.6c-2.9-15.1-15.4-25.8-26.2-36.2c-5.9-8.9-18.6-8.6-26.6-14.7c-22.1-11.4-47.9-10.9-72.3-10.6
		c0,0,0,0,0,0c-65.6-6.9-147.1,32.7-124.3,109.7c11.6,34.9,41.7,31.6,17.8,45.2c-49.3,31.3-41.1,110.2,10.8,134.4
		C1476.8,1065.5,1655.6,1048.6,1632,925.7z M1457.3,816.3c6.1-49.6,103.2-26.8,69.8,22.4c-14.5,17.8-41.1,16.2-59.7,6.1
		c-3.3-1.2-3.3-4.6-4.9-7C1456.3,831.7,1457.4,823.9,1457.3,816.3z M1543,946.6c-0.3,23.5-23.9,39.4-45.7,36.4
		c-27.7,3.9-58-17.1-50.7-46.9C1457.5,894.9,1547,899.8,1543,946.6z"/>
</g>
<text transform="matrix(1 0 0 1 144.3572 1222.6483)" class="st2 st3 st4 st5">digital agency</text>
</svg>
