<?xml version="1.0" encoding="UTF-8"?>
<svg id="_Слой_2" data-name="Слой 2" xmlns="http://www.w3.org/2000/svg" viewBox="0 0 3000 3545.79">
  <defs>
    <style>
      .cls-1 {
        fill: #e11110;
      }

      .cls-1, .cls-2 {
        stroke-width: 0px;
      }

      .cls-2 {
        fill: #fff;
      }
    </style>
  </defs>
  <g id="_Слой_5" data-name="Слой 5">
    <g>
      <path class="cls-1" d="M1502.91,0c497.54,220.21,998.8,432,1497.09,650.46v2223.91c-498.66,224.46-1000.08,443.71-1497.09,671.42C1002.67,3323.64,502.12,3095.47,0,2875.34c0-742.46,0-1484.92,0-2227.37C502.93,437.92,1001.88,213.18,1502.91,0Z"/>
      <path class="cls-2" d="M625.66,2110.61c-55.1-3.1-135-8.55-135.72,67.27.74,75.82,80.59,70.37,135.72,67.26-2.27,181.48-.86,544.24-.86,544.24,0,0-134.9-15.15-134.52,68.5.15,32.91,15.11,54.15,47.21,63.72,337.03,10.72,676.1.42,1013.78,3.9,293.88,0,587.77,0,881.65-.02,51.76,0,82.89-25.26,82.97-67.63.17-90.97-134.86-68.69-134.86-68.69,0,0-.59-361.97-.86-544.03,55.1,3.1,135,8.55,135.72-67.27-.74-75.82-80.59-70.37-135.72-67.26.53-225.14,1.34-450.28,0-675.42,55.1,3.1,135,8.55,135.72-67.27-.74-75.82-80.59-70.37-135.72-67.26,2.27-181.48.17-362.68.86-544.24,54.19,1.78,125.42,8.14,134.52-59.5,3.94-32.68-15.11-63.15-47.21-72.72-335.53-10.72-673.1-.42-1009.28-3.9-295.38,0-590.77,0-886.15.02-51.76,0-82.68,25.27-82.97,67.63-2.12,69.73,76.8,72.03,134.86,68.69-.04,182.45.59,361.97.86,544.03-55.1-3.1-135-8.55-135.72,67.27.74,75.82,80.59,70.37,135.72,67.26-.5,225.14-1.37,450.28,0,675.42Z"/>
      <path class="cls-1" d="M625.24,1435.65v-135.45c238.39,2.42,476.88-.21,715.3,1.42,50.13,1.57,70.72-70.2,103.65-101.24,33.66-43.63,83.83-43.66,117.46,0,27.38,27.76,52.83,91.07,90.14,100.19,242.89-.09,486.05,1.72,728.8-.36v135.45c-214.15-1.41-427.2-.81-641.48-.89,160.73,202.65,315.88,406.91,191.57,672.96,147.92,7.89,300.46-.1,449.91,2.44v135.45c-176.11-1.13-352.24-1.42-528.35-.38-10.69.07-23.74,4.61-31.62,11.64-96.43,86.11-209.78,126.44-337.92,121.46-106.39-4.14-202.02-40.92-282.71-111.54-18.18-15.91-35.79-22.71-59.89-22.57-171.61,1.72-343.29-1-514.86,1.39v-135.45h450.03c-121.46-281.08,24.43-460.82,190.58-674.25-213.61-2.32-427.05-1.68-640.6-.25ZM1503.58,1344.92c-92.66,117.45-179.65,238.92-269.91,358.28-33.53,45.09-55.87,95.48-64.56,151.38-30.54,660.55,946.13,386.93,598.67-157.25-87.85-118.06-175.33-234.88-264.2-352.41Z"/>
      <path class="cls-1" d="M1704.48,1910.52c14.9,138.35-228.14,286.72-267.72,139.75-3.38-117.32,129.94-26.37,138-158.44,12.12-78.21,134.87-58.67,129.72,18.69Z"/>
    </g>
  </g>
</svg>