<?xml version="1.0" encoding="UTF-8"?>
<svg id="_Слой_2" data-name="Слой 2" xmlns="http://www.w3.org/2000/svg" xmlns:xlink="http://www.w3.org/1999/xlink" viewBox="0 0 1777.87 372.04">
  <defs>
    <style>
      .cls-1 {
        fill: url(#_Безымянный_градиент_23-18);
      }

      .cls-1, .cls-2, .cls-3, .cls-4, .cls-5, .cls-6, .cls-7, .cls-8, .cls-9, .cls-10, .cls-11, .cls-12, .cls-13, .cls-14, .cls-15, .cls-16, .cls-17, .cls-18, .cls-19, .cls-20, .cls-21, .cls-22, .cls-23, .cls-24, .cls-25, .cls-26, .cls-27, .cls-28, .cls-29, .cls-30, .cls-31, .cls-32, .cls-33, .cls-34, .cls-35, .cls-36 {
        stroke-width: 0px;
      }

      .cls-2 {
        fill: url(#_Безымянный_градиент_23-21);
      }

      .cls-3 {
        fill: url(#_Безымянный_градиент_23-6);
      }

      .cls-4 {
        fill: url(#_Безымянный_градиент_23-17);
      }

      .cls-5 {
        fill: url(#_Безымянный_градиент_23-30);
      }

      .cls-6 {
        fill: url(#_Безымянный_градиент_23-29);
      }

      .cls-7 {
        fill: url(#_Безымянный_градиент_23-24);
      }

      .cls-8 {
        fill: url(#_Безымянный_градиент_23-23);
      }

      .cls-9 {
        fill: url(#_Безымянный_градиент_24);
      }

      .cls-10 {
        fill: url(#_Безымянный_градиент_38);
      }

      .cls-11 {
        fill: url(#_Безымянный_градиент_23-14);
      }

      .cls-12 {
        fill: url(#_Безымянный_градиент_23-13);
      }

      .cls-13 {
        fill: url(#_Безымянный_градиент_24-3);
      }

      .cls-14 {
        fill: url(#_Безымянный_градиент_23);
      }

      .cls-15 {
        fill: url(#_Безымянный_градиент_23-8);
      }

      .cls-16 {
        fill: url(#_Безымянный_градиент_24-2);
      }

      .cls-17 {
        fill: url(#_Безымянный_градиент_23-22);
      }

      .cls-18 {
        fill: url(#_Безымянный_градиент_23-26);
      }

      .cls-19 {
        fill: url(#_Безымянный_градиент_23-16);
      }

      .cls-20 {
        fill: url(#_Безымянный_градиент_23-10);
      }

      .cls-21 {
        fill: url(#_Безымянный_градиент_23-15);
      }

      .cls-22 {
        fill: url(#_Безымянный_градиент_23-4);
      }

      .cls-23 {
        fill: url(#_Безымянный_градиент_23-27);
      }

      .cls-24 {
        fill: url(#_Безымянный_градиент_23-3);
      }

      .cls-25 {
        fill: url(#_Безымянный_градиент_23-7);
      }

      .cls-26 {
        fill: url(#_Безымянный_градиент_23-5);
      }

      .cls-27 {
        fill: #fff;
      }

      .cls-28 {
        fill: url(#_Безымянный_градиент_23-12);
      }

      .cls-29 {
        fill: #2d2c2c;
      }

      .cls-30 {
        fill: url(#_Безымянный_градиент_23-19);
      }

      .cls-31 {
        fill: url(#_Безымянный_градиент_23-2);
      }

      .cls-32 {
        fill: url(#_Безымянный_градиент_23-9);
      }

      .cls-33 {
        fill: url(#_Безымянный_градиент_23-20);
      }

      .cls-34 {
        fill: url(#_Безымянный_градиент_23-25);
      }

      .cls-35 {
        fill: url(#_Безымянный_градиент_23-28);
      }

      .cls-36 {
        fill: url(#_Безымянный_градиент_23-11);
      }
    </style>
    <linearGradient id="_Безымянный_градиент_24" data-name="Безымянный градиент 24" x1=".11" y1="93.02" x2="158.86" y2="93.02" gradientUnits="userSpaceOnUse">
      <stop offset="0" stop-color="#e11110"/>
      <stop offset="1" stop-color="#940010"/>
    </linearGradient>
    <linearGradient id="_Безымянный_градиент_24-2" data-name="Безымянный градиент 24" x1="158.55" x2="317" xlink:href="#_Безымянный_градиент_24"/>
    <linearGradient id="_Безымянный_градиент_23" data-name="Безымянный градиент 23" x1="237.78" y1="303.62" x2="237.78" y2="68.71" gradientUnits="userSpaceOnUse">
      <stop offset="0" stop-color="#940010"/>
      <stop offset="1" stop-color="#e11110"/>
    </linearGradient>
    <linearGradient id="_Безымянный_градиент_23-2" data-name="Безымянный градиент 23" x1="158.14" y1="279.03" x2="316.89" y2="279.03" xlink:href="#_Безымянный_градиент_23"/>
    <linearGradient id="_Безымянный_градиент_23-3" data-name="Безымянный градиент 23" x1="0" y1="279.03" x2="158.45" y2="279.03" xlink:href="#_Безымянный_градиент_23"/>
    <linearGradient id="_Безымянный_градиент_24-3" data-name="Безымянный градиент 24" x1="79.22" y1="303.33" x2="79.22" y2="68.42" xlink:href="#_Безымянный_градиент_24"/>
    <linearGradient id="_Безымянный_градиент_38" data-name="Безымянный градиент 38" x1="60.28" y1="154.01" x2="257.34" y2="218.04" gradientUnits="userSpaceOnUse">
      <stop offset="0" stop-color="#e11110"/>
      <stop offset=".15" stop-color="#df1010"/>
      <stop offset=".2" stop-color="#d80f10"/>
      <stop offset=".23" stop-color="#cc0c10"/>
      <stop offset=".26" stop-color="#bb0810"/>
      <stop offset=".29" stop-color="#a50310"/>
      <stop offset=".31" stop-color="#940010"/>
      <stop offset=".36" stop-color="#950010"/>
      <stop offset=".38" stop-color="#9c0110"/>
      <stop offset=".4" stop-color="#a80410"/>
      <stop offset=".41" stop-color="#b90810"/>
      <stop offset=".42" stop-color="#cf0d10"/>
      <stop offset=".43" stop-color="#e11110"/>
      <stop offset=".73" stop-color="#940010"/>
      <stop offset=".84" stop-color="#e11110"/>
      <stop offset=".84" stop-color="#d80f10"/>
      <stop offset=".86" stop-color="#bf0910"/>
      <stop offset=".88" stop-color="#ac0510"/>
      <stop offset=".91" stop-color="#9e0210"/>
      <stop offset=".94" stop-color="#960010"/>
      <stop offset="1" stop-color="#940010"/>
    </linearGradient>
    <linearGradient id="_Безымянный_градиент_23-4" data-name="Безымянный градиент 23" x1="151.81" y1="207.53" x2="180.17" y2="207.53" xlink:href="#_Безымянный_градиент_23"/>
    <linearGradient id="_Безымянный_градиент_23-5" data-name="Безымянный градиент 23" x1="340.09" y1="264.84" x2="392.97" y2="264.84" xlink:href="#_Безымянный_градиент_23"/>
    <linearGradient id="_Безымянный_градиент_23-6" data-name="Безымянный градиент 23" x1="401.39" y1="264.84" x2="442.48" y2="264.84" xlink:href="#_Безымянный_градиент_23"/>
    <linearGradient id="_Безымянный_градиент_23-7" data-name="Безымянный градиент 23" x1="449.49" y1="264.84" x2="493.32" y2="264.84" xlink:href="#_Безымянный_градиент_23"/>
    <linearGradient id="_Безымянный_градиент_23-8" data-name="Безымянный градиент 23" x1="505.46" y1="264.84" x2="538.77" y2="264.84" xlink:href="#_Безымянный_градиент_23"/>
    <linearGradient id="_Безымянный_градиент_23-9" data-name="Безымянный градиент 23" x1="544.8" y1="264.84" x2="588.63" y2="264.84" xlink:href="#_Безымянный_градиент_23"/>
    <linearGradient id="_Безымянный_градиент_23-10" data-name="Безымянный градиент 23" x1="600.69" y1="264.84" x2="644.31" y2="264.84" xlink:href="#_Безымянный_градиент_23"/>
    <linearGradient id="_Безымянный_градиент_23-11" data-name="Безымянный градиент 23" x1="650.13" y1="264.84" x2="703.36" y2="264.84" xlink:href="#_Безымянный_градиент_23"/>
    <linearGradient id="_Безымянный_градиент_23-12" data-name="Безымянный градиент 23" x1="703.64" y1="265.19" x2="751.47" y2="265.19" xlink:href="#_Безымянный_градиент_23"/>
    <linearGradient id="_Безымянный_градиент_23-13" data-name="Безымянный градиент 23" x1="763.67" y1="264.84" x2="804.55" y2="264.84" xlink:href="#_Безымянный_градиент_23"/>
    <linearGradient id="_Безымянный_градиент_23-14" data-name="Безымянный градиент 23" x1="812.2" y1="264.84" x2="855.82" y2="264.84" xlink:href="#_Безымянный_градиент_23"/>
    <linearGradient id="_Безымянный_градиент_23-15" data-name="Безымянный градиент 23" x1="867.95" y1="264.84" x2="924.9" y2="264.84" xlink:href="#_Безымянный_градиент_23"/>
    <linearGradient id="_Безымянный_градиент_23-16" data-name="Безымянный градиент 23" x1="937.03" y1="264.84" x2="973.84" y2="264.84" xlink:href="#_Безымянный_градиент_23"/>
    <linearGradient id="_Безымянный_градиент_23-17" data-name="Безымянный градиент 23" x1="1000.07" y1="264.84" x2="1043.9" y2="264.84" xlink:href="#_Безымянный_градиент_23"/>
    <linearGradient id="_Безымянный_градиент_23-18" data-name="Безымянный градиент 23" x1="1056.03" y1="264.84" x2="1109.75" y2="264.84" xlink:href="#_Безымянный_градиент_23"/>
    <linearGradient id="_Безымянный_градиент_23-19" data-name="Безымянный градиент 23" x1="1121.88" y1="264.84" x2="1165.29" y2="264.84" xlink:href="#_Безымянный_градиент_23"/>
    <linearGradient id="_Безымянный_градиент_23-20" data-name="Безымянный градиент 23" x1="1173.71" y1="264.84" x2="1226.59" y2="264.84" xlink:href="#_Безымянный_градиент_23"/>
    <linearGradient id="_Безымянный_градиент_23-21" data-name="Безымянный градиент 23" x1="1235" y1="264.84" x2="1276.1" y2="264.84" xlink:href="#_Безымянный_градиент_23"/>
    <linearGradient id="_Безымянный_градиент_23-22" data-name="Безымянный градиент 23" x1="1275.75" y1="264.84" x2="1317.26" y2="264.84" xlink:href="#_Безымянный_градиент_23"/>
    <linearGradient id="_Безымянный_градиент_23-23" data-name="Безымянный градиент 23" x1="1323.43" y1="264.84" x2="1367.05" y2="264.84" xlink:href="#_Безымянный_градиент_23"/>
    <linearGradient id="_Безымянный_градиент_23-24" data-name="Безымянный градиент 23" x1="1379.19" y1="264.84" x2="1436.13" y2="264.84" xlink:href="#_Безымянный_градиент_23"/>
    <linearGradient id="_Безымянный_градиент_23-25" data-name="Безымянный градиент 23" x1="1448.26" y1="264.84" x2="1485.08" y2="264.84" xlink:href="#_Безымянный_градиент_23"/>
    <linearGradient id="_Безымянный_градиент_23-26" data-name="Безымянный градиент 23" x1="1511.31" y1="264.84" x2="1565.03" y2="264.84" xlink:href="#_Безымянный_градиент_23"/>
    <linearGradient id="_Безымянный_градиент_23-27" data-name="Безымянный градиент 23" x1="1570.85" y1="264.84" x2="1624.08" y2="264.84" xlink:href="#_Безымянный_градиент_23"/>
    <linearGradient id="_Безымянный_градиент_23-28" data-name="Безымянный градиент 23" x1="1625.55" y1="264.84" x2="1671.27" y2="264.84" xlink:href="#_Безымянный_градиент_23"/>
    <linearGradient id="_Безымянный_градиент_23-29" data-name="Безымянный градиент 23" x1="1670.92" y1="265.19" x2="1718.75" y2="265.19" xlink:href="#_Безымянный_градиент_23"/>
    <linearGradient id="_Безымянный_градиент_23-30" data-name="Безымянный градиент 23" x1="1724.64" y1="264.84" x2="1777.87" y2="264.84" xlink:href="#_Безымянный_градиент_23"/>
  </defs>
  <g id="original">
    <g>
      <g>
        <g>
          <g>
            <path class="cls-9" d="M158.86,0c-26.46,11.26-52.87,22.82-79.3,34.35C53.13,45.87,26.67,57.35.11,68.45l158.45,117.59.31-186.03Z"/>
            <path class="cls-16" d="M317,68.71c-26.32-11.54-52.71-22.9-79.1-34.29-26.39-11.39-52.76-22.79-79.04-34.42l-.31,186.03,158.45-117.33Z"/>
            <path class="cls-14" d="M158.55,186.03l158.45,117.59V68.71l-158.45,117.33Z"/>
          </g>
          <g>
            <path class="cls-31" d="M158.14,372.04c26.46-11.26,52.87-22.82,79.3-34.35,26.43-11.52,52.89-23,79.45-34.1l-158.45-117.59-.31,186.03Z"/>
            <path class="cls-24" d="M0,303.33c26.32,11.54,52.71,22.9,79.1,34.29,26.39,11.39,52.76,22.79,79.04,34.42l.31-186.03L0,303.33Z"/>
            <path class="cls-13" d="M158.45,186.01L0,68.42c0,39.18,0,78.34,0,117.49,0,39.15,0,78.28,0,117.43l158.45-117.33Z"/>
          </g>
        </g>
        <path class="cls-27" d="M66.14,221.69c-5.82-.33-14.26-.9-14.34,7.11.08,8.01,8.51,7.43,14.34,7.1-.24,19.17-.09,57.49-.09,57.49,0,0-14.25-1.6-14.21,7.24.02,3.48,1.6,5.72,4.99,6.73,35.6,1.13,71.42.04,107.09.41,31.04,0,62.09,0,93.13,0,5.47,0,8.76-2.67,8.76-7.14.02-9.61-14.25-7.26-14.25-7.26,0,0-.06-38.24-.09-57.47,5.82.33,14.26.9,14.34-7.11-.08-8.01-8.51-7.43-14.34-7.1.06-23.78.14-47.56,0-71.35,5.82.33,14.26.9,14.34-7.11-.08-8.01-8.51-7.43-14.34-7.1.24-19.17.02-38.31.09-57.49,5.72.19,13.25.86,14.21-6.29.42-3.45-1.6-6.67-4.99-7.68-35.44-1.13-71.1-.04-106.61-.41-31.2,0-62.4,0-93.61,0-5.47,0-8.73,2.67-8.76,7.14-.22,7.37,8.11,7.61,14.25,7.26,0,19.27.06,38.24.09,57.47-5.82-.33-14.26-.9-14.34,7.11.08,8.01,8.51,7.43,14.34,7.1-.05,23.78-.14,47.56,0,71.35Z"/>
        <path class="cls-10" d="M66.1,150.4v-14.31c25.18.26,50.37-.02,75.56.15,5.3.17,7.47-7.41,10.95-10.69,3.56-4.61,8.86-4.61,12.41,0,2.89,2.93,5.58,9.62,9.52,10.58,25.66,0,51.34.18,76.98-.04v14.31c-22.62-.15-45.13-.09-67.76-.09,16.98,21.41,33.37,42.98,20.24,71.09,15.63.83,31.74-.01,47.53.26v14.31c-18.6-.12-37.21-.15-55.81-.04-1.13,0-2.51.49-3.34,1.23-10.19,9.1-22.16,13.36-35.7,12.83-11.24-.44-21.34-4.32-29.86-11.78-1.92-1.68-3.78-2.4-6.33-2.38-18.13.18-36.26-.11-54.39.15v-14.31h47.54c-12.83-29.69,2.58-48.68,20.13-71.22-22.56-.25-45.11-.18-67.67-.03ZM158.88,140.81c-9.79,12.41-18.98,25.24-28.51,37.85-3.54,4.76-5.9,10.09-6.82,15.99-3.23,69.77,99.94,40.87,63.24-16.61-9.28-12.47-18.52-24.81-27.91-37.23Z"/>
        <path class="cls-22" d="M180.1,200.56c1.57,14.61-24.1,30.29-28.28,14.76-.36-12.39,13.73-2.79,14.58-16.74,1.28-8.26,14.25-6.2,13.7,1.97Z"/>
      </g>
      <g>
        <g>
          <path class="cls-26" d="M353,286.82c-4.02-2.17-7.18-5.19-9.47-9.05-2.29-3.86-3.44-8.17-3.44-12.94s1.15-9.08,3.44-12.94c2.29-3.86,5.45-6.87,9.47-9.05,4.02-2.17,8.53-3.26,13.54-3.26s9.51,1.09,13.53,3.26c4.02,2.17,7.18,5.18,9.47,9.01,2.29,3.83,3.44,8.16,3.44,12.97s-1.15,9.14-3.44,12.97c-2.29,3.83-5.45,6.84-9.47,9.01-4.02,2.17-8.53,3.26-13.53,3.26s-9.51-1.09-13.54-3.26ZM375.37,279.88c2.62-1.47,4.67-3.53,6.17-6.17,1.5-2.64,2.24-5.6,2.24-8.87s-.75-6.23-2.24-8.87c-1.5-2.64-3.55-4.7-6.17-6.17-2.62-1.47-5.56-2.21-8.84-2.21s-6.22.74-8.84,2.21c-2.62,1.47-4.68,3.53-6.17,6.17-1.5,2.64-2.24,5.6-2.24,8.87s.75,6.23,2.24,8.87c1.5,2.64,3.55,4.7,6.17,6.17,2.62,1.47,5.56,2.21,8.84,2.21s6.22-.74,8.84-2.21Z"/>
          <path class="cls-3" d="M432.7,242.4c3.16,1.4,5.58,3.41,7.26,6.03s2.52,5.73,2.52,9.33-.84,6.65-2.52,9.29c-1.68,2.64-4.1,4.66-7.26,6.07-3.16,1.4-6.86,2.1-11.12,2.1h-11.08v14.17h-9.12v-49.09h20.2c4.25,0,7.96.7,11.12,2.1ZM430.21,264.98c2.06-1.68,3.09-4.09,3.09-7.22s-1.03-5.54-3.09-7.22c-2.06-1.68-5.07-2.52-9.05-2.52h-10.66v19.5h10.66c3.97,0,6.99-.84,9.05-2.53Z"/>
          <path class="cls-25" d="M449.49,240.29h8.98v34.85l26.37-34.85h8.49v49.09h-8.98v-34.78l-26.37,34.78h-8.49v-49.09Z"/>
          <path class="cls-15" d="M538.7,248.01h-24.33l.07,41.38h-8.98v-49.09h33.31l-.07,7.71Z"/>
          <path class="cls-32" d="M544.8,240.29h8.98v34.85l26.37-34.85h8.49v49.09h-8.98v-34.78l-26.37,34.78h-8.49v-49.09Z"/>
          <path class="cls-20" d="M644.31,240.29v49.09h-9.12v-21.04h-25.39v21.04h-9.12v-49.09h9.12v20.27h25.39v-20.27h9.12Z"/>
          <path class="cls-36" d="M688.91,278.02h-24.55l-4.84,11.36h-9.4l22.09-49.09h8.98l22.16,49.09h-9.54l-4.91-11.36ZM685.9,270.87l-9.26-21.46-9.19,21.46h18.44Z"/>
          <path class="cls-28" d="M751.47,240.29v49.09h-8.98v-41.38h-19.36l-.42,12.27c-.23,6.87-.8,12.45-1.68,16.73-.89,4.28-2.31,7.53-4.28,9.75-1.96,2.22-4.68,3.33-8.14,3.33-1.22,0-2.88-.23-4.98-.7l.63-7.92c.61.19,1.31.28,2.1.28,2.85,0,4.87-1.69,6.07-5.08,1.19-3.39,1.93-8.73,2.21-16.02l.7-20.34h36.12Z"/>
          <path class="cls-12" d="M799.82,260.87c3.16,2.64,4.73,6.56,4.73,11.75s-1.73,9.57-5.19,12.45c-3.46,2.88-8.32,4.31-14.59,4.31h-21.11v-49.09h8.98v16.62h13.6c5.89,0,10.41,1.32,13.57,3.96ZM792.56,279.91c1.92-1.64,2.88-4.02,2.88-7.15,0-5.94-3.69-8.91-11.08-8.91h-11.71v18.51h11.71c3.55,0,6.29-.82,8.21-2.46Z"/>
          <path class="cls-11" d="M855.82,240.29v49.09h-9.12v-21.04h-25.39v21.04h-9.12v-49.09h9.12v20.27h25.39v-20.27h9.12Z"/>
          <path class="cls-21" d="M904.1,260.87c3.15,2.64,4.73,6.56,4.73,11.75s-1.73,9.57-5.19,12.45c-3.46,2.88-8.32,4.31-14.59,4.31h-21.11v-49.09h8.98v16.62h13.6c5.89,0,10.42,1.32,13.57,3.96ZM896.84,279.91c1.92-1.64,2.88-4.02,2.88-7.15,0-5.94-3.69-8.91-11.08-8.91h-11.71v18.51h11.71c3.55,0,6.29-.82,8.21-2.46ZM915.92,240.29h8.98v49.09h-8.98v-49.09Z"/>
          <path class="cls-19" d="M973.84,281.74v7.64h-36.82v-49.09h35.84v7.64h-26.72v12.76h23.7v7.5h-23.7v13.53h27.7Z"/>
          <path class="cls-4" d="M1000.07,240.29h8.98v34.85l26.37-34.85h8.49v49.09h-8.98v-34.78l-26.37,34.78h-8.49v-49.09Z"/>
          <path class="cls-1" d="M1101.06,289.38l-.07-32.54-16.13,26.93h-4.07l-16.13-26.51v32.12h-8.63v-49.09h7.5l19.43,32.47,19.22-32.47h7.43l.14,49.09h-8.7Z"/>
          <path class="cls-30" d="M1165.29,240.29v49.09h-8.98v-41.38h-25.46v41.38h-8.98v-49.09h43.41Z"/>
          <path class="cls-33" d="M1186.61,286.82c-4.02-2.17-7.18-5.19-9.47-9.05-2.29-3.86-3.44-8.17-3.44-12.94s1.14-9.08,3.44-12.94c2.29-3.86,5.45-6.87,9.47-9.05,4.02-2.17,8.53-3.26,13.54-3.26s9.51,1.09,13.54,3.26c4.02,2.17,7.18,5.18,9.47,9.01,2.29,3.83,3.44,8.16,3.44,12.97s-1.15,9.14-3.44,12.97c-2.29,3.83-5.45,6.84-9.47,9.01-4.02,2.17-8.53,3.26-13.54,3.26s-9.51-1.09-13.54-3.26ZM1208.99,279.88c2.62-1.47,4.67-3.53,6.17-6.17,1.5-2.64,2.24-5.6,2.24-8.87s-.75-6.23-2.24-8.87c-1.5-2.64-3.55-4.7-6.17-6.17-2.62-1.47-5.56-2.21-8.84-2.21s-6.22.74-8.84,2.21c-2.62,1.47-4.67,3.53-6.17,6.17-1.5,2.64-2.24,5.6-2.24,8.87s.75,6.23,2.24,8.87c1.5,2.64,3.55,4.7,6.17,6.17,2.62,1.47,5.56,2.21,8.84,2.21s6.22-.74,8.84-2.21Z"/>
          <path class="cls-2" d="M1266.32,242.4c3.16,1.4,5.58,3.41,7.26,6.03,1.68,2.62,2.53,5.73,2.53,9.33s-.84,6.65-2.53,9.29c-1.68,2.64-4.1,4.66-7.26,6.07-3.16,1.4-6.86,2.1-11.12,2.1h-11.08v14.17h-9.12v-49.09h20.2c4.25,0,7.96.7,11.12,2.1ZM1263.83,264.98c2.06-1.68,3.09-4.09,3.09-7.22s-1.03-5.54-3.09-7.22c-2.06-1.68-5.07-2.52-9.05-2.52h-10.66v19.5h10.66c3.97,0,6.99-.84,9.05-2.53Z"/>
          <path class="cls-17" d="M1317.26,248.01h-16.27v41.38h-9.05v-41.38h-16.2v-7.71h41.52v7.71Z"/>
          <path class="cls-8" d="M1367.05,240.29v49.09h-9.12v-21.04h-25.39v21.04h-9.12v-49.09h9.12v20.27h25.39v-20.27h9.12Z"/>
          <path class="cls-7" d="M1415.34,260.87c3.16,2.64,4.73,6.56,4.73,11.75s-1.73,9.57-5.19,12.45c-3.46,2.88-8.32,4.31-14.59,4.31h-21.11v-49.09h8.98v16.62h13.61c5.89,0,10.41,1.32,13.57,3.96ZM1408.08,279.91c1.92-1.64,2.88-4.02,2.88-7.15,0-5.94-3.69-8.91-11.08-8.91h-11.71v18.51h11.71c3.55,0,6.29-.82,8.21-2.46ZM1427.15,240.29h8.98v49.09h-8.98v-49.09Z"/>
          <path class="cls-34" d="M1485.08,281.74v7.64h-36.82v-49.09h35.84v7.64h-26.72v12.76h23.7v7.5h-23.7v13.53h27.7Z"/>
          <path class="cls-18" d="M1556.33,289.38l-.07-32.54-16.13,26.93h-4.07l-16.13-26.51v32.12h-8.63v-49.09h7.5l19.43,32.47,19.22-32.47h7.43l.14,49.09h-8.7Z"/>
          <path class="cls-23" d="M1609.63,278.02h-24.54l-4.84,11.36h-9.4l22.09-49.09h8.98l22.16,49.09h-9.54l-4.91-11.36ZM1606.61,270.87l-9.26-21.46-9.19,21.46h18.44Z"/>
          <path class="cls-35" d="M1638.35,286.82c-4-2.17-7.13-5.18-9.4-9.01-2.27-3.83-3.4-8.16-3.4-12.97s1.15-9.14,3.44-12.97c2.29-3.83,5.44-6.84,9.43-9.01,4-2.17,8.47-3.26,13.43-3.26,4.02,0,7.69.7,11.01,2.1,3.32,1.4,6.12,3.44,8.42,6.1l-5.89,5.54c-3.55-3.83-7.92-5.75-13.11-5.75-3.37,0-6.38.74-9.05,2.21s-4.75,3.52-6.24,6.14c-1.5,2.62-2.24,5.59-2.24,8.91s.75,6.29,2.24,8.91c1.5,2.62,3.58,4.66,6.24,6.14s5.68,2.21,9.05,2.21c5.19,0,9.56-1.94,13.11-5.82l5.89,5.61c-2.29,2.67-5.11,4.7-8.45,6.1-3.34,1.4-7.03,2.1-11.05,2.1-4.96,0-9.43-1.09-13.43-3.26Z"/>
          <path class="cls-6" d="M1718.75,240.29v49.09h-8.98v-41.38h-19.36l-.42,12.27c-.23,6.87-.79,12.45-1.68,16.73-.89,4.28-2.31,7.53-4.28,9.75-1.96,2.22-4.68,3.33-8.13,3.33-1.22,0-2.88-.23-4.98-.7l.63-7.92c.61.19,1.31.28,2.1.28,2.85,0,4.87-1.69,6.07-5.08,1.19-3.39,1.93-8.73,2.21-16.02l.7-20.34h36.12Z"/>
          <path class="cls-5" d="M1763.42,278.02h-24.54l-4.84,11.36h-9.4l22.09-49.09h8.98l22.16,49.09h-9.54l-4.91-11.36ZM1760.41,270.87l-9.26-21.46-9.19,21.46h18.44Z"/>
        </g>
        <g>
          <path class="cls-29" d="M408.59,175.55l-17.71-25.57h-19.54v25.57h-21.25v-91.81h39.74c8.13,0,15.19,1.36,21.18,4.07,5.99,2.71,10.6,6.56,13.84,11.54,3.23,4.98,4.85,10.89,4.85,17.71s-1.64,12.7-4.92,17.64c-3.28,4.94-7.93,8.72-13.97,11.34l20.59,29.51h-22.82ZM403.21,105.19c-3.32-2.75-8.18-4.13-14.56-4.13h-17.31v32h17.31c6.38,0,11.23-1.4,14.56-4.2,3.32-2.8,4.98-6.73,4.98-11.8s-1.66-9.12-4.98-11.87Z"/>
          <path class="cls-29" d="M518.88,105v70.56h-19.41v-8.39c-2.71,3.06-5.95,5.4-9.71,7.02-3.76,1.62-7.83,2.43-12.2,2.43-9.27,0-16.61-2.67-22.03-8-5.42-5.33-8.13-13.25-8.13-23.74v-39.87h20.46v36.85c0,11.37,4.76,17.05,14.3,17.05,4.9,0,8.83-1.59,11.8-4.79,2.97-3.19,4.46-7.93,4.46-14.23v-34.89h20.46Z"/>
          <path class="cls-29" d="M547.21,174.44c-5.6-1.44-10.06-3.26-13.38-5.44l6.82-14.69c3.15,2.01,6.95,3.65,11.41,4.92,4.46,1.27,8.83,1.9,13.11,1.9,8.66,0,12.98-2.14,12.98-6.43,0-2.01-1.18-3.45-3.54-4.33-2.36-.87-5.99-1.62-10.89-2.23-5.77-.87-10.54-1.88-14.3-3.02-3.76-1.14-7.02-3.15-9.77-6.03-2.75-2.89-4.13-6.99-4.13-12.33,0-4.46,1.29-8.41,3.87-11.87,2.58-3.45,6.34-6.14,11.28-8.07,4.94-1.92,10.77-2.88,17.51-2.88,4.98,0,9.94.55,14.89,1.64,4.94,1.09,9.03,2.6,12.26,4.52l-6.82,14.56c-6.21-3.5-12.98-5.25-20.33-5.25-4.37,0-7.65.61-9.84,1.84-2.19,1.23-3.28,2.8-3.28,4.72,0,2.19,1.18,3.72,3.54,4.59,2.36.88,6.12,1.71,11.28,2.49,5.77.96,10.49,1.99,14.16,3.08,3.67,1.09,6.86,3.08,9.57,5.97,2.71,2.88,4.07,6.91,4.07,12.07,0,4.37-1.31,8.26-3.93,11.67-2.62,3.41-6.45,6.05-11.48,7.93-5.03,1.88-11,2.82-17.9,2.82-5.86,0-11.59-.72-17.18-2.16Z"/>
          <path class="cls-29" d="M658.56,172.14c-2.01,1.49-4.48,2.6-7.41,3.34-2.93.74-6.01,1.11-9.25,1.11-8.39,0-14.89-2.14-19.48-6.43-4.59-4.28-6.89-10.58-6.89-18.89v-28.98h-10.89v-15.74h10.89v-17.18h20.46v17.18h17.57v15.74h-17.57v28.72c0,2.97.76,5.27,2.3,6.89,1.53,1.62,3.69,2.43,6.49,2.43,3.23,0,5.99-.87,8.26-2.62l5.51,14.43Z"/>
          <path class="cls-29" d="M702.3,106.57c4.15-1.75,8.94-2.62,14.36-2.62v18.89c-2.27-.17-3.8-.26-4.59-.26-5.86,0-10.45,1.64-13.77,4.92-3.32,3.28-4.98,8.2-4.98,14.75v33.31h-20.46v-70.56h19.54v9.31c2.45-3.41,5.75-5.99,9.9-7.74Z"/>
          <path class="cls-29" d="M784.86,111.75c5.86,5.2,8.79,13.05,8.79,23.54v40.26h-19.15v-8.79c-3.85,6.56-11.02,9.84-21.51,9.84-5.42,0-10.12-.92-14.1-2.75-3.98-1.84-7.02-4.37-9.12-7.61-2.1-3.23-3.15-6.91-3.15-11.02,0-6.56,2.47-11.72,7.41-15.48,4.94-3.76,12.57-5.64,22.89-5.64h16.26c0-4.46-1.36-7.89-4.07-10.3-2.71-2.4-6.78-3.61-12.2-3.61-3.76,0-7.46.59-11.08,1.77-3.63,1.18-6.71,2.78-9.25,4.79l-7.34-14.3c3.85-2.71,8.46-4.81,13.84-6.29,5.38-1.49,10.91-2.23,16.59-2.23,10.93,0,19.32,2.6,25.18,7.8ZM767.41,160.41c2.71-1.62,4.63-4,5.77-7.15v-7.21h-14.03c-8.39,0-12.59,2.75-12.59,8.26,0,2.62,1.03,4.7,3.08,6.23,2.05,1.53,4.87,2.29,8.46,2.29s6.6-.81,9.31-2.43Z"/>
          <path class="cls-29" d="M878.96,111.82c5.38,5.25,8.07,13.03,8.07,23.34v40.39h-20.46v-37.25c0-5.59-1.23-9.77-3.67-12.52-2.45-2.75-5.99-4.13-10.62-4.13-5.16,0-9.27,1.6-12.33,4.79-3.06,3.19-4.59,7.93-4.59,14.23v34.89h-20.46v-70.56h19.54v8.26c2.71-2.97,6.08-5.27,10.1-6.89,4.02-1.62,8.44-2.43,13.25-2.43,8.74,0,15.8,2.62,21.18,7.87Z"/>
          <path class="cls-29" d="M914.82,174.44c-5.6-1.44-10.06-3.26-13.38-5.44l6.82-14.69c3.15,2.01,6.95,3.65,11.41,4.92,4.46,1.27,8.83,1.9,13.12,1.9,8.66,0,12.98-2.14,12.98-6.43,0-2.01-1.18-3.45-3.54-4.33-2.36-.87-5.99-1.62-10.89-2.23-5.77-.87-10.54-1.88-14.3-3.02-3.76-1.14-7.02-3.15-9.77-6.03-2.75-2.89-4.13-6.99-4.13-12.33,0-4.46,1.29-8.41,3.87-11.87,2.58-3.45,6.34-6.14,11.28-8.07,4.94-1.92,10.78-2.88,17.51-2.88,4.98,0,9.95.55,14.89,1.64,4.94,1.09,9.03,2.6,12.26,4.52l-6.82,14.56c-6.21-3.5-12.98-5.25-20.33-5.25-4.37,0-7.65.61-9.84,1.84-2.19,1.23-3.28,2.8-3.28,4.72,0,2.19,1.18,3.72,3.54,4.59,2.36.88,6.12,1.71,11.28,2.49,5.77.96,10.49,1.99,14.16,3.08,3.67,1.09,6.86,3.08,9.57,5.97,2.71,2.88,4.07,6.91,4.07,12.07,0,4.37-1.31,8.26-3.93,11.67-2.62,3.41-6.45,6.05-11.48,7.93-5.03,1.88-11,2.82-17.9,2.82-5.86,0-11.59-.72-17.18-2.16Z"/>
          <path class="cls-29" d="M978.04,130.44h37.12v16.39h-37.12v-16.39Z"/>
          <path class="cls-29" d="M1035.48,83.75h21.25v74.49h46.03v17.31h-67.28v-91.81Z"/>
          <path class="cls-29" d="M1129.05,171.95c-5.9-3.1-10.51-7.41-13.84-12.92-3.32-5.51-4.98-11.76-4.98-18.75s1.66-13.25,4.98-18.75c3.32-5.51,7.93-9.81,13.84-12.92,5.9-3.1,12.57-4.66,20-4.66s14.08,1.55,19.93,4.66c5.86,3.11,10.45,7.41,13.77,12.92,3.32,5.51,4.98,11.76,4.98,18.75s-1.66,13.25-4.98,18.75c-3.32,5.51-7.91,9.82-13.77,12.92-5.86,3.1-12.5,4.66-19.93,4.66s-14.1-1.55-20-4.66ZM1161.97,154.5c3.37-3.54,5.05-8.28,5.05-14.23s-1.68-10.69-5.05-14.23c-3.37-3.54-7.67-5.31-12.92-5.31s-9.57,1.77-12.98,5.31c-3.41,3.54-5.11,8.29-5.11,14.23s1.71,10.69,5.11,14.23c3.41,3.54,7.74,5.31,12.98,5.31s9.55-1.77,12.92-5.31Z"/>
          <path class="cls-29" d="M1276.93,105v58.76c0,12.94-3.37,22.56-10.1,28.85-6.73,6.29-16.57,9.44-29.51,9.44-6.82,0-13.29-.83-19.41-2.49-6.12-1.66-11.19-4.07-15.21-7.21l8.13-14.69c2.97,2.45,6.73,4.39,11.28,5.84,4.55,1.44,9.09,2.16,13.64,2.16,7.08,0,12.31-1.6,15.67-4.79,3.37-3.19,5.05-8.02,5.05-14.49v-3.02c-5.33,5.86-12.77,8.79-22.29,8.79-6.47,0-12.39-1.42-17.77-4.26-5.38-2.84-9.64-6.84-12.79-12-3.15-5.16-4.72-11.1-4.72-17.84s1.57-12.68,4.72-17.84c3.15-5.16,7.41-9.16,12.79-12,5.38-2.84,11.3-4.26,17.77-4.26,10.23,0,18.01,3.37,23.34,10.1v-9.05h19.41ZM1251.55,150.57c3.45-3.19,5.18-7.37,5.18-12.53s-1.73-9.33-5.18-12.52c-3.46-3.19-7.89-4.79-13.31-4.79s-9.88,1.6-13.38,4.79c-3.5,3.19-5.25,7.37-5.25,12.52s1.75,9.33,5.25,12.53c3.5,3.19,7.96,4.79,13.38,4.79s9.86-1.59,13.31-4.79Z"/>
          <path class="cls-29" d="M1299.75,91.88c-2.36-2.18-3.54-4.9-3.54-8.13s1.18-5.95,3.54-8.13c2.36-2.18,5.42-3.28,9.18-3.28s6.82,1.05,9.18,3.15c2.36,2.1,3.54,4.72,3.54,7.87,0,3.41-1.18,6.23-3.54,8.46-2.36,2.23-5.42,3.34-9.18,3.34s-6.82-1.09-9.18-3.28ZM1298.7,105h20.46v70.56h-20.46v-70.56Z"/>
          <path class="cls-29" d="M1347.49,174.44c-5.6-1.44-10.06-3.26-13.38-5.44l6.82-14.69c3.15,2.01,6.95,3.65,11.41,4.92,4.46,1.27,8.83,1.9,13.12,1.9,8.66,0,12.98-2.14,12.98-6.43,0-2.01-1.18-3.45-3.54-4.33-2.36-.87-5.99-1.62-10.89-2.23-5.77-.87-10.54-1.88-14.3-3.02-3.76-1.14-7.02-3.15-9.77-6.03-2.75-2.89-4.13-6.99-4.13-12.33,0-4.46,1.29-8.41,3.87-11.87,2.58-3.45,6.34-6.14,11.28-8.07,4.94-1.92,10.78-2.88,17.51-2.88,4.98,0,9.95.55,14.89,1.64,4.94,1.09,9.03,2.6,12.26,4.52l-6.82,14.56c-6.21-3.5-12.98-5.25-20.33-5.25-4.37,0-7.65.61-9.84,1.84-2.19,1.23-3.28,2.8-3.28,4.72,0,2.19,1.18,3.72,3.54,4.59,2.36.88,6.12,1.71,11.28,2.49,5.77.96,10.49,1.99,14.16,3.08,3.67,1.09,6.86,3.08,9.57,5.97,2.71,2.88,4.07,6.91,4.07,12.07,0,4.37-1.31,8.26-3.93,11.67-2.62,3.41-6.45,6.05-11.48,7.93-5.03,1.88-11,2.82-17.9,2.82-5.86,0-11.59-.72-17.18-2.16Z"/>
          <path class="cls-29" d="M1458.83,172.14c-2.01,1.49-4.48,2.6-7.41,3.34-2.93.74-6.01,1.11-9.25,1.11-8.39,0-14.89-2.14-19.48-6.43-4.59-4.28-6.89-10.58-6.89-18.89v-28.98h-10.89v-15.74h10.89v-17.18h20.46v17.18h17.57v15.74h-17.57v28.72c0,2.97.76,5.27,2.29,6.89,1.53,1.62,3.69,2.43,6.49,2.43,3.23,0,5.99-.87,8.26-2.62l5.51,14.43Z"/>
          <path class="cls-29" d="M1474.18,91.88c-2.36-2.18-3.54-4.9-3.54-8.13s1.18-5.95,3.54-8.13c2.36-2.18,5.42-3.28,9.18-3.28s6.82,1.05,9.18,3.15c2.36,2.1,3.54,4.72,3.54,7.87,0,3.41-1.18,6.23-3.54,8.46-2.36,2.23-5.42,3.34-9.18,3.34s-6.82-1.09-9.18-3.28ZM1473.13,105h20.46v70.56h-20.46v-70.56Z"/>
          <path class="cls-29" d="M1529.19,171.95c-5.99-3.1-10.67-7.41-14.03-12.92-3.37-5.51-5.05-11.76-5.05-18.75s1.68-13.25,5.05-18.75c3.37-5.51,8.04-9.81,14.03-12.92,5.99-3.1,12.74-4.66,20.26-4.66s13.92,1.55,19.48,4.66c5.55,3.11,9.59,7.54,12.13,13.31l-15.87,8.52c-3.67-6.47-8.96-9.71-15.87-9.71-5.33,0-9.75,1.75-13.25,5.25-3.5,3.5-5.25,8.26-5.25,14.3s1.75,10.8,5.25,14.29c3.5,3.5,7.91,5.25,13.25,5.25,6.99,0,12.28-3.23,15.87-9.71l15.87,8.66c-2.54,5.6-6.58,9.97-12.13,13.11-5.55,3.15-12.04,4.72-19.48,4.72s-14.28-1.55-20.26-4.66Z"/>
          <path class="cls-29" d="M1596.93,172.93c-2.45-2.45-3.67-5.51-3.67-9.18s1.22-6.8,3.67-9.12c2.45-2.32,5.46-3.48,9.05-3.48s6.6,1.16,9.05,3.48c2.45,2.32,3.67,5.36,3.67,9.12s-1.23,6.73-3.67,9.18c-2.45,2.45-5.47,3.67-9.05,3.67s-6.6-1.22-9.05-3.67Z"/>
          <path class="cls-29" d="M1664.8,106.57c4.15-1.75,8.94-2.62,14.36-2.62v18.89c-2.27-.17-3.8-.26-4.59-.26-5.86,0-10.45,1.64-13.77,4.92-3.32,3.28-4.98,8.2-4.98,14.75v33.31h-20.46v-70.56h19.54v9.31c2.45-3.41,5.75-5.99,9.9-7.74Z"/>
          <path class="cls-29" d="M1765.72,105v70.56h-19.41v-8.39c-2.71,3.06-5.95,5.4-9.71,7.02-3.76,1.62-7.83,2.43-12.2,2.43-9.27,0-16.61-2.67-22.03-8-5.42-5.33-8.13-13.25-8.13-23.74v-39.87h20.46v36.85c0,11.37,4.76,17.05,14.3,17.05,4.9,0,8.83-1.59,11.8-4.79,2.97-3.19,4.46-7.93,4.46-14.23v-34.89h20.46Z"/>
        </g>
      </g>
    </g>
  </g>
</svg>