<svg id="Слой_1" data-name="Слой 1" xmlns="http://www.w3.org/2000/svg" viewBox="0 0 1000 328.92"><defs><style>.cls-1{fill:#800211;}</style></defs><path class="cls-1" d="M841.56,163.61c-40.69-22.4-91.43-16.22-126.07,15.36-2.76,2.52-5.55,5-8.14,7.33-1.9-28-1.85-55.59-6.11-82.47-4.43-27.91-20.68-49.92-45.74-68.29V166c-28.81-15.85-57.86-20.63-88.3-11.65-30.64,9-52.56,28.89-67.72,57.6-1.66-2.54-2.48-3.68-3.17-4.88-43.83-75.6-143.69-76.66-189.55-2-16.66,27.12-33.1,54.38-49.95,81.37a57.13,57.13,0,1,1-66.9-83.92c23.94-8,49.81.41,65,21.14,1.75,2.39,3.54,4.76,5.81,7.8,7.75-12.62,14.31-24.57,22.14-35.63,5.47-7.71,4.43-12.41-2.43-18.59-58.89-53.08-154.43-26-176.11,50.09-1.34,4.72-2.86,9.4-4.3,14.1v30a62.82,62.82,0,0,1,2.41,6.86c9.77,43.57,43.39,75.92,86.81,83.43,43.69,7.57,86.23-11.29,110.25-48.86,1.43-2.23,2.92-4.41,4.92-7.42,22.75,37.86,54.76,58.85,98.55,58.08,44.05-.78,75.31-23.38,96.46-61.57,38.87,76.77,147.89,85.51,194.11,6.89,49.64,81.49,155.2,63.11,185.35,5.39H868c-26.21,0-52.43.18-78.64-.07-21.76-.21-42.21-12.79-47.37-29.29h11.88c43.1,0,86.19-.16,129.28.15,7.74.05,11.28-1.74,12.68-10.11A107.2,107.2,0,0,0,841.56,163.61ZM400.61,314c-31.07-.34-56.73-26-56.89-56.82C343.55,225.68,369.34,200,401.1,200a57,57,0,1,1-.49,114Zm197.14,0a57.57,57.57,0,0,1-57.15-56.48c-.45-31.47,25.14-57.29,57-57.47s57.65,25.21,57.73,56.75C655.37,288.05,629.21,314.06,597.75,314ZM739,233.52c6.26-18.73,26.56-32.49,48.29-33.21,23.65-.8,45,12.17,53.37,33.21Z" transform="translate(-100 -35.54)"/><path class="cls-1" d="M1068.16,252.44c2.79-1.55,4.25-2,5.3-3,26.58-23.76,24.4-60.16-4.76-80.43-32.06-22.28-95.23-22.26-127.05.2-15,10.58-23.12,24.69-23,43.52.12,17.29,9.06,29.46,22,40.2-13,8.64-23.88,18.24-28.08,33.26-7.48,26.78,5.77,53.12,34.06,66.37s58.33,14.1,88.5,8.94c30.8-5.27,55.47-19.07,64.82-51.49v-19.3C1095,274.44,1085.08,261.92,1068.16,252.44ZM1004.66,193c16.26-.28,26.66,8.05,26.65,21.35,0,12.92-9.91,21.09-25.69,21.22s-26-8-26.27-20.76S989.18,193.3,1004.66,193Zm20.8,126.13c-12.8,6.8-26.35,6.59-39.37.56-8.77-4.07-13.55-11.39-13.4-21.41s4.89-17.23,13.91-21c5.81-2.45,12.25-3.41,19.27-5.27,6.57,2,13.9,3,20,6.27C1042.56,287.39,1042.29,310.21,1025.46,319.16Z" transform="translate(-100 -35.54)"/></svg>