<svg width="150" height="150" viewBox="0 0 150 150" fill="none" xmlns="http://www.w3.org/2000/svg">
<g clip-path="url(#clip0_10413_22213)">
<mask id="mask0_10413_22213" style="mask-type:luminance" maskUnits="userSpaceOnUse" x="0" y="0" width="150" height="150">
<path d="M150 0H0V150H150V0Z" fill="white"/>
</mask>
<g mask="url(#mask0_10413_22213)">
<path d="M140 0H10C4.47715 0 0 4.47715 0 10V140C0 145.523 4.47715 150 10 150H140C145.523 150 150 145.523 150 140V10C150 4.47715 145.523 0 140 0Z" fill="white"/>
<mask id="mask1_10413_22213" style="mask-type:luminance" maskUnits="userSpaceOnUse" x="13" y="13" width="125" height="125">
<path d="M138 13H13V138H138V13Z" fill="white"/>
</mask>
<g mask="url(#mask1_10413_22213)">
<path d="M138 13H13V138H138V13Z" fill="white"/>
<path d="M15.551 13H13V15.551H15.551V13Z" fill="black"/>
<path d="M18.1018 13H15.5508V15.551H18.1018V13Z" fill="black"/>
<path d="M20.6535 13H18.1025V15.551H20.6535V13Z" fill="black"/>
<path d="M23.2034 13H20.6523V15.551H23.2034V13Z" fill="black"/>
<path d="M25.7551 13H23.2041V15.551H25.7551V13Z" fill="black"/>
<path d="M28.3059 13H25.7549V15.551H28.3059V13Z" fill="black"/>
<path d="M30.8576 13H28.3066V15.551H30.8576V13Z" fill="black"/>
<path d="M41.0617 13H38.5107V15.551H41.0617V13Z" fill="black"/>
<path d="M53.8158 13H51.2646V15.551H53.8158V13Z" fill="black"/>
<path d="M71.674 13H69.123V15.551H71.674V13Z" fill="black"/>
<path d="M74.224 13H71.6729V15.551H74.224V13Z" fill="black"/>
<path d="M76.7756 13H74.2246V15.551H76.7756V13Z" fill="black"/>
<path d="M81.8782 13H79.3271V15.551H81.8782V13Z" fill="black"/>
<path d="M86.9797 13H84.4287V15.551H86.9797V13Z" fill="black"/>
<path d="M94.6322 13H92.0811V15.551H94.6322V13Z" fill="black"/>
<path d="M97.1838 13H94.6328V15.551H97.1838V13Z" fill="black"/>
<path d="M104.837 13H102.286V15.551H104.837V13Z" fill="black"/>
<path d="M109.939 13H107.388V15.551H109.939V13Z" fill="black"/>
<path d="M117.592 13H115.041V15.551H117.592V13Z" fill="black"/>
<path d="M122.694 13H120.143V15.551H122.694V13Z" fill="black"/>
<path d="M125.245 13H122.694V15.551H125.245V13Z" fill="black"/>
<path d="M127.796 13H125.245V15.551H127.796V13Z" fill="black"/>
<path d="M130.347 13H127.796V15.551H130.347V13Z" fill="black"/>
<path d="M132.898 13H130.347V15.551H132.898V13Z" fill="black"/>
<path d="M135.449 13H132.898V15.551H135.449V13Z" fill="black"/>
<path d="M138 13H135.449V15.551H138V13Z" fill="black"/>
<path d="M15.551 15.5508H13V18.1018H15.551V15.5508Z" fill="black"/>
<path d="M30.8576 15.5508H28.3066V18.1018H30.8576V15.5508Z" fill="black"/>
<path d="M38.51 15.5508H35.959V18.1018H38.51V15.5508Z" fill="black"/>
<path d="M41.0617 15.5508H38.5107V18.1018H41.0617V15.5508Z" fill="black"/>
<path d="M43.6116 15.5508H41.0605V18.1018H43.6116V15.5508Z" fill="black"/>
<path d="M48.7141 15.5508H46.1631V18.1018H48.7141V15.5508Z" fill="black"/>
<path d="M51.2658 15.5508H48.7148V18.1018H51.2658V15.5508Z" fill="black"/>
<path d="M56.3674 15.5508H53.8164V18.1018H56.3674V15.5508Z" fill="black"/>
<path d="M61.4699 15.5508H58.9189V18.1018H61.4699V15.5508Z" fill="black"/>
<path d="M64.0199 15.5508H61.4688V18.1018H64.0199V15.5508Z" fill="black"/>
<path d="M66.5715 15.5508H64.0205V18.1018H66.5715V15.5508Z" fill="black"/>
<path d="M69.1223 15.5508H66.5713V18.1018H69.1223V15.5508Z" fill="black"/>
<path d="M74.224 15.5508H71.6729V18.1018H74.224V15.5508Z" fill="black"/>
<path d="M79.3264 15.5508H76.7754V18.1018H79.3264V15.5508Z" fill="black"/>
<path d="M81.8782 15.5508H79.3271V18.1018H81.8782V15.5508Z" fill="black"/>
<path d="M86.9797 15.5508H84.4287V18.1018H86.9797V15.5508Z" fill="black"/>
<path d="M94.6322 15.5508H92.0811V18.1018H94.6322V15.5508Z" fill="black"/>
<path d="M97.1838 15.5508H94.6328V18.1018H97.1838V15.5508Z" fill="black"/>
<path d="M112.49 15.5508H109.939V18.1018H112.49V15.5508Z" fill="black"/>
<path d="M115.041 15.5508H112.49V18.1018H115.041V15.5508Z" fill="black"/>
<path d="M117.592 15.5508H115.041V18.1018H117.592V15.5508Z" fill="black"/>
<path d="M122.694 15.5508H120.143V18.1018H122.694V15.5508Z" fill="black"/>
<path d="M138 15.5508H135.449V18.1018H138V15.5508Z" fill="black"/>
<path d="M15.551 18.1021H13V20.653H15.551V18.1021Z" fill="black"/>
<path d="M20.6535 18.1021H18.1025V20.653H20.6535V18.1021Z" fill="black"/>
<path d="M23.2034 18.1021H20.6523V20.653H23.2034V18.1021Z" fill="black"/>
<path d="M25.7551 18.1021H23.2041V20.653H25.7551V18.1021Z" fill="black"/>
<path d="M30.8576 18.1021H28.3066V20.653H30.8576V18.1021Z" fill="black"/>
<path d="M43.6116 18.1021H41.0605V20.653H43.6116V18.1021Z" fill="black"/>
<path d="M46.1633 18.1021H43.6123V20.653H46.1633V18.1021Z" fill="black"/>
<path d="M53.8158 18.1021H51.2646V20.653H53.8158V18.1021Z" fill="black"/>
<path d="M64.0199 18.1021H61.4688V20.653H64.0199V18.1021Z" fill="black"/>
<path d="M69.1223 18.1021H66.5713V20.653H69.1223V18.1021Z" fill="black"/>
<path d="M74.224 18.1021H71.6729V20.653H74.224V18.1021Z" fill="black"/>
<path d="M76.7756 18.1021H74.2246V20.653H76.7756V18.1021Z" fill="black"/>
<path d="M81.8782 18.1021H79.3271V20.653H81.8782V18.1021Z" fill="black"/>
<path d="M84.428 18.1021H81.877V20.653H84.428V18.1021Z" fill="black"/>
<path d="M89.5305 18.1021H86.9795V20.653H89.5305V18.1021Z" fill="black"/>
<path d="M92.0823 18.1021H89.5312V20.653H92.0823V18.1021Z" fill="black"/>
<path d="M99.7346 18.1021H97.1836V20.653H99.7346V18.1021Z" fill="black"/>
<path d="M102.286 18.1021H99.7354V20.653H102.286V18.1021Z" fill="black"/>
<path d="M107.388 18.1021H104.837V20.653H107.388V18.1021Z" fill="black"/>
<path d="M109.939 18.1021H107.388V20.653H109.939V18.1021Z" fill="black"/>
<path d="M115.041 18.1021H112.49V20.653H115.041V18.1021Z" fill="black"/>
<path d="M117.592 18.1021H115.041V20.653H117.592V18.1021Z" fill="black"/>
<path d="M122.694 18.1021H120.143V20.653H122.694V18.1021Z" fill="black"/>
<path d="M127.796 18.1021H125.245V20.653H127.796V18.1021Z" fill="black"/>
<path d="M130.347 18.1021H127.796V20.653H130.347V18.1021Z" fill="black"/>
<path d="M132.898 18.1021H130.347V20.653H132.898V18.1021Z" fill="black"/>
<path d="M138 18.1021H135.449V20.653H138V18.1021Z" fill="black"/>
<path d="M15.551 20.6528H13V23.2039H15.551V20.6528Z" fill="black"/>
<path d="M20.6535 20.6528H18.1025V23.2039H20.6535V20.6528Z" fill="black"/>
<path d="M23.2034 20.6528H20.6523V23.2039H23.2034V20.6528Z" fill="black"/>
<path d="M25.7551 20.6528H23.2041V23.2039H25.7551V20.6528Z" fill="black"/>
<path d="M30.8576 20.6528H28.3066V23.2039H30.8576V20.6528Z" fill="black"/>
<path d="M41.0617 20.6528H38.5107V23.2039H41.0617V20.6528Z" fill="black"/>
<path d="M43.6116 20.6528H41.0605V23.2039H43.6116V20.6528Z" fill="black"/>
<path d="M46.1633 20.6528H43.6123V23.2039H46.1633V20.6528Z" fill="black"/>
<path d="M48.7141 20.6528H46.1631V23.2039H48.7141V20.6528Z" fill="black"/>
<path d="M51.2658 20.6528H48.7148V23.2039H51.2658V20.6528Z" fill="black"/>
<path d="M56.3674 20.6528H53.8164V23.2039H56.3674V20.6528Z" fill="black"/>
<path d="M61.4699 20.6528H58.9189V23.2039H61.4699V20.6528Z" fill="black"/>
<path d="M71.674 20.6528H69.123V23.2039H71.674V20.6528Z" fill="black"/>
<path d="M74.224 20.6528H71.6729V23.2039H74.224V20.6528Z" fill="black"/>
<path d="M81.8782 20.6528H79.3271V23.2039H81.8782V20.6528Z" fill="black"/>
<path d="M89.5305 20.6528H86.9795V23.2039H89.5305V20.6528Z" fill="black"/>
<path d="M94.6322 20.6528H92.0811V23.2039H94.6322V20.6528Z" fill="black"/>
<path d="M99.7346 20.6528H97.1836V23.2039H99.7346V20.6528Z" fill="black"/>
<path d="M102.286 20.6528H99.7354V23.2039H102.286V20.6528Z" fill="black"/>
<path d="M107.388 20.6528H104.837V23.2039H107.388V20.6528Z" fill="black"/>
<path d="M109.939 20.6528H107.388V23.2039H109.939V20.6528Z" fill="black"/>
<path d="M115.041 20.6528H112.49V23.2039H115.041V20.6528Z" fill="black"/>
<path d="M122.694 20.6528H120.143V23.2039H122.694V20.6528Z" fill="black"/>
<path d="M127.796 20.6528H125.245V23.2039H127.796V20.6528Z" fill="black"/>
<path d="M130.347 20.6528H127.796V23.2039H130.347V20.6528Z" fill="black"/>
<path d="M132.898 20.6528H130.347V23.2039H132.898V20.6528Z" fill="black"/>
<path d="M138 20.6528H135.449V23.2039H138V20.6528Z" fill="black"/>
<path d="M15.551 23.2041H13V25.7551H15.551V23.2041Z" fill="black"/>
<path d="M20.6535 23.2041H18.1025V25.7551H20.6535V23.2041Z" fill="black"/>
<path d="M23.2034 23.2041H20.6523V25.7551H23.2034V23.2041Z" fill="black"/>
<path d="M25.7551 23.2041H23.2041V25.7551H25.7551V23.2041Z" fill="black"/>
<path d="M30.8576 23.2041H28.3066V25.7551H30.8576V23.2041Z" fill="black"/>
<path d="M35.9592 23.2041H33.4082V25.7551H35.9592V23.2041Z" fill="black"/>
<path d="M51.2658 23.2041H48.7148V25.7551H51.2658V23.2041Z" fill="black"/>
<path d="M61.4699 23.2041H58.9189V25.7551H61.4699V23.2041Z" fill="black"/>
<path d="M64.0199 23.2041H61.4688V25.7551H64.0199V23.2041Z" fill="black"/>
<path d="M66.5715 23.2041H64.0205V25.7551H66.5715V23.2041Z" fill="black"/>
<path d="M69.1223 23.2041H66.5713V25.7551H69.1223V23.2041Z" fill="black"/>
<path d="M71.674 23.2041H69.123V25.7551H71.674V23.2041Z" fill="black"/>
<path d="M74.224 23.2041H71.6729V25.7551H74.224V23.2041Z" fill="black"/>
<path d="M76.7756 23.2041H74.2246V25.7551H76.7756V23.2041Z" fill="black"/>
<path d="M79.3264 23.2041H76.7754V25.7551H79.3264V23.2041Z" fill="black"/>
<path d="M81.8782 23.2041H79.3271V25.7551H81.8782V23.2041Z" fill="black"/>
<path d="M86.9797 23.2041H84.4287V25.7551H86.9797V23.2041Z" fill="black"/>
<path d="M92.0823 23.2041H89.5312V25.7551H92.0823V23.2041Z" fill="black"/>
<path d="M94.6322 23.2041H92.0811V25.7551H94.6322V23.2041Z" fill="black"/>
<path d="M99.7346 23.2041H97.1836V25.7551H99.7346V23.2041Z" fill="black"/>
<path d="M102.286 23.2041H99.7354V25.7551H102.286V23.2041Z" fill="black"/>
<path d="M107.388 23.2041H104.837V25.7551H107.388V23.2041Z" fill="black"/>
<path d="M122.694 23.2041H120.143V25.7551H122.694V23.2041Z" fill="black"/>
<path d="M127.796 23.2041H125.245V25.7551H127.796V23.2041Z" fill="black"/>
<path d="M130.347 23.2041H127.796V25.7551H130.347V23.2041Z" fill="black"/>
<path d="M132.898 23.2041H130.347V25.7551H132.898V23.2041Z" fill="black"/>
<path d="M138 23.2041H135.449V25.7551H138V23.2041Z" fill="black"/>
<path d="M15.551 25.7549H13V28.3059H15.551V25.7549Z" fill="black"/>
<path d="M30.8576 25.7549H28.3066V28.3059H30.8576V25.7549Z" fill="black"/>
<path d="M41.0617 25.7549H38.5107V28.3059H41.0617V25.7549Z" fill="black"/>
<path d="M48.7141 25.7549H46.1631V28.3059H48.7141V25.7549Z" fill="black"/>
<path d="M51.2658 25.7549H48.7148V28.3059H51.2658V25.7549Z" fill="black"/>
<path d="M56.3674 25.7549H53.8164V28.3059H56.3674V25.7549Z" fill="black"/>
<path d="M58.9182 25.7549H56.3672V28.3059H58.9182V25.7549Z" fill="black"/>
<path d="M61.4699 25.7549H58.9189V28.3059H61.4699V25.7549Z" fill="black"/>
<path d="M69.1223 25.7549H66.5713V28.3059H69.1223V25.7549Z" fill="black"/>
<path d="M71.674 25.7549H69.123V28.3059H71.674V25.7549Z" fill="black"/>
<path d="M81.8782 25.7549H79.3271V28.3059H81.8782V25.7549Z" fill="black"/>
<path d="M86.9797 25.7549H84.4287V28.3059H86.9797V25.7549Z" fill="black"/>
<path d="M92.0823 25.7549H89.5312V28.3059H92.0823V25.7549Z" fill="black"/>
<path d="M99.7346 25.7549H97.1836V28.3059H99.7346V25.7549Z" fill="black"/>
<path d="M104.837 25.7549H102.286V28.3059H104.837V25.7549Z" fill="black"/>
<path d="M112.49 25.7549H109.939V28.3059H112.49V25.7549Z" fill="black"/>
<path d="M122.694 25.7549H120.143V28.3059H122.694V25.7549Z" fill="black"/>
<path d="M138 25.7549H135.449V28.3059H138V25.7549Z" fill="black"/>
<path d="M15.551 28.3062H13V30.8572H15.551V28.3062Z" fill="black"/>
<path d="M18.1018 28.3062H15.5508V30.8572H18.1018V28.3062Z" fill="black"/>
<path d="M20.6535 28.3062H18.1025V30.8572H20.6535V28.3062Z" fill="black"/>
<path d="M23.2034 28.3062H20.6523V30.8572H23.2034V28.3062Z" fill="black"/>
<path d="M25.7551 28.3062H23.2041V30.8572H25.7551V28.3062Z" fill="black"/>
<path d="M28.3059 28.3062H25.7549V30.8572H28.3059V28.3062Z" fill="black"/>
<path d="M30.8576 28.3062H28.3066V30.8572H30.8576V28.3062Z" fill="black"/>
<path d="M35.9592 28.3062H33.4082V30.8572H35.9592V28.3062Z" fill="black"/>
<path d="M41.0617 28.3062H38.5107V30.8572H41.0617V28.3062Z" fill="black"/>
<path d="M46.1633 28.3062H43.6123V30.8572H46.1633V28.3062Z" fill="black"/>
<path d="M51.2658 28.3062H48.7148V30.8572H51.2658V28.3062Z" fill="black"/>
<path d="M56.3674 28.3062H53.8164V30.8572H56.3674V28.3062Z" fill="black"/>
<path d="M61.4699 28.3062H58.9189V30.8572H61.4699V28.3062Z" fill="black"/>
<path d="M66.5715 28.3062H64.0205V30.8572H66.5715V28.3062Z" fill="black"/>
<path d="M71.674 28.3062H69.123V30.8572H71.674V28.3062Z" fill="black"/>
<path d="M76.7756 28.3062H74.2246V30.8572H76.7756V28.3062Z" fill="black"/>
<path d="M81.8782 28.3062H79.3271V30.8572H81.8782V28.3062Z" fill="black"/>
<path d="M86.9797 28.3062H84.4287V30.8572H86.9797V28.3062Z" fill="black"/>
<path d="M92.0823 28.3062H89.5312V30.8572H92.0823V28.3062Z" fill="black"/>
<path d="M97.1838 28.3062H94.6328V30.8572H97.1838V28.3062Z" fill="black"/>
<path d="M102.286 28.3062H99.7354V30.8572H102.286V28.3062Z" fill="black"/>
<path d="M107.388 28.3062H104.837V30.8572H107.388V28.3062Z" fill="black"/>
<path d="M112.49 28.3062H109.939V30.8572H112.49V28.3062Z" fill="black"/>
<path d="M117.592 28.3062H115.041V30.8572H117.592V28.3062Z" fill="black"/>
<path d="M122.694 28.3062H120.143V30.8572H122.694V28.3062Z" fill="black"/>
<path d="M125.245 28.3062H122.694V30.8572H125.245V28.3062Z" fill="black"/>
<path d="M127.796 28.3062H125.245V30.8572H127.796V28.3062Z" fill="black"/>
<path d="M130.347 28.3062H127.796V30.8572H130.347V28.3062Z" fill="black"/>
<path d="M132.898 28.3062H130.347V30.8572H132.898V28.3062Z" fill="black"/>
<path d="M135.449 28.3062H132.898V30.8572H135.449V28.3062Z" fill="black"/>
<path d="M138 28.3062H135.449V30.8572H138V28.3062Z" fill="black"/>
<path d="M35.9592 30.8569H33.4082V33.408H35.9592V30.8569Z" fill="black"/>
<path d="M38.51 30.8569H35.959V33.408H38.51V30.8569Z" fill="black"/>
<path d="M41.0617 30.8569H38.5107V33.408H41.0617V30.8569Z" fill="black"/>
<path d="M43.6116 30.8569H41.0605V33.408H43.6116V30.8569Z" fill="black"/>
<path d="M46.1633 30.8569H43.6123V33.408H46.1633V30.8569Z" fill="black"/>
<path d="M48.7141 30.8569H46.1631V33.408H48.7141V30.8569Z" fill="black"/>
<path d="M51.2658 30.8569H48.7148V33.408H51.2658V30.8569Z" fill="black"/>
<path d="M58.9182 30.8569H56.3672V33.408H58.9182V30.8569Z" fill="black"/>
<path d="M64.0199 30.8569H61.4688V33.408H64.0199V30.8569Z" fill="black"/>
<path d="M71.674 30.8569H69.123V33.408H71.674V30.8569Z" fill="black"/>
<path d="M81.8782 30.8569H79.3271V33.408H81.8782V30.8569Z" fill="black"/>
<path d="M86.9797 30.8569H84.4287V33.408H86.9797V30.8569Z" fill="black"/>
<path d="M92.0823 30.8569H89.5312V33.408H92.0823V30.8569Z" fill="black"/>
<path d="M97.1838 30.8569H94.6328V33.408H97.1838V30.8569Z" fill="black"/>
<path d="M112.49 30.8569H109.939V33.408H112.49V30.8569Z" fill="black"/>
<path d="M115.041 30.8569H112.49V33.408H115.041V30.8569Z" fill="black"/>
<path d="M20.6535 33.4082H18.1025V35.9592H20.6535V33.4082Z" fill="black"/>
<path d="M23.2034 33.4082H20.6523V35.9592H23.2034V33.4082Z" fill="black"/>
<path d="M30.8576 33.4082H28.3066V35.9592H30.8576V33.4082Z" fill="black"/>
<path d="M33.4075 33.4082H30.8564V35.9592H33.4075V33.4082Z" fill="black"/>
<path d="M35.9592 33.4082H33.4082V35.9592H35.9592V33.4082Z" fill="black"/>
<path d="M41.0617 33.4082H38.5107V35.9592H41.0617V33.4082Z" fill="black"/>
<path d="M46.1633 33.4082H43.6123V35.9592H46.1633V33.4082Z" fill="black"/>
<path d="M56.3674 33.4082H53.8164V35.9592H56.3674V33.4082Z" fill="black"/>
<path d="M71.674 33.4082H69.123V35.9592H71.674V33.4082Z" fill="black"/>
<path d="M74.224 33.4082H71.6729V35.9592H74.224V33.4082Z" fill="black"/>
<path d="M76.7756 33.4082H74.2246V35.9592H76.7756V33.4082Z" fill="black"/>
<path d="M79.3264 33.4082H76.7754V35.9592H79.3264V33.4082Z" fill="black"/>
<path d="M81.8782 33.4082H79.3271V35.9592H81.8782V33.4082Z" fill="black"/>
<path d="M84.428 33.4082H81.877V35.9592H84.428V33.4082Z" fill="black"/>
<path d="M86.9797 33.4082H84.4287V35.9592H86.9797V33.4082Z" fill="black"/>
<path d="M89.5305 33.4082H86.9795V35.9592H89.5305V33.4082Z" fill="black"/>
<path d="M92.0823 33.4082H89.5312V35.9592H92.0823V33.4082Z" fill="black"/>
<path d="M94.6322 33.4082H92.0811V35.9592H94.6322V33.4082Z" fill="black"/>
<path d="M99.7346 33.4082H97.1836V35.9592H99.7346V33.4082Z" fill="black"/>
<path d="M112.49 33.4082H109.939V35.9592H112.49V33.4082Z" fill="black"/>
<path d="M117.592 33.4082H115.041V35.9592H117.592V33.4082Z" fill="black"/>
<path d="M120.143 33.4082H117.592V35.9592H120.143V33.4082Z" fill="black"/>
<path d="M122.694 33.4082H120.143V35.9592H122.694V33.4082Z" fill="black"/>
<path d="M127.796 33.4082H125.245V35.9592H127.796V33.4082Z" fill="black"/>
<path d="M15.551 35.959H13V38.51H15.551V35.959Z" fill="black"/>
<path d="M18.1018 35.959H15.5508V38.51H18.1018V35.959Z" fill="black"/>
<path d="M25.7551 35.959H23.2041V38.51H25.7551V35.959Z" fill="black"/>
<path d="M28.3059 35.959H25.7549V38.51H28.3059V35.959Z" fill="black"/>
<path d="M33.4075 35.959H30.8564V38.51H33.4075V35.959Z" fill="black"/>
<path d="M38.51 35.959H35.959V38.51H38.51V35.959Z" fill="black"/>
<path d="M43.6116 35.959H41.0605V38.51H43.6116V35.959Z" fill="black"/>
<path d="M46.1633 35.959H43.6123V38.51H46.1633V35.959Z" fill="black"/>
<path d="M51.2658 35.959H48.7148V38.51H51.2658V35.959Z" fill="black"/>
<path d="M53.8158 35.959H51.2646V38.51H53.8158V35.959Z" fill="black"/>
<path d="M56.3674 35.959H53.8164V38.51H56.3674V35.959Z" fill="black"/>
<path d="M64.0199 35.959H61.4688V38.51H64.0199V35.959Z" fill="black"/>
<path d="M69.1223 35.959H66.5713V38.51H69.1223V35.959Z" fill="black"/>
<path d="M71.674 35.959H69.123V38.51H71.674V35.959Z" fill="black"/>
<path d="M79.3264 35.959H76.7754V38.51H79.3264V35.959Z" fill="black"/>
<path d="M84.428 35.959H81.877V38.51H84.428V35.959Z" fill="black"/>
<path d="M89.5305 35.959H86.9795V38.51H89.5305V35.959Z" fill="black"/>
<path d="M104.837 35.959H102.286V38.51H104.837V35.959Z" fill="black"/>
<path d="M107.388 35.959H104.837V38.51H107.388V35.959Z" fill="black"/>
<path d="M115.041 35.959H112.49V38.51H115.041V35.959Z" fill="black"/>
<path d="M120.143 35.959H117.592V38.51H120.143V35.959Z" fill="black"/>
<path d="M122.694 35.959H120.143V38.51H122.694V35.959Z" fill="black"/>
<path d="M127.796 35.959H125.245V38.51H127.796V35.959Z" fill="black"/>
<path d="M130.347 35.959H127.796V38.51H130.347V35.959Z" fill="black"/>
<path d="M135.449 35.959H132.898V38.51H135.449V35.959Z" fill="black"/>
<path d="M138 35.959H135.449V38.51H138V35.959Z" fill="black"/>
<path d="M15.551 38.5103H13V41.0613H15.551V38.5103Z" fill="black"/>
<path d="M18.1018 38.5103H15.5508V41.0613H18.1018V38.5103Z" fill="black"/>
<path d="M20.6535 38.5103H18.1025V41.0613H20.6535V38.5103Z" fill="black"/>
<path d="M28.3059 38.5103H25.7549V41.0613H28.3059V38.5103Z" fill="black"/>
<path d="M30.8576 38.5103H28.3066V41.0613H30.8576V38.5103Z" fill="black"/>
<path d="M33.4075 38.5103H30.8564V41.0613H33.4075V38.5103Z" fill="black"/>
<path d="M35.9592 38.5103H33.4082V41.0613H35.9592V38.5103Z" fill="black"/>
<path d="M41.0617 38.5103H38.5107V41.0613H41.0617V38.5103Z" fill="black"/>
<path d="M48.7141 38.5103H46.1631V41.0613H48.7141V38.5103Z" fill="black"/>
<path d="M51.2658 38.5103H48.7148V41.0613H51.2658V38.5103Z" fill="black"/>
<path d="M56.3674 38.5103H53.8164V41.0613H56.3674V38.5103Z" fill="black"/>
<path d="M61.4699 38.5103H58.9189V41.0613H61.4699V38.5103Z" fill="black"/>
<path d="M64.0199 38.5103H61.4688V41.0613H64.0199V38.5103Z" fill="black"/>
<path d="M66.5715 38.5103H64.0205V41.0613H66.5715V38.5103Z" fill="black"/>
<path d="M69.1223 38.5103H66.5713V41.0613H69.1223V38.5103Z" fill="black"/>
<path d="M76.7756 38.5103H74.2246V41.0613H76.7756V38.5103Z" fill="black"/>
<path d="M81.8782 38.5103H79.3271V41.0613H81.8782V38.5103Z" fill="black"/>
<path d="M84.428 38.5103H81.877V41.0613H84.428V38.5103Z" fill="black"/>
<path d="M86.9797 38.5103H84.4287V41.0613H86.9797V38.5103Z" fill="black"/>
<path d="M92.0823 38.5103H89.5312V41.0613H92.0823V38.5103Z" fill="black"/>
<path d="M94.6322 38.5103H92.0811V41.0613H94.6322V38.5103Z" fill="black"/>
<path d="M97.1838 38.5103H94.6328V41.0613H97.1838V38.5103Z" fill="black"/>
<path d="M99.7346 38.5103H97.1836V41.0613H99.7346V38.5103Z" fill="black"/>
<path d="M102.286 38.5103H99.7354V41.0613H102.286V38.5103Z" fill="black"/>
<path d="M104.837 38.5103H102.286V41.0613H104.837V38.5103Z" fill="black"/>
<path d="M112.49 38.5103H109.939V41.0613H112.49V38.5103Z" fill="black"/>
<path d="M115.041 38.5103H112.49V41.0613H115.041V38.5103Z" fill="black"/>
<path d="M117.592 38.5103H115.041V41.0613H117.592V38.5103Z" fill="black"/>
<path d="M125.245 38.5103H122.694V41.0613H125.245V38.5103Z" fill="black"/>
<path d="M127.796 38.5103H125.245V41.0613H127.796V38.5103Z" fill="black"/>
<path d="M130.347 38.5103H127.796V41.0613H130.347V38.5103Z" fill="black"/>
<path d="M132.898 38.5103H130.347V41.0613H132.898V38.5103Z" fill="black"/>
<path d="M15.551 41.061H13V43.6121H15.551V41.061Z" fill="black"/>
<path d="M20.6535 41.061H18.1025V43.6121H20.6535V41.061Z" fill="black"/>
<path d="M38.51 41.061H35.959V43.6121H38.51V41.061Z" fill="black"/>
<path d="M43.6116 41.061H41.0605V43.6121H43.6116V41.061Z" fill="black"/>
<path d="M56.3674 41.061H53.8164V43.6121H56.3674V41.061Z" fill="black"/>
<path d="M58.9182 41.061H56.3672V43.6121H58.9182V41.061Z" fill="black"/>
<path d="M66.5715 41.061H64.0205V43.6121H66.5715V41.061Z" fill="black"/>
<path d="M69.1223 41.061H66.5713V43.6121H69.1223V41.061Z" fill="black"/>
<path d="M81.8782 41.061H79.3271V43.6121H81.8782V41.061Z" fill="black"/>
<path d="M84.428 41.061H81.877V43.6121H84.428V41.061Z" fill="black"/>
<path d="M86.9797 41.061H84.4287V43.6121H86.9797V41.061Z" fill="black"/>
<path d="M89.5305 41.061H86.9795V43.6121H89.5305V41.061Z" fill="black"/>
<path d="M97.1838 41.061H94.6328V43.6121H97.1838V41.061Z" fill="black"/>
<path d="M102.286 41.061H99.7354V43.6121H102.286V41.061Z" fill="black"/>
<path d="M107.388 41.061H104.837V43.6121H107.388V41.061Z" fill="black"/>
<path d="M109.939 41.061H107.388V43.6121H109.939V41.061Z" fill="black"/>
<path d="M115.041 41.061H112.49V43.6121H115.041V41.061Z" fill="black"/>
<path d="M117.592 41.061H115.041V43.6121H117.592V41.061Z" fill="black"/>
<path d="M130.347 41.061H127.796V43.6121H130.347V41.061Z" fill="black"/>
<path d="M132.898 41.061H130.347V43.6121H132.898V41.061Z" fill="black"/>
<path d="M138 41.061H135.449V43.6121H138V41.061Z" fill="black"/>
<path d="M15.551 43.6123H13V46.1633H15.551V43.6123Z" fill="black"/>
<path d="M20.6535 43.6123H18.1025V46.1633H20.6535V43.6123Z" fill="black"/>
<path d="M25.7551 43.6123H23.2041V46.1633H25.7551V43.6123Z" fill="black"/>
<path d="M30.8576 43.6123H28.3066V46.1633H30.8576V43.6123Z" fill="black"/>
<path d="M35.9592 43.6123H33.4082V46.1633H35.9592V43.6123Z" fill="black"/>
<path d="M38.51 43.6123H35.959V46.1633H38.51V43.6123Z" fill="black"/>
<path d="M48.7141 43.6123H46.1631V46.1633H48.7141V43.6123Z" fill="black"/>
<path d="M51.2658 43.6123H48.7148V46.1633H51.2658V43.6123Z" fill="black"/>
<path d="M56.3674 43.6123H53.8164V46.1633H56.3674V43.6123Z" fill="black"/>
<path d="M61.4699 43.6123H58.9189V46.1633H61.4699V43.6123Z" fill="black"/>
<path d="M66.5715 43.6123H64.0205V46.1633H66.5715V43.6123Z" fill="black"/>
<path d="M69.1223 43.6123H66.5713V46.1633H69.1223V43.6123Z" fill="black"/>
<path d="M74.224 43.6123H71.6729V46.1633H74.224V43.6123Z" fill="black"/>
<path d="M76.7756 43.6123H74.2246V46.1633H76.7756V43.6123Z" fill="black"/>
<path d="M81.8782 43.6123H79.3271V46.1633H81.8782V43.6123Z" fill="black"/>
<path d="M84.428 43.6123H81.877V46.1633H84.428V43.6123Z" fill="black"/>
<path d="M86.9797 43.6123H84.4287V46.1633H86.9797V43.6123Z" fill="black"/>
<path d="M89.5305 43.6123H86.9795V46.1633H89.5305V43.6123Z" fill="black"/>
<path d="M94.6322 43.6123H92.0811V46.1633H94.6322V43.6123Z" fill="black"/>
<path d="M97.1838 43.6123H94.6328V46.1633H97.1838V43.6123Z" fill="black"/>
<path d="M99.7346 43.6123H97.1836V46.1633H99.7346V43.6123Z" fill="black"/>
<path d="M104.837 43.6123H102.286V46.1633H104.837V43.6123Z" fill="black"/>
<path d="M107.388 43.6123H104.837V46.1633H107.388V43.6123Z" fill="black"/>
<path d="M109.939 43.6123H107.388V46.1633H109.939V43.6123Z" fill="black"/>
<path d="M112.49 43.6123H109.939V46.1633H112.49V43.6123Z" fill="black"/>
<path d="M117.592 43.6123H115.041V46.1633H117.592V43.6123Z" fill="black"/>
<path d="M120.143 43.6123H117.592V46.1633H120.143V43.6123Z" fill="black"/>
<path d="M130.347 43.6123H127.796V46.1633H130.347V43.6123Z" fill="black"/>
<path d="M135.449 43.6123H132.898V46.1633H135.449V43.6123Z" fill="black"/>
<path d="M138 43.6123H135.449V46.1633H138V43.6123Z" fill="black"/>
<path d="M15.551 46.1631H13V48.7141H15.551V46.1631Z" fill="black"/>
<path d="M18.1018 46.1631H15.5508V48.7141H18.1018V46.1631Z" fill="black"/>
<path d="M20.6535 46.1631H18.1025V48.7141H20.6535V46.1631Z" fill="black"/>
<path d="M23.2034 46.1631H20.6523V48.7141H23.2034V46.1631Z" fill="black"/>
<path d="M25.7551 46.1631H23.2041V48.7141H25.7551V46.1631Z" fill="black"/>
<path d="M33.4075 46.1631H30.8564V48.7141H33.4075V46.1631Z" fill="black"/>
<path d="M35.9592 46.1631H33.4082V48.7141H35.9592V46.1631Z" fill="black"/>
<path d="M41.0617 46.1631H38.5107V48.7141H41.0617V46.1631Z" fill="black"/>
<path d="M51.2658 46.1631H48.7148V48.7141H51.2658V46.1631Z" fill="black"/>
<path d="M56.3674 46.1631H53.8164V48.7141H56.3674V46.1631Z" fill="black"/>
<path d="M61.4699 46.1631H58.9189V48.7141H61.4699V46.1631Z" fill="black"/>
<path d="M64.0199 46.1631H61.4688V48.7141H64.0199V46.1631Z" fill="black"/>
<path d="M69.1223 46.1631H66.5713V48.7141H69.1223V46.1631Z" fill="black"/>
<path d="M79.3264 46.1631H76.7754V48.7141H79.3264V46.1631Z" fill="black"/>
<path d="M81.8782 46.1631H79.3271V48.7141H81.8782V46.1631Z" fill="black"/>
<path d="M92.0823 46.1631H89.5312V48.7141H92.0823V46.1631Z" fill="black"/>
<path d="M107.388 46.1631H104.837V48.7141H107.388V46.1631Z" fill="black"/>
<path d="M109.939 46.1631H107.388V48.7141H109.939V46.1631Z" fill="black"/>
<path d="M112.49 46.1631H109.939V48.7141H112.49V46.1631Z" fill="black"/>
<path d="M120.143 46.1631H117.592V48.7141H120.143V46.1631Z" fill="black"/>
<path d="M130.347 46.1631H127.796V48.7141H130.347V46.1631Z" fill="black"/>
<path d="M132.898 46.1631H130.347V48.7141H132.898V46.1631Z" fill="black"/>
<path d="M28.3059 48.7144H25.7549V51.2654H28.3059V48.7144Z" fill="black"/>
<path d="M30.8576 48.7144H28.3066V51.2654H30.8576V48.7144Z" fill="black"/>
<path d="M33.4075 48.7144H30.8564V51.2654H33.4075V48.7144Z" fill="black"/>
<path d="M38.51 48.7144H35.959V51.2654H38.51V48.7144Z" fill="black"/>
<path d="M41.0617 48.7144H38.5107V51.2654H41.0617V48.7144Z" fill="black"/>
<path d="M46.1633 48.7144H43.6123V51.2654H46.1633V48.7144Z" fill="black"/>
<path d="M48.7141 48.7144H46.1631V51.2654H48.7141V48.7144Z" fill="black"/>
<path d="M51.2658 48.7144H48.7148V51.2654H51.2658V48.7144Z" fill="black"/>
<path d="M56.3674 48.7144H53.8164V51.2654H56.3674V48.7144Z" fill="black"/>
<path d="M66.5715 48.7144H64.0205V51.2654H66.5715V48.7144Z" fill="black"/>
<path d="M69.1223 48.7144H66.5713V51.2654H69.1223V48.7144Z" fill="black"/>
<path d="M74.224 48.7144H71.6729V51.2654H74.224V48.7144Z" fill="black"/>
<path d="M84.428 48.7144H81.877V51.2654H84.428V48.7144Z" fill="black"/>
<path d="M86.9797 48.7144H84.4287V51.2654H86.9797V48.7144Z" fill="black"/>
<path d="M89.5305 48.7144H86.9795V51.2654H89.5305V48.7144Z" fill="black"/>
<path d="M94.6322 48.7144H92.0811V51.2654H94.6322V48.7144Z" fill="black"/>
<path d="M97.1838 48.7144H94.6328V51.2654H97.1838V48.7144Z" fill="black"/>
<path d="M102.286 48.7144H99.7354V51.2654H102.286V48.7144Z" fill="black"/>
<path d="M115.041 48.7144H112.49V51.2654H115.041V48.7144Z" fill="black"/>
<path d="M120.143 48.7144H117.592V51.2654H120.143V48.7144Z" fill="black"/>
<path d="M23.2034 51.2651H20.6523V53.8162H23.2034V51.2651Z" fill="black"/>
<path d="M25.7551 51.2651H23.2041V53.8162H25.7551V51.2651Z" fill="black"/>
<path d="M28.3059 51.2651H25.7549V53.8162H28.3059V51.2651Z" fill="black"/>
<path d="M33.4075 51.2651H30.8564V53.8162H33.4075V51.2651Z" fill="black"/>
<path d="M35.9592 51.2651H33.4082V53.8162H35.9592V51.2651Z" fill="black"/>
<path d="M38.51 51.2651H35.959V53.8162H38.51V51.2651Z" fill="black"/>
<path d="M43.6116 51.2651H41.0605V53.8162H43.6116V51.2651Z" fill="black"/>
<path d="M53.8158 51.2651H51.2646V53.8162H53.8158V51.2651Z" fill="black"/>
<path d="M56.3674 51.2651H53.8164V53.8162H56.3674V51.2651Z" fill="black"/>
<path d="M58.9182 51.2651H56.3672V53.8162H58.9182V51.2651Z" fill="black"/>
<path d="M64.0199 51.2651H61.4688V53.8162H64.0199V51.2651Z" fill="black"/>
<path d="M66.5715 51.2651H64.0205V53.8162H66.5715V51.2651Z" fill="black"/>
<path d="M74.224 51.2651H71.6729V53.8162H74.224V51.2651Z" fill="black"/>
<path d="M97.1838 51.2651H94.6328V53.8162H97.1838V51.2651Z" fill="black"/>
<path d="M102.286 51.2651H99.7354V53.8162H102.286V51.2651Z" fill="black"/>
<path d="M104.837 51.2651H102.286V53.8162H104.837V51.2651Z" fill="black"/>
<path d="M107.388 51.2651H104.837V53.8162H107.388V51.2651Z" fill="black"/>
<path d="M109.939 51.2651H107.388V53.8162H109.939V51.2651Z" fill="black"/>
<path d="M112.49 51.2651H109.939V53.8162H112.49V51.2651Z" fill="black"/>
<path d="M122.694 51.2651H120.143V53.8162H122.694V51.2651Z" fill="black"/>
<path d="M132.898 51.2651H130.347V53.8162H132.898V51.2651Z" fill="black"/>
<path d="M15.551 53.8164H13V56.3674H15.551V53.8164Z" fill="black"/>
<path d="M18.1018 53.8164H15.5508V56.3674H18.1018V53.8164Z" fill="black"/>
<path d="M25.7551 53.8164H23.2041V56.3674H25.7551V53.8164Z" fill="black"/>
<path d="M28.3059 53.8164H25.7549V56.3674H28.3059V53.8164Z" fill="black"/>
<path d="M30.8576 53.8164H28.3066V56.3674H30.8576V53.8164Z" fill="black"/>
<path d="M33.4075 53.8164H30.8564V56.3674H33.4075V53.8164Z" fill="black"/>
<path d="M35.9592 53.8164H33.4082V56.3674H35.9592V53.8164Z" fill="black"/>
<path d="M38.51 53.8164H35.959V56.3674H38.51V53.8164Z" fill="black"/>
<path d="M41.0617 53.8164H38.5107V56.3674H41.0617V53.8164Z" fill="black"/>
<path d="M46.1633 53.8164H43.6123V56.3674H46.1633V53.8164Z" fill="black"/>
<path d="M53.8158 53.8164H51.2646V56.3674H53.8158V53.8164Z" fill="black"/>
<path d="M56.3674 53.8164H53.8164V56.3674H56.3674V53.8164Z" fill="black"/>
<path d="M58.9182 53.8164H56.3672V56.3674H58.9182V53.8164Z" fill="black"/>
<path d="M69.1223 53.8164H66.5713V56.3674H69.1223V53.8164Z" fill="black"/>
<path d="M79.3264 53.8164H76.7754V56.3674H79.3264V53.8164Z" fill="black"/>
<path d="M84.428 53.8164H81.877V56.3674H84.428V53.8164Z" fill="black"/>
<path d="M86.9797 53.8164H84.4287V56.3674H86.9797V53.8164Z" fill="black"/>
<path d="M92.0823 53.8164H89.5312V56.3674H92.0823V53.8164Z" fill="black"/>
<path d="M94.6322 53.8164H92.0811V56.3674H94.6322V53.8164Z" fill="black"/>
<path d="M102.286 53.8164H99.7354V56.3674H102.286V53.8164Z" fill="black"/>
<path d="M104.837 53.8164H102.286V56.3674H104.837V53.8164Z" fill="black"/>
<path d="M115.041 53.8164H112.49V56.3674H115.041V53.8164Z" fill="black"/>
<path d="M125.245 53.8164H122.694V56.3674H125.245V53.8164Z" fill="black"/>
<path d="M127.796 53.8164H125.245V56.3674H127.796V53.8164Z" fill="black"/>
<path d="M15.551 56.3672H13V58.9182H15.551V56.3672Z" fill="black"/>
<path d="M23.2034 56.3672H20.6523V58.9182H23.2034V56.3672Z" fill="black"/>
<path d="M25.7551 56.3672H23.2041V58.9182H25.7551V56.3672Z" fill="black"/>
<path d="M28.3059 56.3672H25.7549V58.9182H28.3059V56.3672Z" fill="black"/>
<path d="M33.4075 56.3672H30.8564V58.9182H33.4075V56.3672Z" fill="black"/>
<path d="M38.51 56.3672H35.959V58.9182H38.51V56.3672Z" fill="black"/>
<path d="M41.0617 56.3672H38.5107V58.9182H41.0617V56.3672Z" fill="black"/>
<path d="M46.1633 56.3672H43.6123V58.9182H46.1633V56.3672Z" fill="black"/>
<path d="M48.7141 56.3672H46.1631V58.9182H48.7141V56.3672Z" fill="black"/>
<path d="M51.2658 56.3672H48.7148V58.9182H51.2658V56.3672Z" fill="black"/>
<path d="M61.4699 56.3672H58.9189V58.9182H61.4699V56.3672Z" fill="black"/>
<path d="M66.5715 56.3672H64.0205V58.9182H66.5715V56.3672Z" fill="black"/>
<path d="M69.1223 56.3672H66.5713V58.9182H69.1223V56.3672Z" fill="black"/>
<path d="M74.224 56.3672H71.6729V58.9182H74.224V56.3672Z" fill="black"/>
<path d="M79.3264 56.3672H76.7754V58.9182H79.3264V56.3672Z" fill="black"/>
<path d="M84.428 56.3672H81.877V58.9182H84.428V56.3672Z" fill="black"/>
<path d="M86.9797 56.3672H84.4287V58.9182H86.9797V56.3672Z" fill="black"/>
<path d="M94.6322 56.3672H92.0811V58.9182H94.6322V56.3672Z" fill="black"/>
<path d="M99.7346 56.3672H97.1836V58.9182H99.7346V56.3672Z" fill="black"/>
<path d="M104.837 56.3672H102.286V58.9182H104.837V56.3672Z" fill="black"/>
<path d="M107.388 56.3672H104.837V58.9182H107.388V56.3672Z" fill="black"/>
<path d="M112.49 56.3672H109.939V58.9182H112.49V56.3672Z" fill="black"/>
<path d="M117.592 56.3672H115.041V58.9182H117.592V56.3672Z" fill="black"/>
<path d="M127.796 56.3672H125.245V58.9182H127.796V56.3672Z" fill="black"/>
<path d="M130.347 56.3672H127.796V58.9182H130.347V56.3672Z" fill="black"/>
<path d="M132.898 56.3672H130.347V58.9182H132.898V56.3672Z" fill="black"/>
<path d="M138 56.3672H135.449V58.9182H138V56.3672Z" fill="black"/>
<path d="M15.551 58.9185H13V61.4695H15.551V58.9185Z" fill="black"/>
<path d="M20.6535 58.9185H18.1025V61.4695H20.6535V58.9185Z" fill="black"/>
<path d="M23.2034 58.9185H20.6523V61.4695H23.2034V58.9185Z" fill="black"/>
<path d="M28.3059 58.9185H25.7549V61.4695H28.3059V58.9185Z" fill="black"/>
<path d="M30.8576 58.9185H28.3066V61.4695H30.8576V58.9185Z" fill="black"/>
<path d="M38.51 58.9185H35.959V61.4695H38.51V58.9185Z" fill="black"/>
<path d="M41.0617 58.9185H38.5107V61.4695H41.0617V58.9185Z" fill="black"/>
<path d="M51.2658 58.9185H48.7148V61.4695H51.2658V58.9185Z" fill="black"/>
<path d="M64.0199 58.9185H61.4688V61.4695H64.0199V58.9185Z" fill="black"/>
<path d="M66.5715 58.9185H64.0205V61.4695H66.5715V58.9185Z" fill="black"/>
<path d="M71.674 58.9185H69.123V61.4695H71.674V58.9185Z" fill="black"/>
<path d="M81.8782 58.9185H79.3271V61.4695H81.8782V58.9185Z" fill="black"/>
<path d="M94.6322 58.9185H92.0811V61.4695H94.6322V58.9185Z" fill="black"/>
<path d="M99.7346 58.9185H97.1836V61.4695H99.7346V58.9185Z" fill="black"/>
<path d="M107.388 58.9185H104.837V61.4695H107.388V58.9185Z" fill="black"/>
<path d="M120.143 58.9185H117.592V61.4695H120.143V58.9185Z" fill="black"/>
<path d="M122.694 58.9185H120.143V61.4695H122.694V58.9185Z" fill="black"/>
<path d="M125.245 58.9185H122.694V61.4695H125.245V58.9185Z" fill="black"/>
<path d="M130.347 58.9185H127.796V61.4695H130.347V58.9185Z" fill="black"/>
<path d="M138 58.9185H135.449V61.4695H138V58.9185Z" fill="black"/>
<path d="M15.551 61.4692H13V64.0203H15.551V61.4692Z" fill="black"/>
<path d="M18.1018 61.4692H15.5508V64.0203H18.1018V61.4692Z" fill="black"/>
<path d="M28.3059 61.4692H25.7549V64.0203H28.3059V61.4692Z" fill="black"/>
<path d="M33.4075 61.4692H30.8564V64.0203H33.4075V61.4692Z" fill="black"/>
<path d="M35.9592 61.4692H33.4082V64.0203H35.9592V61.4692Z" fill="black"/>
<path d="M38.51 61.4692H35.959V64.0203H38.51V61.4692Z" fill="black"/>
<path d="M41.0617 61.4692H38.5107V64.0203H41.0617V61.4692Z" fill="black"/>
<path d="M46.1633 61.4692H43.6123V64.0203H46.1633V61.4692Z" fill="black"/>
<path d="M48.7141 61.4692H46.1631V64.0203H48.7141V61.4692Z" fill="black"/>
<path d="M51.2658 61.4692H48.7148V64.0203H51.2658V61.4692Z" fill="black"/>
<path d="M56.3674 61.4692H53.8164V64.0203H56.3674V61.4692Z" fill="black"/>
<path d="M64.0199 61.4692H61.4688V64.0203H64.0199V61.4692Z" fill="black"/>
<path d="M79.3264 61.4692H76.7754V64.0203H79.3264V61.4692Z" fill="black"/>
<path d="M92.0823 61.4692H89.5312V64.0203H92.0823V61.4692Z" fill="black"/>
<path d="M99.7346 61.4692H97.1836V64.0203H99.7346V61.4692Z" fill="black"/>
<path d="M107.388 61.4692H104.837V64.0203H107.388V61.4692Z" fill="black"/>
<path d="M112.49 61.4692H109.939V64.0203H112.49V61.4692Z" fill="black"/>
<path d="M127.796 61.4692H125.245V64.0203H127.796V61.4692Z" fill="black"/>
<path d="M138 61.4692H135.449V64.0203H138V61.4692Z" fill="black"/>
<path d="M15.551 64.0205H13V66.5715H15.551V64.0205Z" fill="black"/>
<path d="M18.1018 64.0205H15.5508V66.5715H18.1018V64.0205Z" fill="black"/>
<path d="M20.6535 64.0205H18.1025V66.5715H20.6535V64.0205Z" fill="black"/>
<path d="M23.2034 64.0205H20.6523V66.5715H23.2034V64.0205Z" fill="black"/>
<path d="M25.7551 64.0205H23.2041V66.5715H25.7551V64.0205Z" fill="black"/>
<path d="M28.3059 64.0205H25.7549V66.5715H28.3059V64.0205Z" fill="black"/>
<path d="M30.8576 64.0205H28.3066V66.5715H30.8576V64.0205Z" fill="black"/>
<path d="M35.9592 64.0205H33.4082V66.5715H35.9592V64.0205Z" fill="black"/>
<path d="M38.51 64.0205H35.959V66.5715H38.51V64.0205Z" fill="black"/>
<path d="M43.6116 64.0205H41.0605V66.5715H43.6116V64.0205Z" fill="black"/>
<path d="M56.3674 64.0205H53.8164V66.5715H56.3674V64.0205Z" fill="black"/>
<path d="M61.4699 64.0205H58.9189V66.5715H61.4699V64.0205Z" fill="black"/>
<path d="M69.1223 64.0205H66.5713V66.5715H69.1223V64.0205Z" fill="black"/>
<path d="M71.674 64.0205H69.123V66.5715H71.674V64.0205Z" fill="black"/>
<path d="M74.224 64.0205H71.6729V66.5715H74.224V64.0205Z" fill="black"/>
<path d="M76.7756 64.0205H74.2246V66.5715H76.7756V64.0205Z" fill="black"/>
<path d="M79.3264 64.0205H76.7754V66.5715H79.3264V64.0205Z" fill="black"/>
<path d="M89.5305 64.0205H86.9795V66.5715H89.5305V64.0205Z" fill="black"/>
<path d="M112.49 64.0205H109.939V66.5715H112.49V64.0205Z" fill="black"/>
<path d="M115.041 64.0205H112.49V66.5715H115.041V64.0205Z" fill="black"/>
<path d="M117.592 64.0205H115.041V66.5715H117.592V64.0205Z" fill="black"/>
<path d="M120.143 64.0205H117.592V66.5715H120.143V64.0205Z" fill="black"/>
<path d="M122.694 64.0205H120.143V66.5715H122.694V64.0205Z" fill="black"/>
<path d="M132.898 64.0205H130.347V66.5715H132.898V64.0205Z" fill="black"/>
<path d="M135.449 64.0205H132.898V66.5715H135.449V64.0205Z" fill="black"/>
<path d="M18.1018 66.5713H15.5508V69.1223H18.1018V66.5713Z" fill="black"/>
<path d="M20.6535 66.5713H18.1025V69.1223H20.6535V66.5713Z" fill="black"/>
<path d="M43.6116 66.5713H41.0605V69.1223H43.6116V66.5713Z" fill="black"/>
<path d="M53.8158 66.5713H51.2646V69.1223H53.8158V66.5713Z" fill="black"/>
<path d="M58.9182 66.5713H56.3672V69.1223H58.9182V66.5713Z" fill="black"/>
<path d="M61.4699 66.5713H58.9189V69.1223H61.4699V66.5713Z" fill="black"/>
<path d="M64.0199 66.5713H61.4688V69.1223H64.0199V66.5713Z" fill="black"/>
<path d="M66.5715 66.5713H64.0205V69.1223H66.5715V66.5713Z" fill="black"/>
<path d="M69.1223 66.5713H66.5713V69.1223H69.1223V66.5713Z" fill="black"/>
<path d="M71.674 66.5713H69.123V69.1223H71.674V66.5713Z" fill="black"/>
<path d="M76.7756 66.5713H74.2246V69.1223H76.7756V66.5713Z" fill="black"/>
<path d="M79.3264 66.5713H76.7754V69.1223H79.3264V66.5713Z" fill="black"/>
<path d="M84.428 66.5713H81.877V69.1223H84.428V66.5713Z" fill="black"/>
<path d="M89.5305 66.5713H86.9795V69.1223H89.5305V66.5713Z" fill="black"/>
<path d="M92.0823 66.5713H89.5312V69.1223H92.0823V66.5713Z" fill="black"/>
<path d="M94.6322 66.5713H92.0811V69.1223H94.6322V66.5713Z" fill="black"/>
<path d="M97.1838 66.5713H94.6328V69.1223H97.1838V66.5713Z" fill="black"/>
<path d="M112.49 66.5713H109.939V69.1223H112.49V66.5713Z" fill="black"/>
<path d="M115.041 66.5713H112.49V69.1223H115.041V66.5713Z" fill="black"/>
<path d="M117.592 66.5713H115.041V69.1223H117.592V66.5713Z" fill="black"/>
<path d="M120.143 66.5713H117.592V69.1223H120.143V66.5713Z" fill="black"/>
<path d="M122.694 66.5713H120.143V69.1223H122.694V66.5713Z" fill="black"/>
<path d="M125.245 66.5713H122.694V69.1223H125.245V66.5713Z" fill="black"/>
<path d="M127.796 66.5713H125.245V69.1223H127.796V66.5713Z" fill="black"/>
<path d="M138 66.5713H135.449V69.1223H138V66.5713Z" fill="black"/>
<path d="M15.551 69.1226H13V71.6736H15.551V69.1226Z" fill="black"/>
<path d="M18.1018 69.1226H15.5508V71.6736H18.1018V69.1226Z" fill="black"/>
<path d="M20.6535 69.1226H18.1025V71.6736H20.6535V69.1226Z" fill="black"/>
<path d="M25.7551 69.1226H23.2041V71.6736H25.7551V69.1226Z" fill="black"/>
<path d="M28.3059 69.1226H25.7549V71.6736H28.3059V69.1226Z" fill="black"/>
<path d="M30.8576 69.1226H28.3066V71.6736H30.8576V69.1226Z" fill="black"/>
<path d="M33.4075 69.1226H30.8564V71.6736H33.4075V69.1226Z" fill="black"/>
<path d="M35.9592 69.1226H33.4082V71.6736H35.9592V69.1226Z" fill="black"/>
<path d="M38.51 69.1226H35.959V71.6736H38.51V69.1226Z" fill="black"/>
<path d="M41.0617 69.1226H38.5107V71.6736H41.0617V69.1226Z" fill="black"/>
<path d="M46.1633 69.1226H43.6123V71.6736H46.1633V69.1226Z" fill="black"/>
<path d="M53.8158 69.1226H51.2646V71.6736H53.8158V69.1226Z" fill="black"/>
<path d="M56.3674 69.1226H53.8164V71.6736H56.3674V69.1226Z" fill="black"/>
<path d="M58.9182 69.1226H56.3672V71.6736H58.9182V69.1226Z" fill="black"/>
<path d="M66.5715 69.1226H64.0205V71.6736H66.5715V69.1226Z" fill="black"/>
<path d="M69.1223 69.1226H66.5713V71.6736H69.1223V69.1226Z" fill="black"/>
<path d="M71.674 69.1226H69.123V71.6736H71.674V69.1226Z" fill="black"/>
<path d="M74.224 69.1226H71.6729V71.6736H74.224V69.1226Z" fill="black"/>
<path d="M76.7756 69.1226H74.2246V71.6736H76.7756V69.1226Z" fill="black"/>
<path d="M79.3264 69.1226H76.7754V71.6736H79.3264V69.1226Z" fill="black"/>
<path d="M81.8782 69.1226H79.3271V71.6736H81.8782V69.1226Z" fill="black"/>
<path d="M84.428 69.1226H81.877V71.6736H84.428V69.1226Z" fill="black"/>
<path d="M86.9797 69.1226H84.4287V71.6736H86.9797V69.1226Z" fill="black"/>
<path d="M92.0823 69.1226H89.5312V71.6736H92.0823V69.1226Z" fill="black"/>
<path d="M94.6322 69.1226H92.0811V71.6736H94.6322V69.1226Z" fill="black"/>
<path d="M97.1838 69.1226H94.6328V71.6736H97.1838V69.1226Z" fill="black"/>
<path d="M99.7346 69.1226H97.1836V71.6736H99.7346V69.1226Z" fill="black"/>
<path d="M115.041 69.1226H112.49V71.6736H115.041V69.1226Z" fill="black"/>
<path d="M117.592 69.1226H115.041V71.6736H117.592V69.1226Z" fill="black"/>
<path d="M120.143 69.1226H117.592V71.6736H120.143V69.1226Z" fill="black"/>
<path d="M122.694 69.1226H120.143V71.6736H122.694V69.1226Z" fill="black"/>
<path d="M125.245 69.1226H122.694V71.6736H125.245V69.1226Z" fill="black"/>
<path d="M127.796 69.1226H125.245V71.6736H127.796V69.1226Z" fill="black"/>
<path d="M132.898 69.1226H130.347V71.6736H132.898V69.1226Z" fill="black"/>
<path d="M15.551 71.6733H13V74.2244H15.551V71.6733Z" fill="black"/>
<path d="M23.2034 71.6733H20.6523V74.2244H23.2034V71.6733Z" fill="black"/>
<path d="M25.7551 71.6733H23.2041V74.2244H25.7551V71.6733Z" fill="black"/>
<path d="M35.9592 71.6733H33.4082V74.2244H35.9592V71.6733Z" fill="black"/>
<path d="M48.7141 71.6733H46.1631V74.2244H48.7141V71.6733Z" fill="black"/>
<path d="M61.4699 71.6733H58.9189V74.2244H61.4699V71.6733Z" fill="black"/>
<path d="M66.5715 71.6733H64.0205V74.2244H66.5715V71.6733Z" fill="black"/>
<path d="M69.1223 71.6733H66.5713V74.2244H69.1223V71.6733Z" fill="black"/>
<path d="M71.674 71.6733H69.123V74.2244H71.674V71.6733Z" fill="black"/>
<path d="M81.8782 71.6733H79.3271V74.2244H81.8782V71.6733Z" fill="black"/>
<path d="M84.428 71.6733H81.877V74.2244H84.428V71.6733Z" fill="black"/>
<path d="M86.9797 71.6733H84.4287V74.2244H86.9797V71.6733Z" fill="black"/>
<path d="M92.0823 71.6733H89.5312V74.2244H92.0823V71.6733Z" fill="black"/>
<path d="M99.7346 71.6733H97.1836V74.2244H99.7346V71.6733Z" fill="black"/>
<path d="M102.286 71.6733H99.7354V74.2244H102.286V71.6733Z" fill="black"/>
<path d="M104.837 71.6733H102.286V74.2244H104.837V71.6733Z" fill="black"/>
<path d="M115.041 71.6733H112.49V74.2244H115.041V71.6733Z" fill="black"/>
<path d="M117.592 71.6733H115.041V74.2244H117.592V71.6733Z" fill="black"/>
<path d="M127.796 71.6733H125.245V74.2244H127.796V71.6733Z" fill="black"/>
<path d="M130.347 71.6733H127.796V74.2244H130.347V71.6733Z" fill="black"/>
<path d="M132.898 71.6733H130.347V74.2244H132.898V71.6733Z" fill="black"/>
<path d="M138 71.6733H135.449V74.2244H138V71.6733Z" fill="black"/>
<path d="M18.1018 74.2246H15.5508V76.7756H18.1018V74.2246Z" fill="black"/>
<path d="M25.7551 74.2246H23.2041V76.7756H25.7551V74.2246Z" fill="black"/>
<path d="M30.8576 74.2246H28.3066V76.7756H30.8576V74.2246Z" fill="black"/>
<path d="M35.9592 74.2246H33.4082V76.7756H35.9592V74.2246Z" fill="black"/>
<path d="M38.51 74.2246H35.959V76.7756H38.51V74.2246Z" fill="black"/>
<path d="M51.2658 74.2246H48.7148V76.7756H51.2658V74.2246Z" fill="black"/>
<path d="M56.3674 74.2246H53.8164V76.7756H56.3674V74.2246Z" fill="black"/>
<path d="M61.4699 74.2246H58.9189V76.7756H61.4699V74.2246Z" fill="black"/>
<path d="M64.0199 74.2246H61.4688V76.7756H64.0199V74.2246Z" fill="black"/>
<path d="M69.1223 74.2246H66.5713V76.7756H69.1223V74.2246Z" fill="black"/>
<path d="M71.674 74.2246H69.123V76.7756H71.674V74.2246Z" fill="black"/>
<path d="M76.7756 74.2246H74.2246V76.7756H76.7756V74.2246Z" fill="black"/>
<path d="M81.8782 74.2246H79.3271V76.7756H81.8782V74.2246Z" fill="black"/>
<path d="M89.5305 74.2246H86.9795V76.7756H89.5305V74.2246Z" fill="black"/>
<path d="M102.286 74.2246H99.7354V76.7756H102.286V74.2246Z" fill="black"/>
<path d="M104.837 74.2246H102.286V76.7756H104.837V74.2246Z" fill="black"/>
<path d="M107.388 74.2246H104.837V76.7756H107.388V74.2246Z" fill="black"/>
<path d="M109.939 74.2246H107.388V76.7756H109.939V74.2246Z" fill="black"/>
<path d="M112.49 74.2246H109.939V76.7756H112.49V74.2246Z" fill="black"/>
<path d="M115.041 74.2246H112.49V76.7756H115.041V74.2246Z" fill="black"/>
<path d="M117.592 74.2246H115.041V76.7756H117.592V74.2246Z" fill="black"/>
<path d="M122.694 74.2246H120.143V76.7756H122.694V74.2246Z" fill="black"/>
<path d="M127.796 74.2246H125.245V76.7756H127.796V74.2246Z" fill="black"/>
<path d="M25.7551 76.7754H23.2041V79.3264H25.7551V76.7754Z" fill="black"/>
<path d="M35.9592 76.7754H33.4082V79.3264H35.9592V76.7754Z" fill="black"/>
<path d="M43.6116 76.7754H41.0605V79.3264H43.6116V76.7754Z" fill="black"/>
<path d="M46.1633 76.7754H43.6123V79.3264H46.1633V76.7754Z" fill="black"/>
<path d="M48.7141 76.7754H46.1631V79.3264H48.7141V76.7754Z" fill="black"/>
<path d="M51.2658 76.7754H48.7148V79.3264H51.2658V76.7754Z" fill="black"/>
<path d="M56.3674 76.7754H53.8164V79.3264H56.3674V76.7754Z" fill="black"/>
<path d="M64.0199 76.7754H61.4688V79.3264H64.0199V76.7754Z" fill="black"/>
<path d="M69.1223 76.7754H66.5713V79.3264H69.1223V76.7754Z" fill="black"/>
<path d="M71.674 76.7754H69.123V79.3264H71.674V76.7754Z" fill="black"/>
<path d="M81.8782 76.7754H79.3271V79.3264H81.8782V76.7754Z" fill="black"/>
<path d="M84.428 76.7754H81.877V79.3264H84.428V76.7754Z" fill="black"/>
<path d="M89.5305 76.7754H86.9795V79.3264H89.5305V76.7754Z" fill="black"/>
<path d="M94.6322 76.7754H92.0811V79.3264H94.6322V76.7754Z" fill="black"/>
<path d="M97.1838 76.7754H94.6328V79.3264H97.1838V76.7754Z" fill="black"/>
<path d="M104.837 76.7754H102.286V79.3264H104.837V76.7754Z" fill="black"/>
<path d="M107.388 76.7754H104.837V79.3264H107.388V76.7754Z" fill="black"/>
<path d="M112.49 76.7754H109.939V79.3264H112.49V76.7754Z" fill="black"/>
<path d="M117.592 76.7754H115.041V79.3264H117.592V76.7754Z" fill="black"/>
<path d="M127.796 76.7754H125.245V79.3264H127.796V76.7754Z" fill="black"/>
<path d="M18.1018 79.3267H15.5508V81.8777H18.1018V79.3267Z" fill="black"/>
<path d="M20.6535 79.3267H18.1025V81.8777H20.6535V79.3267Z" fill="black"/>
<path d="M25.7551 79.3267H23.2041V81.8777H25.7551V79.3267Z" fill="black"/>
<path d="M28.3059 79.3267H25.7549V81.8777H28.3059V79.3267Z" fill="black"/>
<path d="M30.8576 79.3267H28.3066V81.8777H30.8576V79.3267Z" fill="black"/>
<path d="M33.4075 79.3267H30.8564V81.8777H33.4075V79.3267Z" fill="black"/>
<path d="M35.9592 79.3267H33.4082V81.8777H35.9592V79.3267Z" fill="black"/>
<path d="M43.6116 79.3267H41.0605V81.8777H43.6116V79.3267Z" fill="black"/>
<path d="M56.3674 79.3267H53.8164V81.8777H56.3674V79.3267Z" fill="black"/>
<path d="M58.9182 79.3267H56.3672V81.8777H58.9182V79.3267Z" fill="black"/>
<path d="M61.4699 79.3267H58.9189V81.8777H61.4699V79.3267Z" fill="black"/>
<path d="M66.5715 79.3267H64.0205V81.8777H66.5715V79.3267Z" fill="black"/>
<path d="M71.674 79.3267H69.123V81.8777H71.674V79.3267Z" fill="black"/>
<path d="M74.224 79.3267H71.6729V81.8777H74.224V79.3267Z" fill="black"/>
<path d="M76.7756 79.3267H74.2246V81.8777H76.7756V79.3267Z" fill="black"/>
<path d="M79.3264 79.3267H76.7754V81.8777H79.3264V79.3267Z" fill="black"/>
<path d="M81.8782 79.3267H79.3271V81.8777H81.8782V79.3267Z" fill="black"/>
<path d="M84.428 79.3267H81.877V81.8777H84.428V79.3267Z" fill="black"/>
<path d="M94.6322 79.3267H92.0811V81.8777H94.6322V79.3267Z" fill="black"/>
<path d="M104.837 79.3267H102.286V81.8777H104.837V79.3267Z" fill="black"/>
<path d="M109.939 79.3267H107.388V81.8777H109.939V79.3267Z" fill="black"/>
<path d="M115.041 79.3267H112.49V81.8777H115.041V79.3267Z" fill="black"/>
<path d="M117.592 79.3267H115.041V81.8777H117.592V79.3267Z" fill="black"/>
<path d="M120.143 79.3267H117.592V81.8777H120.143V79.3267Z" fill="black"/>
<path d="M122.694 79.3267H120.143V81.8777H122.694V79.3267Z" fill="black"/>
<path d="M125.245 79.3267H122.694V81.8777H125.245V79.3267Z" fill="black"/>
<path d="M127.796 79.3267H125.245V81.8777H127.796V79.3267Z" fill="black"/>
<path d="M18.1018 81.8774H15.5508V84.4285H18.1018V81.8774Z" fill="black"/>
<path d="M28.3059 81.8774H25.7549V84.4285H28.3059V81.8774Z" fill="black"/>
<path d="M33.4075 81.8774H30.8564V84.4285H33.4075V81.8774Z" fill="black"/>
<path d="M35.9592 81.8774H33.4082V84.4285H35.9592V81.8774Z" fill="black"/>
<path d="M48.7141 81.8774H46.1631V84.4285H48.7141V81.8774Z" fill="black"/>
<path d="M53.8158 81.8774H51.2646V84.4285H53.8158V81.8774Z" fill="black"/>
<path d="M64.0199 81.8774H61.4688V84.4285H64.0199V81.8774Z" fill="black"/>
<path d="M69.1223 81.8774H66.5713V84.4285H69.1223V81.8774Z" fill="black"/>
<path d="M76.7756 81.8774H74.2246V84.4285H76.7756V81.8774Z" fill="black"/>
<path d="M84.428 81.8774H81.877V84.4285H84.428V81.8774Z" fill="black"/>
<path d="M89.5305 81.8774H86.9795V84.4285H89.5305V81.8774Z" fill="black"/>
<path d="M104.837 81.8774H102.286V84.4285H104.837V81.8774Z" fill="black"/>
<path d="M109.939 81.8774H107.388V84.4285H109.939V81.8774Z" fill="black"/>
<path d="M115.041 81.8774H112.49V84.4285H115.041V81.8774Z" fill="black"/>
<path d="M122.694 81.8774H120.143V84.4285H122.694V81.8774Z" fill="black"/>
<path d="M125.245 81.8774H122.694V84.4285H125.245V81.8774Z" fill="black"/>
<path d="M132.898 81.8774H130.347V84.4285H132.898V81.8774Z" fill="black"/>
<path d="M135.449 81.8774H132.898V84.4285H135.449V81.8774Z" fill="black"/>
<path d="M138 81.8774H135.449V84.4285H138V81.8774Z" fill="black"/>
<path d="M15.551 84.4287H13V86.9797H15.551V84.4287Z" fill="black"/>
<path d="M20.6535 84.4287H18.1025V86.9797H20.6535V84.4287Z" fill="black"/>
<path d="M28.3059 84.4287H25.7549V86.9797H28.3059V84.4287Z" fill="black"/>
<path d="M30.8576 84.4287H28.3066V86.9797H30.8576V84.4287Z" fill="black"/>
<path d="M33.4075 84.4287H30.8564V86.9797H33.4075V84.4287Z" fill="black"/>
<path d="M48.7141 84.4287H46.1631V86.9797H48.7141V84.4287Z" fill="black"/>
<path d="M51.2658 84.4287H48.7148V86.9797H51.2658V84.4287Z" fill="black"/>
<path d="M58.9182 84.4287H56.3672V86.9797H58.9182V84.4287Z" fill="black"/>
<path d="M61.4699 84.4287H58.9189V86.9797H61.4699V84.4287Z" fill="black"/>
<path d="M66.5715 84.4287H64.0205V86.9797H66.5715V84.4287Z" fill="black"/>
<path d="M69.1223 84.4287H66.5713V86.9797H69.1223V84.4287Z" fill="black"/>
<path d="M71.674 84.4287H69.123V86.9797H71.674V84.4287Z" fill="black"/>
<path d="M76.7756 84.4287H74.2246V86.9797H76.7756V84.4287Z" fill="black"/>
<path d="M84.428 84.4287H81.877V86.9797H84.428V84.4287Z" fill="black"/>
<path d="M92.0823 84.4287H89.5312V86.9797H92.0823V84.4287Z" fill="black"/>
<path d="M94.6322 84.4287H92.0811V86.9797H94.6322V84.4287Z" fill="black"/>
<path d="M102.286 84.4287H99.7354V86.9797H102.286V84.4287Z" fill="black"/>
<path d="M107.388 84.4287H104.837V86.9797H107.388V84.4287Z" fill="black"/>
<path d="M109.939 84.4287H107.388V86.9797H109.939V84.4287Z" fill="black"/>
<path d="M117.592 84.4287H115.041V86.9797H117.592V84.4287Z" fill="black"/>
<path d="M120.143 84.4287H117.592V86.9797H120.143V84.4287Z" fill="black"/>
<path d="M127.796 84.4287H125.245V86.9797H127.796V84.4287Z" fill="black"/>
<path d="M132.898 84.4287H130.347V86.9797H132.898V84.4287Z" fill="black"/>
<path d="M135.449 84.4287H132.898V86.9797H135.449V84.4287Z" fill="black"/>
<path d="M20.6535 86.9795H18.1025V89.5305H20.6535V86.9795Z" fill="black"/>
<path d="M33.4075 86.9795H30.8564V89.5305H33.4075V86.9795Z" fill="black"/>
<path d="M35.9592 86.9795H33.4082V89.5305H35.9592V86.9795Z" fill="black"/>
<path d="M46.1633 86.9795H43.6123V89.5305H46.1633V86.9795Z" fill="black"/>
<path d="M48.7141 86.9795H46.1631V89.5305H48.7141V86.9795Z" fill="black"/>
<path d="M51.2658 86.9795H48.7148V89.5305H51.2658V86.9795Z" fill="black"/>
<path d="M61.4699 86.9795H58.9189V89.5305H61.4699V86.9795Z" fill="black"/>
<path d="M64.0199 86.9795H61.4688V89.5305H64.0199V86.9795Z" fill="black"/>
<path d="M69.1223 86.9795H66.5713V89.5305H69.1223V86.9795Z" fill="black"/>
<path d="M74.224 86.9795H71.6729V89.5305H74.224V86.9795Z" fill="black"/>
<path d="M81.8782 86.9795H79.3271V89.5305H81.8782V86.9795Z" fill="black"/>
<path d="M86.9797 86.9795H84.4287V89.5305H86.9797V86.9795Z" fill="black"/>
<path d="M89.5305 86.9795H86.9795V89.5305H89.5305V86.9795Z" fill="black"/>
<path d="M92.0823 86.9795H89.5312V89.5305H92.0823V86.9795Z" fill="black"/>
<path d="M94.6322 86.9795H92.0811V89.5305H94.6322V86.9795Z" fill="black"/>
<path d="M97.1838 86.9795H94.6328V89.5305H97.1838V86.9795Z" fill="black"/>
<path d="M99.7346 86.9795H97.1836V89.5305H99.7346V86.9795Z" fill="black"/>
<path d="M107.388 86.9795H104.837V89.5305H107.388V86.9795Z" fill="black"/>
<path d="M109.939 86.9795H107.388V89.5305H109.939V86.9795Z" fill="black"/>
<path d="M112.49 86.9795H109.939V89.5305H112.49V86.9795Z" fill="black"/>
<path d="M115.041 86.9795H112.49V89.5305H115.041V86.9795Z" fill="black"/>
<path d="M117.592 86.9795H115.041V89.5305H117.592V86.9795Z" fill="black"/>
<path d="M122.694 86.9795H120.143V89.5305H122.694V86.9795Z" fill="black"/>
<path d="M127.796 86.9795H125.245V89.5305H127.796V86.9795Z" fill="black"/>
<path d="M130.347 86.9795H127.796V89.5305H130.347V86.9795Z" fill="black"/>
<path d="M132.898 86.9795H130.347V89.5305H132.898V86.9795Z" fill="black"/>
<path d="M18.1018 89.5308H15.5508V92.0818H18.1018V89.5308Z" fill="black"/>
<path d="M20.6535 89.5308H18.1025V92.0818H20.6535V89.5308Z" fill="black"/>
<path d="M25.7551 89.5308H23.2041V92.0818H25.7551V89.5308Z" fill="black"/>
<path d="M30.8576 89.5308H28.3066V92.0818H30.8576V89.5308Z" fill="black"/>
<path d="M33.4075 89.5308H30.8564V92.0818H33.4075V89.5308Z" fill="black"/>
<path d="M41.0617 89.5308H38.5107V92.0818H41.0617V89.5308Z" fill="black"/>
<path d="M43.6116 89.5308H41.0605V92.0818H43.6116V89.5308Z" fill="black"/>
<path d="M46.1633 89.5308H43.6123V92.0818H46.1633V89.5308Z" fill="black"/>
<path d="M48.7141 89.5308H46.1631V92.0818H48.7141V89.5308Z" fill="black"/>
<path d="M53.8158 89.5308H51.2646V92.0818H53.8158V89.5308Z" fill="black"/>
<path d="M61.4699 89.5308H58.9189V92.0818H61.4699V89.5308Z" fill="black"/>
<path d="M64.0199 89.5308H61.4688V92.0818H64.0199V89.5308Z" fill="black"/>
<path d="M66.5715 89.5308H64.0205V92.0818H66.5715V89.5308Z" fill="black"/>
<path d="M69.1223 89.5308H66.5713V92.0818H69.1223V89.5308Z" fill="black"/>
<path d="M71.674 89.5308H69.123V92.0818H71.674V89.5308Z" fill="black"/>
<path d="M74.224 89.5308H71.6729V92.0818H74.224V89.5308Z" fill="black"/>
<path d="M84.428 89.5308H81.877V92.0818H84.428V89.5308Z" fill="black"/>
<path d="M86.9797 89.5308H84.4287V92.0818H86.9797V89.5308Z" fill="black"/>
<path d="M94.6322 89.5308H92.0811V92.0818H94.6322V89.5308Z" fill="black"/>
<path d="M97.1838 89.5308H94.6328V92.0818H97.1838V89.5308Z" fill="black"/>
<path d="M107.388 89.5308H104.837V92.0818H107.388V89.5308Z" fill="black"/>
<path d="M115.041 89.5308H112.49V92.0818H115.041V89.5308Z" fill="black"/>
<path d="M120.143 89.5308H117.592V92.0818H120.143V89.5308Z" fill="black"/>
<path d="M127.796 89.5308H125.245V92.0818H127.796V89.5308Z" fill="black"/>
<path d="M132.898 89.5308H130.347V92.0818H132.898V89.5308Z" fill="black"/>
<path d="M138 89.5308H135.449V92.0818H138V89.5308Z" fill="black"/>
<path d="M20.6535 92.0815H18.1025V94.6326H20.6535V92.0815Z" fill="black"/>
<path d="M25.7551 92.0815H23.2041V94.6326H25.7551V92.0815Z" fill="black"/>
<path d="M38.51 92.0815H35.959V94.6326H38.51V92.0815Z" fill="black"/>
<path d="M41.0617 92.0815H38.5107V94.6326H41.0617V92.0815Z" fill="black"/>
<path d="M43.6116 92.0815H41.0605V94.6326H43.6116V92.0815Z" fill="black"/>
<path d="M48.7141 92.0815H46.1631V94.6326H48.7141V92.0815Z" fill="black"/>
<path d="M53.8158 92.0815H51.2646V94.6326H53.8158V92.0815Z" fill="black"/>
<path d="M56.3674 92.0815H53.8164V94.6326H56.3674V92.0815Z" fill="black"/>
<path d="M66.5715 92.0815H64.0205V94.6326H66.5715V92.0815Z" fill="black"/>
<path d="M76.7756 92.0815H74.2246V94.6326H76.7756V92.0815Z" fill="black"/>
<path d="M79.3264 92.0815H76.7754V94.6326H79.3264V92.0815Z" fill="black"/>
<path d="M81.8782 92.0815H79.3271V94.6326H81.8782V92.0815Z" fill="black"/>
<path d="M84.428 92.0815H81.877V94.6326H84.428V92.0815Z" fill="black"/>
<path d="M89.5305 92.0815H86.9795V94.6326H89.5305V92.0815Z" fill="black"/>
<path d="M92.0823 92.0815H89.5312V94.6326H92.0823V92.0815Z" fill="black"/>
<path d="M97.1838 92.0815H94.6328V94.6326H97.1838V92.0815Z" fill="black"/>
<path d="M104.837 92.0815H102.286V94.6326H104.837V92.0815Z" fill="black"/>
<path d="M112.49 92.0815H109.939V94.6326H112.49V92.0815Z" fill="black"/>
<path d="M117.592 92.0815H115.041V94.6326H117.592V92.0815Z" fill="black"/>
<path d="M120.143 92.0815H117.592V94.6326H120.143V92.0815Z" fill="black"/>
<path d="M122.694 92.0815H120.143V94.6326H122.694V92.0815Z" fill="black"/>
<path d="M125.245 92.0815H122.694V94.6326H125.245V92.0815Z" fill="black"/>
<path d="M138 92.0815H135.449V94.6326H138V92.0815Z" fill="black"/>
<path d="M15.551 94.6328H13V97.1838H15.551V94.6328Z" fill="black"/>
<path d="M23.2034 94.6328H20.6523V97.1838H23.2034V94.6328Z" fill="black"/>
<path d="M25.7551 94.6328H23.2041V97.1838H25.7551V94.6328Z" fill="black"/>
<path d="M30.8576 94.6328H28.3066V97.1838H30.8576V94.6328Z" fill="black"/>
<path d="M33.4075 94.6328H30.8564V97.1838H33.4075V94.6328Z" fill="black"/>
<path d="M35.9592 94.6328H33.4082V97.1838H35.9592V94.6328Z" fill="black"/>
<path d="M38.51 94.6328H35.959V97.1838H38.51V94.6328Z" fill="black"/>
<path d="M41.0617 94.6328H38.5107V97.1838H41.0617V94.6328Z" fill="black"/>
<path d="M43.6116 94.6328H41.0605V97.1838H43.6116V94.6328Z" fill="black"/>
<path d="M58.9182 94.6328H56.3672V97.1838H58.9182V94.6328Z" fill="black"/>
<path d="M64.0199 94.6328H61.4688V97.1838H64.0199V94.6328Z" fill="black"/>
<path d="M74.224 94.6328H71.6729V97.1838H74.224V94.6328Z" fill="black"/>
<path d="M79.3264 94.6328H76.7754V97.1838H79.3264V94.6328Z" fill="black"/>
<path d="M86.9797 94.6328H84.4287V97.1838H86.9797V94.6328Z" fill="black"/>
<path d="M97.1838 94.6328H94.6328V97.1838H97.1838V94.6328Z" fill="black"/>
<path d="M99.7346 94.6328H97.1836V97.1838H99.7346V94.6328Z" fill="black"/>
<path d="M104.837 94.6328H102.286V97.1838H104.837V94.6328Z" fill="black"/>
<path d="M107.388 94.6328H104.837V97.1838H107.388V94.6328Z" fill="black"/>
<path d="M112.49 94.6328H109.939V97.1838H112.49V94.6328Z" fill="black"/>
<path d="M117.592 94.6328H115.041V97.1838H117.592V94.6328Z" fill="black"/>
<path d="M120.143 94.6328H117.592V97.1838H120.143V94.6328Z" fill="black"/>
<path d="M127.796 94.6328H125.245V97.1838H127.796V94.6328Z" fill="black"/>
<path d="M15.551 97.1836H13V99.7346H15.551V97.1836Z" fill="black"/>
<path d="M18.1018 97.1836H15.5508V99.7346H18.1018V97.1836Z" fill="black"/>
<path d="M25.7551 97.1836H23.2041V99.7346H25.7551V97.1836Z" fill="black"/>
<path d="M33.4075 97.1836H30.8564V99.7346H33.4075V97.1836Z" fill="black"/>
<path d="M41.0617 97.1836H38.5107V99.7346H41.0617V97.1836Z" fill="black"/>
<path d="M43.6116 97.1836H41.0605V99.7346H43.6116V97.1836Z" fill="black"/>
<path d="M46.1633 97.1836H43.6123V99.7346H46.1633V97.1836Z" fill="black"/>
<path d="M48.7141 97.1836H46.1631V99.7346H48.7141V97.1836Z" fill="black"/>
<path d="M51.2658 97.1836H48.7148V99.7346H51.2658V97.1836Z" fill="black"/>
<path d="M53.8158 97.1836H51.2646V99.7346H53.8158V97.1836Z" fill="black"/>
<path d="M69.1223 97.1836H66.5713V99.7346H69.1223V97.1836Z" fill="black"/>
<path d="M81.8782 97.1836H79.3271V99.7346H81.8782V97.1836Z" fill="black"/>
<path d="M89.5305 97.1836H86.9795V99.7346H89.5305V97.1836Z" fill="black"/>
<path d="M92.0823 97.1836H89.5312V99.7346H92.0823V97.1836Z" fill="black"/>
<path d="M97.1838 97.1836H94.6328V99.7346H97.1838V97.1836Z" fill="black"/>
<path d="M99.7346 97.1836H97.1836V99.7346H99.7346V97.1836Z" fill="black"/>
<path d="M102.286 97.1836H99.7354V99.7346H102.286V97.1836Z" fill="black"/>
<path d="M117.592 97.1836H115.041V99.7346H117.592V97.1836Z" fill="black"/>
<path d="M130.347 97.1836H127.796V99.7346H130.347V97.1836Z" fill="black"/>
<path d="M135.449 97.1836H132.898V99.7346H135.449V97.1836Z" fill="black"/>
<path d="M15.551 99.7349H13V102.286H15.551V99.7349Z" fill="black"/>
<path d="M20.6535 99.7349H18.1025V102.286H20.6535V99.7349Z" fill="black"/>
<path d="M23.2034 99.7349H20.6523V102.286H23.2034V99.7349Z" fill="black"/>
<path d="M28.3059 99.7349H25.7549V102.286H28.3059V99.7349Z" fill="black"/>
<path d="M30.8576 99.7349H28.3066V102.286H30.8576V99.7349Z" fill="black"/>
<path d="M35.9592 99.7349H33.4082V102.286H35.9592V99.7349Z" fill="black"/>
<path d="M38.51 99.7349H35.959V102.286H38.51V99.7349Z" fill="black"/>
<path d="M43.6116 99.7349H41.0605V102.286H43.6116V99.7349Z" fill="black"/>
<path d="M56.3674 99.7349H53.8164V102.286H56.3674V99.7349Z" fill="black"/>
<path d="M61.4699 99.7349H58.9189V102.286H61.4699V99.7349Z" fill="black"/>
<path d="M64.0199 99.7349H61.4688V102.286H64.0199V99.7349Z" fill="black"/>
<path d="M66.5715 99.7349H64.0205V102.286H66.5715V99.7349Z" fill="black"/>
<path d="M69.1223 99.7349H66.5713V102.286H69.1223V99.7349Z" fill="black"/>
<path d="M74.224 99.7349H71.6729V102.286H74.224V99.7349Z" fill="black"/>
<path d="M76.7756 99.7349H74.2246V102.286H76.7756V99.7349Z" fill="black"/>
<path d="M84.428 99.7349H81.877V102.286H84.428V99.7349Z" fill="black"/>
<path d="M86.9797 99.7349H84.4287V102.286H86.9797V99.7349Z" fill="black"/>
<path d="M89.5305 99.7349H86.9795V102.286H89.5305V99.7349Z" fill="black"/>
<path d="M92.0823 99.7349H89.5312V102.286H92.0823V99.7349Z" fill="black"/>
<path d="M94.6322 99.7349H92.0811V102.286H94.6322V99.7349Z" fill="black"/>
<path d="M107.388 99.7349H104.837V102.286H107.388V99.7349Z" fill="black"/>
<path d="M109.939 99.7349H107.388V102.286H109.939V99.7349Z" fill="black"/>
<path d="M117.592 99.7349H115.041V102.286H117.592V99.7349Z" fill="black"/>
<path d="M122.694 99.7349H120.143V102.286H122.694V99.7349Z" fill="black"/>
<path d="M125.245 99.7349H122.694V102.286H125.245V99.7349Z" fill="black"/>
<path d="M130.347 99.7349H127.796V102.286H130.347V99.7349Z" fill="black"/>
<path d="M132.898 99.7349H130.347V102.286H132.898V99.7349Z" fill="black"/>
<path d="M135.449 99.7349H132.898V102.286H135.449V99.7349Z" fill="black"/>
<path d="M23.2034 102.286H20.6523V104.837H23.2034V102.286Z" fill="black"/>
<path d="M25.7551 102.286H23.2041V104.837H25.7551V102.286Z" fill="black"/>
<path d="M28.3059 102.286H25.7549V104.837H28.3059V102.286Z" fill="black"/>
<path d="M33.4075 102.286H30.8564V104.837H33.4075V102.286Z" fill="black"/>
<path d="M35.9592 102.286H33.4082V104.837H35.9592V102.286Z" fill="black"/>
<path d="M41.0617 102.286H38.5107V104.837H41.0617V102.286Z" fill="black"/>
<path d="M46.1633 102.286H43.6123V104.837H46.1633V102.286Z" fill="black"/>
<path d="M51.2658 102.286H48.7148V104.837H51.2658V102.286Z" fill="black"/>
<path d="M58.9182 102.286H56.3672V104.837H58.9182V102.286Z" fill="black"/>
<path d="M64.0199 102.286H61.4688V104.837H64.0199V102.286Z" fill="black"/>
<path d="M69.1223 102.286H66.5713V104.837H69.1223V102.286Z" fill="black"/>
<path d="M71.674 102.286H69.123V104.837H71.674V102.286Z" fill="black"/>
<path d="M76.7756 102.286H74.2246V104.837H76.7756V102.286Z" fill="black"/>
<path d="M84.428 102.286H81.877V104.837H84.428V102.286Z" fill="black"/>
<path d="M86.9797 102.286H84.4287V104.837H86.9797V102.286Z" fill="black"/>
<path d="M89.5305 102.286H86.9795V104.837H89.5305V102.286Z" fill="black"/>
<path d="M92.0823 102.286H89.5312V104.837H92.0823V102.286Z" fill="black"/>
<path d="M99.7346 102.286H97.1836V104.837H99.7346V102.286Z" fill="black"/>
<path d="M109.939 102.286H107.388V104.837H109.939V102.286Z" fill="black"/>
<path d="M117.592 102.286H115.041V104.837H117.592V102.286Z" fill="black"/>
<path d="M122.694 102.286H120.143V104.837H122.694V102.286Z" fill="black"/>
<path d="M125.245 102.286H122.694V104.837H125.245V102.286Z" fill="black"/>
<path d="M135.449 102.286H132.898V104.837H135.449V102.286Z" fill="black"/>
<path d="M138 102.286H135.449V104.837H138V102.286Z" fill="black"/>
<path d="M18.1018 104.837H15.5508V107.388H18.1018V104.837Z" fill="black"/>
<path d="M20.6535 104.837H18.1025V107.388H20.6535V104.837Z" fill="black"/>
<path d="M28.3059 104.837H25.7549V107.388H28.3059V104.837Z" fill="black"/>
<path d="M30.8576 104.837H28.3066V107.388H30.8576V104.837Z" fill="black"/>
<path d="M41.0617 104.837H38.5107V107.388H41.0617V104.837Z" fill="black"/>
<path d="M43.6116 104.837H41.0605V107.388H43.6116V104.837Z" fill="black"/>
<path d="M51.2658 104.837H48.7148V107.388H51.2658V104.837Z" fill="black"/>
<path d="M58.9182 104.837H56.3672V107.388H58.9182V104.837Z" fill="black"/>
<path d="M61.4699 104.837H58.9189V107.388H61.4699V104.837Z" fill="black"/>
<path d="M74.224 104.837H71.6729V107.388H74.224V104.837Z" fill="black"/>
<path d="M76.7756 104.837H74.2246V107.388H76.7756V104.837Z" fill="black"/>
<path d="M79.3264 104.837H76.7754V107.388H79.3264V104.837Z" fill="black"/>
<path d="M81.8782 104.837H79.3271V107.388H81.8782V104.837Z" fill="black"/>
<path d="M84.428 104.837H81.877V107.388H84.428V104.837Z" fill="black"/>
<path d="M99.7346 104.837H97.1836V107.388H99.7346V104.837Z" fill="black"/>
<path d="M102.286 104.837H99.7354V107.388H102.286V104.837Z" fill="black"/>
<path d="M109.939 104.837H107.388V107.388H109.939V104.837Z" fill="black"/>
<path d="M112.49 104.837H109.939V107.388H112.49V104.837Z" fill="black"/>
<path d="M115.041 104.837H112.49V107.388H115.041V104.837Z" fill="black"/>
<path d="M122.694 104.837H120.143V107.388H122.694V104.837Z" fill="black"/>
<path d="M127.796 104.837H125.245V107.388H127.796V104.837Z" fill="black"/>
<path d="M135.449 104.837H132.898V107.388H135.449V104.837Z" fill="black"/>
<path d="M138 104.837H135.449V107.388H138V104.837Z" fill="black"/>
<path d="M18.1018 107.388H15.5508V109.939H18.1018V107.388Z" fill="black"/>
<path d="M23.2034 107.388H20.6523V109.939H23.2034V107.388Z" fill="black"/>
<path d="M33.4075 107.388H30.8564V109.939H33.4075V107.388Z" fill="black"/>
<path d="M43.6116 107.388H41.0605V109.939H43.6116V107.388Z" fill="black"/>
<path d="M46.1633 107.388H43.6123V109.939H46.1633V107.388Z" fill="black"/>
<path d="M56.3674 107.388H53.8164V109.939H56.3674V107.388Z" fill="black"/>
<path d="M66.5715 107.388H64.0205V109.939H66.5715V107.388Z" fill="black"/>
<path d="M71.674 107.388H69.123V109.939H71.674V107.388Z" fill="black"/>
<path d="M76.7756 107.388H74.2246V109.939H76.7756V107.388Z" fill="black"/>
<path d="M86.9797 107.388H84.4287V109.939H86.9797V107.388Z" fill="black"/>
<path d="M94.6322 107.388H92.0811V109.939H94.6322V107.388Z" fill="black"/>
<path d="M97.1838 107.388H94.6328V109.939H97.1838V107.388Z" fill="black"/>
<path d="M99.7346 107.388H97.1836V109.939H99.7346V107.388Z" fill="black"/>
<path d="M102.286 107.388H99.7354V109.939H102.286V107.388Z" fill="black"/>
<path d="M107.388 107.388H104.837V109.939H107.388V107.388Z" fill="black"/>
<path d="M115.041 107.388H112.49V109.939H115.041V107.388Z" fill="black"/>
<path d="M117.592 107.388H115.041V109.939H117.592V107.388Z" fill="black"/>
<path d="M120.143 107.388H117.592V109.939H120.143V107.388Z" fill="black"/>
<path d="M122.694 107.388H120.143V109.939H122.694V107.388Z" fill="black"/>
<path d="M125.245 107.388H122.694V109.939H125.245V107.388Z" fill="black"/>
<path d="M127.796 107.388H125.245V109.939H127.796V107.388Z" fill="black"/>
<path d="M138 107.388H135.449V109.939H138V107.388Z" fill="black"/>
<path d="M18.1018 109.939H15.5508V112.49H18.1018V109.939Z" fill="black"/>
<path d="M28.3059 109.939H25.7549V112.49H28.3059V109.939Z" fill="black"/>
<path d="M30.8576 109.939H28.3066V112.49H30.8576V109.939Z" fill="black"/>
<path d="M38.51 109.939H35.959V112.49H38.51V109.939Z" fill="black"/>
<path d="M41.0617 109.939H38.5107V112.49H41.0617V109.939Z" fill="black"/>
<path d="M43.6116 109.939H41.0605V112.49H43.6116V109.939Z" fill="black"/>
<path d="M48.7141 109.939H46.1631V112.49H48.7141V109.939Z" fill="black"/>
<path d="M51.2658 109.939H48.7148V112.49H51.2658V109.939Z" fill="black"/>
<path d="M58.9182 109.939H56.3672V112.49H58.9182V109.939Z" fill="black"/>
<path d="M61.4699 109.939H58.9189V112.49H61.4699V109.939Z" fill="black"/>
<path d="M64.0199 109.939H61.4688V112.49H64.0199V109.939Z" fill="black"/>
<path d="M66.5715 109.939H64.0205V112.49H66.5715V109.939Z" fill="black"/>
<path d="M74.224 109.939H71.6729V112.49H74.224V109.939Z" fill="black"/>
<path d="M76.7756 109.939H74.2246V112.49H76.7756V109.939Z" fill="black"/>
<path d="M79.3264 109.939H76.7754V112.49H79.3264V109.939Z" fill="black"/>
<path d="M81.8782 109.939H79.3271V112.49H81.8782V109.939Z" fill="black"/>
<path d="M84.428 109.939H81.877V112.49H84.428V109.939Z" fill="black"/>
<path d="M92.0823 109.939H89.5312V112.49H92.0823V109.939Z" fill="black"/>
<path d="M94.6322 109.939H92.0811V112.49H94.6322V109.939Z" fill="black"/>
<path d="M102.286 109.939H99.7354V112.49H102.286V109.939Z" fill="black"/>
<path d="M117.592 109.939H115.041V112.49H117.592V109.939Z" fill="black"/>
<path d="M120.143 109.939H117.592V112.49H120.143V109.939Z" fill="black"/>
<path d="M122.694 109.939H120.143V112.49H122.694V109.939Z" fill="black"/>
<path d="M127.796 109.939H125.245V112.49H127.796V109.939Z" fill="black"/>
<path d="M130.347 109.939H127.796V112.49H130.347V109.939Z" fill="black"/>
<path d="M132.898 109.939H130.347V112.49H132.898V109.939Z" fill="black"/>
<path d="M18.1018 112.49H15.5508V115.041H18.1018V112.49Z" fill="black"/>
<path d="M20.6535 112.49H18.1025V115.041H20.6535V112.49Z" fill="black"/>
<path d="M23.2034 112.49H20.6523V115.041H23.2034V112.49Z" fill="black"/>
<path d="M35.9592 112.49H33.4082V115.041H35.9592V112.49Z" fill="black"/>
<path d="M38.51 112.49H35.959V115.041H38.51V112.49Z" fill="black"/>
<path d="M43.6116 112.49H41.0605V115.041H43.6116V112.49Z" fill="black"/>
<path d="M46.1633 112.49H43.6123V115.041H46.1633V112.49Z" fill="black"/>
<path d="M51.2658 112.49H48.7148V115.041H51.2658V112.49Z" fill="black"/>
<path d="M53.8158 112.49H51.2646V115.041H53.8158V112.49Z" fill="black"/>
<path d="M56.3674 112.49H53.8164V115.041H56.3674V112.49Z" fill="black"/>
<path d="M64.0199 112.49H61.4688V115.041H64.0199V112.49Z" fill="black"/>
<path d="M66.5715 112.49H64.0205V115.041H66.5715V112.49Z" fill="black"/>
<path d="M79.3264 112.49H76.7754V115.041H79.3264V112.49Z" fill="black"/>
<path d="M86.9797 112.49H84.4287V115.041H86.9797V112.49Z" fill="black"/>
<path d="M89.5305 112.49H86.9795V115.041H89.5305V112.49Z" fill="black"/>
<path d="M92.0823 112.49H89.5312V115.041H92.0823V112.49Z" fill="black"/>
<path d="M94.6322 112.49H92.0811V115.041H94.6322V112.49Z" fill="black"/>
<path d="M99.7346 112.49H97.1836V115.041H99.7346V112.49Z" fill="black"/>
<path d="M104.837 112.49H102.286V115.041H104.837V112.49Z" fill="black"/>
<path d="M115.041 112.49H112.49V115.041H115.041V112.49Z" fill="black"/>
<path d="M120.143 112.49H117.592V115.041H120.143V112.49Z" fill="black"/>
<path d="M125.245 112.49H122.694V115.041H125.245V112.49Z" fill="black"/>
<path d="M130.347 112.49H127.796V115.041H130.347V112.49Z" fill="black"/>
<path d="M15.551 115.041H13V117.592H15.551V115.041Z" fill="black"/>
<path d="M18.1018 115.041H15.5508V117.592H18.1018V115.041Z" fill="black"/>
<path d="M20.6535 115.041H18.1025V117.592H20.6535V115.041Z" fill="black"/>
<path d="M30.8576 115.041H28.3066V117.592H30.8576V115.041Z" fill="black"/>
<path d="M41.0617 115.041H38.5107V117.592H41.0617V115.041Z" fill="black"/>
<path d="M43.6116 115.041H41.0605V117.592H43.6116V115.041Z" fill="black"/>
<path d="M48.7141 115.041H46.1631V117.592H48.7141V115.041Z" fill="black"/>
<path d="M51.2658 115.041H48.7148V117.592H51.2658V115.041Z" fill="black"/>
<path d="M53.8158 115.041H51.2646V117.592H53.8158V115.041Z" fill="black"/>
<path d="M58.9182 115.041H56.3672V117.592H58.9182V115.041Z" fill="black"/>
<path d="M61.4699 115.041H58.9189V117.592H61.4699V115.041Z" fill="black"/>
<path d="M64.0199 115.041H61.4688V117.592H64.0199V115.041Z" fill="black"/>
<path d="M71.674 115.041H69.123V117.592H71.674V115.041Z" fill="black"/>
<path d="M74.224 115.041H71.6729V117.592H74.224V115.041Z" fill="black"/>
<path d="M76.7756 115.041H74.2246V117.592H76.7756V115.041Z" fill="black"/>
<path d="M79.3264 115.041H76.7754V117.592H79.3264V115.041Z" fill="black"/>
<path d="M81.8782 115.041H79.3271V117.592H81.8782V115.041Z" fill="black"/>
<path d="M86.9797 115.041H84.4287V117.592H86.9797V115.041Z" fill="black"/>
<path d="M99.7346 115.041H97.1836V117.592H99.7346V115.041Z" fill="black"/>
<path d="M109.939 115.041H107.388V117.592H109.939V115.041Z" fill="black"/>
<path d="M112.49 115.041H109.939V117.592H112.49V115.041Z" fill="black"/>
<path d="M117.592 115.041H115.041V117.592H117.592V115.041Z" fill="black"/>
<path d="M120.143 115.041H117.592V117.592H120.143V115.041Z" fill="black"/>
<path d="M122.694 115.041H120.143V117.592H122.694V115.041Z" fill="black"/>
<path d="M125.245 115.041H122.694V117.592H125.245V115.041Z" fill="black"/>
<path d="M127.796 115.041H125.245V117.592H127.796V115.041Z" fill="black"/>
<path d="M130.347 115.041H127.796V117.592H130.347V115.041Z" fill="black"/>
<path d="M35.9592 117.592H33.4082V120.143H35.9592V117.592Z" fill="black"/>
<path d="M43.6116 117.592H41.0605V120.143H43.6116V117.592Z" fill="black"/>
<path d="M46.1633 117.592H43.6123V120.143H46.1633V117.592Z" fill="black"/>
<path d="M51.2658 117.592H48.7148V120.143H51.2658V117.592Z" fill="black"/>
<path d="M56.3674 117.592H53.8164V120.143H56.3674V117.592Z" fill="black"/>
<path d="M58.9182 117.592H56.3672V120.143H58.9182V117.592Z" fill="black"/>
<path d="M61.4699 117.592H58.9189V120.143H61.4699V117.592Z" fill="black"/>
<path d="M64.0199 117.592H61.4688V120.143H64.0199V117.592Z" fill="black"/>
<path d="M69.1223 117.592H66.5713V120.143H69.1223V117.592Z" fill="black"/>
<path d="M71.674 117.592H69.123V120.143H71.674V117.592Z" fill="black"/>
<path d="M81.8782 117.592H79.3271V120.143H81.8782V117.592Z" fill="black"/>
<path d="M86.9797 117.592H84.4287V120.143H86.9797V117.592Z" fill="black"/>
<path d="M92.0823 117.592H89.5312V120.143H92.0823V117.592Z" fill="black"/>
<path d="M97.1838 117.592H94.6328V120.143H97.1838V117.592Z" fill="black"/>
<path d="M102.286 117.592H99.7354V120.143H102.286V117.592Z" fill="black"/>
<path d="M104.837 117.592H102.286V120.143H104.837V117.592Z" fill="black"/>
<path d="M107.388 117.592H104.837V120.143H107.388V117.592Z" fill="black"/>
<path d="M109.939 117.592H107.388V120.143H109.939V117.592Z" fill="black"/>
<path d="M115.041 117.592H112.49V120.143H115.041V117.592Z" fill="black"/>
<path d="M117.592 117.592H115.041V120.143H117.592V117.592Z" fill="black"/>
<path d="M127.796 117.592H125.245V120.143H127.796V117.592Z" fill="black"/>
<path d="M130.347 117.592H127.796V120.143H130.347V117.592Z" fill="black"/>
<path d="M132.898 117.592H130.347V120.143H132.898V117.592Z" fill="black"/>
<path d="M135.449 117.592H132.898V120.143H135.449V117.592Z" fill="black"/>
<path d="M15.551 120.143H13V122.694H15.551V120.143Z" fill="black"/>
<path d="M18.1018 120.143H15.5508V122.694H18.1018V120.143Z" fill="black"/>
<path d="M20.6535 120.143H18.1025V122.694H20.6535V120.143Z" fill="black"/>
<path d="M23.2034 120.143H20.6523V122.694H23.2034V120.143Z" fill="black"/>
<path d="M25.7551 120.143H23.2041V122.694H25.7551V120.143Z" fill="black"/>
<path d="M28.3059 120.143H25.7549V122.694H28.3059V120.143Z" fill="black"/>
<path d="M30.8576 120.143H28.3066V122.694H30.8576V120.143Z" fill="black"/>
<path d="M35.9592 120.143H33.4082V122.694H35.9592V120.143Z" fill="black"/>
<path d="M38.51 120.143H35.959V122.694H38.51V120.143Z" fill="black"/>
<path d="M46.1633 120.143H43.6123V122.694H46.1633V120.143Z" fill="black"/>
<path d="M48.7141 120.143H46.1631V122.694H48.7141V120.143Z" fill="black"/>
<path d="M56.3674 120.143H53.8164V122.694H56.3674V120.143Z" fill="black"/>
<path d="M61.4699 120.143H58.9189V122.694H61.4699V120.143Z" fill="black"/>
<path d="M64.0199 120.143H61.4688V122.694H64.0199V120.143Z" fill="black"/>
<path d="M69.1223 120.143H66.5713V122.694H69.1223V120.143Z" fill="black"/>
<path d="M71.674 120.143H69.123V122.694H71.674V120.143Z" fill="black"/>
<path d="M76.7756 120.143H74.2246V122.694H76.7756V120.143Z" fill="black"/>
<path d="M81.8782 120.143H79.3271V122.694H81.8782V120.143Z" fill="black"/>
<path d="M84.428 120.143H81.877V122.694H84.428V120.143Z" fill="black"/>
<path d="M89.5305 120.143H86.9795V122.694H89.5305V120.143Z" fill="black"/>
<path d="M107.388 120.143H104.837V122.694H107.388V120.143Z" fill="black"/>
<path d="M109.939 120.143H107.388V122.694H109.939V120.143Z" fill="black"/>
<path d="M117.592 120.143H115.041V122.694H117.592V120.143Z" fill="black"/>
<path d="M122.694 120.143H120.143V122.694H122.694V120.143Z" fill="black"/>
<path d="M127.796 120.143H125.245V122.694H127.796V120.143Z" fill="black"/>
<path d="M130.347 120.143H127.796V122.694H130.347V120.143Z" fill="black"/>
<path d="M132.898 120.143H130.347V122.694H132.898V120.143Z" fill="black"/>
<path d="M15.551 122.694H13V125.245H15.551V122.694Z" fill="black"/>
<path d="M30.8576 122.694H28.3066V125.245H30.8576V122.694Z" fill="black"/>
<path d="M48.7141 122.694H46.1631V125.245H48.7141V122.694Z" fill="black"/>
<path d="M51.2658 122.694H48.7148V125.245H51.2658V122.694Z" fill="black"/>
<path d="M53.8158 122.694H51.2646V125.245H53.8158V122.694Z" fill="black"/>
<path d="M56.3674 122.694H53.8164V125.245H56.3674V122.694Z" fill="black"/>
<path d="M58.9182 122.694H56.3672V125.245H58.9182V122.694Z" fill="black"/>
<path d="M61.4699 122.694H58.9189V125.245H61.4699V122.694Z" fill="black"/>
<path d="M64.0199 122.694H61.4688V125.245H64.0199V122.694Z" fill="black"/>
<path d="M69.1223 122.694H66.5713V125.245H69.1223V122.694Z" fill="black"/>
<path d="M71.674 122.694H69.123V125.245H71.674V122.694Z" fill="black"/>
<path d="M81.8782 122.694H79.3271V125.245H81.8782V122.694Z" fill="black"/>
<path d="M89.5305 122.694H86.9795V125.245H89.5305V122.694Z" fill="black"/>
<path d="M92.0823 122.694H89.5312V125.245H92.0823V122.694Z" fill="black"/>
<path d="M94.6322 122.694H92.0811V125.245H94.6322V122.694Z" fill="black"/>
<path d="M99.7346 122.694H97.1836V125.245H99.7346V122.694Z" fill="black"/>
<path d="M104.837 122.694H102.286V125.245H104.837V122.694Z" fill="black"/>
<path d="M107.388 122.694H104.837V125.245H107.388V122.694Z" fill="black"/>
<path d="M112.49 122.694H109.939V125.245H112.49V122.694Z" fill="black"/>
<path d="M115.041 122.694H112.49V125.245H115.041V122.694Z" fill="black"/>
<path d="M117.592 122.694H115.041V125.245H117.592V122.694Z" fill="black"/>
<path d="M127.796 122.694H125.245V125.245H127.796V122.694Z" fill="black"/>
<path d="M132.898 122.694H130.347V125.245H132.898V122.694Z" fill="black"/>
<path d="M135.449 122.694H132.898V125.245H135.449V122.694Z" fill="black"/>
<path d="M138 122.694H135.449V125.245H138V122.694Z" fill="black"/>
<path d="M15.551 125.245H13V127.796H15.551V125.245Z" fill="black"/>
<path d="M20.6535 125.245H18.1025V127.796H20.6535V125.245Z" fill="black"/>
<path d="M23.2034 125.245H20.6523V127.796H23.2034V125.245Z" fill="black"/>
<path d="M25.7551 125.245H23.2041V127.796H25.7551V125.245Z" fill="black"/>
<path d="M30.8576 125.245H28.3066V127.796H30.8576V125.245Z" fill="black"/>
<path d="M38.51 125.245H35.959V127.796H38.51V125.245Z" fill="black"/>
<path d="M41.0617 125.245H38.5107V127.796H41.0617V125.245Z" fill="black"/>
<path d="M43.6116 125.245H41.0605V127.796H43.6116V125.245Z" fill="black"/>
<path d="M48.7141 125.245H46.1631V127.796H48.7141V125.245Z" fill="black"/>
<path d="M53.8158 125.245H51.2646V127.796H53.8158V125.245Z" fill="black"/>
<path d="M58.9182 125.245H56.3672V127.796H58.9182V125.245Z" fill="black"/>
<path d="M61.4699 125.245H58.9189V127.796H61.4699V125.245Z" fill="black"/>
<path d="M66.5715 125.245H64.0205V127.796H66.5715V125.245Z" fill="black"/>
<path d="M71.674 125.245H69.123V127.796H71.674V125.245Z" fill="black"/>
<path d="M74.224 125.245H71.6729V127.796H74.224V125.245Z" fill="black"/>
<path d="M76.7756 125.245H74.2246V127.796H76.7756V125.245Z" fill="black"/>
<path d="M79.3264 125.245H76.7754V127.796H79.3264V125.245Z" fill="black"/>
<path d="M81.8782 125.245H79.3271V127.796H81.8782V125.245Z" fill="black"/>
<path d="M89.5305 125.245H86.9795V127.796H89.5305V125.245Z" fill="black"/>
<path d="M92.0823 125.245H89.5312V127.796H92.0823V125.245Z" fill="black"/>
<path d="M97.1838 125.245H94.6328V127.796H97.1838V125.245Z" fill="black"/>
<path d="M104.837 125.245H102.286V127.796H104.837V125.245Z" fill="black"/>
<path d="M107.388 125.245H104.837V127.796H107.388V125.245Z" fill="black"/>
<path d="M109.939 125.245H107.388V127.796H109.939V125.245Z" fill="black"/>
<path d="M112.49 125.245H109.939V127.796H112.49V125.245Z" fill="black"/>
<path d="M117.592 125.245H115.041V127.796H117.592V125.245Z" fill="black"/>
<path d="M120.143 125.245H117.592V127.796H120.143V125.245Z" fill="black"/>
<path d="M122.694 125.245H120.143V127.796H122.694V125.245Z" fill="black"/>
<path d="M125.245 125.245H122.694V127.796H125.245V125.245Z" fill="black"/>
<path d="M127.796 125.245H125.245V127.796H127.796V125.245Z" fill="black"/>
<path d="M132.898 125.245H130.347V127.796H132.898V125.245Z" fill="black"/>
<path d="M135.449 125.245H132.898V127.796H135.449V125.245Z" fill="black"/>
<path d="M15.551 127.796H13V130.347H15.551V127.796Z" fill="black"/>
<path d="M20.6535 127.796H18.1025V130.347H20.6535V127.796Z" fill="black"/>
<path d="M23.2034 127.796H20.6523V130.347H23.2034V127.796Z" fill="black"/>
<path d="M25.7551 127.796H23.2041V130.347H25.7551V127.796Z" fill="black"/>
<path d="M30.8576 127.796H28.3066V130.347H30.8576V127.796Z" fill="black"/>
<path d="M35.9592 127.796H33.4082V130.347H35.9592V127.796Z" fill="black"/>
<path d="M43.6116 127.796H41.0605V130.347H43.6116V127.796Z" fill="black"/>
<path d="M48.7141 127.796H46.1631V130.347H48.7141V127.796Z" fill="black"/>
<path d="M61.4699 127.796H58.9189V130.347H61.4699V127.796Z" fill="black"/>
<path d="M69.1223 127.796H66.5713V130.347H69.1223V127.796Z" fill="black"/>
<path d="M74.224 127.796H71.6729V130.347H74.224V127.796Z" fill="black"/>
<path d="M76.7756 127.796H74.2246V130.347H76.7756V127.796Z" fill="black"/>
<path d="M79.3264 127.796H76.7754V130.347H79.3264V127.796Z" fill="black"/>
<path d="M84.428 127.796H81.877V130.347H84.428V127.796Z" fill="black"/>
<path d="M86.9797 127.796H84.4287V130.347H86.9797V127.796Z" fill="black"/>
<path d="M92.0823 127.796H89.5312V130.347H92.0823V127.796Z" fill="black"/>
<path d="M97.1838 127.796H94.6328V130.347H97.1838V127.796Z" fill="black"/>
<path d="M109.939 127.796H107.388V130.347H109.939V127.796Z" fill="black"/>
<path d="M112.49 127.796H109.939V130.347H112.49V127.796Z" fill="black"/>
<path d="M115.041 127.796H112.49V130.347H115.041V127.796Z" fill="black"/>
<path d="M122.694 127.796H120.143V130.347H122.694V127.796Z" fill="black"/>
<path d="M125.245 127.796H122.694V130.347H125.245V127.796Z" fill="black"/>
<path d="M135.449 127.796H132.898V130.347H135.449V127.796Z" fill="black"/>
<path d="M138 127.796H135.449V130.347H138V127.796Z" fill="black"/>
<path d="M15.551 130.347H13V132.898H15.551V130.347Z" fill="black"/>
<path d="M20.6535 130.347H18.1025V132.898H20.6535V130.347Z" fill="black"/>
<path d="M23.2034 130.347H20.6523V132.898H23.2034V130.347Z" fill="black"/>
<path d="M25.7551 130.347H23.2041V132.898H25.7551V130.347Z" fill="black"/>
<path d="M30.8576 130.347H28.3066V132.898H30.8576V130.347Z" fill="black"/>
<path d="M35.9592 130.347H33.4082V132.898H35.9592V130.347Z" fill="black"/>
<path d="M38.51 130.347H35.959V132.898H38.51V130.347Z" fill="black"/>
<path d="M53.8158 130.347H51.2646V132.898H53.8158V130.347Z" fill="black"/>
<path d="M56.3674 130.347H53.8164V132.898H56.3674V130.347Z" fill="black"/>
<path d="M69.1223 130.347H66.5713V132.898H69.1223V130.347Z" fill="black"/>
<path d="M71.674 130.347H69.123V132.898H71.674V130.347Z" fill="black"/>
<path d="M74.224 130.347H71.6729V132.898H74.224V130.347Z" fill="black"/>
<path d="M79.3264 130.347H76.7754V132.898H79.3264V130.347Z" fill="black"/>
<path d="M81.8782 130.347H79.3271V132.898H81.8782V130.347Z" fill="black"/>
<path d="M86.9797 130.347H84.4287V132.898H86.9797V130.347Z" fill="black"/>
<path d="M97.1838 130.347H94.6328V132.898H97.1838V130.347Z" fill="black"/>
<path d="M104.837 130.347H102.286V132.898H104.837V130.347Z" fill="black"/>
<path d="M109.939 130.347H107.388V132.898H109.939V130.347Z" fill="black"/>
<path d="M115.041 130.347H112.49V132.898H115.041V130.347Z" fill="black"/>
<path d="M117.592 130.347H115.041V132.898H117.592V130.347Z" fill="black"/>
<path d="M122.694 130.347H120.143V132.898H122.694V130.347Z" fill="black"/>
<path d="M132.898 130.347H130.347V132.898H132.898V130.347Z" fill="black"/>
<path d="M135.449 130.347H132.898V132.898H135.449V130.347Z" fill="black"/>
<path d="M15.551 132.898H13V135.449H15.551V132.898Z" fill="black"/>
<path d="M30.8576 132.898H28.3066V135.449H30.8576V132.898Z" fill="black"/>
<path d="M48.7141 132.898H46.1631V135.449H48.7141V132.898Z" fill="black"/>
<path d="M51.2658 132.898H48.7148V135.449H51.2658V132.898Z" fill="black"/>
<path d="M56.3674 132.898H53.8164V135.449H56.3674V132.898Z" fill="black"/>
<path d="M61.4699 132.898H58.9189V135.449H61.4699V132.898Z" fill="black"/>
<path d="M64.0199 132.898H61.4688V135.449H64.0199V132.898Z" fill="black"/>
<path d="M66.5715 132.898H64.0205V135.449H66.5715V132.898Z" fill="black"/>
<path d="M71.674 132.898H69.123V135.449H71.674V132.898Z" fill="black"/>
<path d="M74.224 132.898H71.6729V135.449H74.224V132.898Z" fill="black"/>
<path d="M81.8782 132.898H79.3271V135.449H81.8782V132.898Z" fill="black"/>
<path d="M89.5305 132.898H86.9795V135.449H89.5305V132.898Z" fill="black"/>
<path d="M99.7346 132.898H97.1836V135.449H99.7346V132.898Z" fill="black"/>
<path d="M102.286 132.898H99.7354V135.449H102.286V132.898Z" fill="black"/>
<path d="M104.837 132.898H102.286V135.449H104.837V132.898Z" fill="black"/>
<path d="M122.694 132.898H120.143V135.449H122.694V132.898Z" fill="black"/>
<path d="M127.796 132.898H125.245V135.449H127.796V132.898Z" fill="black"/>
<path d="M132.898 132.898H130.347V135.449H132.898V132.898Z" fill="black"/>
<path d="M135.449 132.898H132.898V135.449H135.449V132.898Z" fill="black"/>
<path d="M138 132.898H135.449V135.449H138V132.898Z" fill="black"/>
<path d="M15.551 135.449H13V138H15.551V135.449Z" fill="black"/>
<path d="M18.1018 135.449H15.5508V138H18.1018V135.449Z" fill="black"/>
<path d="M20.6535 135.449H18.1025V138H20.6535V135.449Z" fill="black"/>
<path d="M23.2034 135.449H20.6523V138H23.2034V135.449Z" fill="black"/>
<path d="M25.7551 135.449H23.2041V138H25.7551V135.449Z" fill="black"/>
<path d="M28.3059 135.449H25.7549V138H28.3059V135.449Z" fill="black"/>
<path d="M30.8576 135.449H28.3066V138H30.8576V135.449Z" fill="black"/>
<path d="M41.0617 135.449H38.5107V138H41.0617V135.449Z" fill="black"/>
<path d="M43.6116 135.449H41.0605V138H43.6116V135.449Z" fill="black"/>
<path d="M46.1633 135.449H43.6123V138H46.1633V135.449Z" fill="black"/>
<path d="M51.2658 135.449H48.7148V138H51.2658V135.449Z" fill="black"/>
<path d="M61.4699 135.449H58.9189V138H61.4699V135.449Z" fill="black"/>
<path d="M71.674 135.449H69.123V138H71.674V135.449Z" fill="black"/>
<path d="M76.7756 135.449H74.2246V138H76.7756V135.449Z" fill="black"/>
<path d="M86.9797 135.449H84.4287V138H86.9797V135.449Z" fill="black"/>
<path d="M89.5305 135.449H86.9795V138H89.5305V135.449Z" fill="black"/>
<path d="M92.0823 135.449H89.5312V138H92.0823V135.449Z" fill="black"/>
<path d="M97.1838 135.449H94.6328V138H97.1838V135.449Z" fill="black"/>
<path d="M99.7346 135.449H97.1836V138H99.7346V135.449Z" fill="black"/>
<path d="M102.286 135.449H99.7354V138H102.286V135.449Z" fill="black"/>
<path d="M104.837 135.449H102.286V138H104.837V135.449Z" fill="black"/>
<path d="M112.49 135.449H109.939V138H112.49V135.449Z" fill="black"/>
<path d="M117.592 135.449H115.041V138H117.592V135.449Z" fill="black"/>
<path d="M120.143 135.449H117.592V138H120.143V135.449Z" fill="black"/>
<path d="M122.694 135.449H120.143V138H122.694V135.449Z" fill="black"/>
<path d="M125.245 135.449H122.694V138H125.245V135.449Z" fill="black"/>
<path d="M132.898 135.449H130.347V138H132.898V135.449Z" fill="black"/>
<path d="M135.449 135.449H132.898V138H135.449V135.449Z" fill="black"/>
<path d="M138 135.449H135.449V138H138V135.449Z" fill="black"/>
</g>
</g>
</g>
<defs>
<clipPath id="clip0_10413_22213">
<rect width="150" height="150" fill="white"/>
</clipPath>
</defs>
</svg>
