<?xml version="1.0" encoding="utf-8"?>
<!-- Generator: Adobe Illustrator 25.4.1, SVG Export Plug-In . SVG Version: 6.00 Build 0)  -->
<svg version="1.1" id="Слой_1" xmlns="http://www.w3.org/2000/svg" xmlns:xlink="http://www.w3.org/1999/xlink" x="0px" y="0px"
	 viewBox="0 0 400 400" style="enable-background:new 0 0 400 400;" xml:space="preserve">
<style type="text/css">
	.st0{fill:#044C4F;}
	.st1{fill:#F9FAF6;}
	.st2{fill:#F9FAF5;}
	.st3{fill:#F9F9F4;}
</style>
<g>
	<path class="st0" d="M259.9,121.6c0,8.2-0.1,16.3,0.1,24.5c0.1,2.9-1.1,4.7-3.6,5.9c-14.5,7-29.4,8.1-44.7,3.2
		c-6-1.9-7.4-4.3-6.8-11.5c0.3-3.8-0.7-5.3-4.6-5.8c-7.4-0.8-14.6-0.3-21.6,2.5c-2.6,1-4.1,2.3-3.9,5.4c0.3,7.5,0.2,15,0.2,22.5
		c0,2.4,1,4.1,2.3,5.9c18.2,25.3,36.5,50.5,54.6,75.8c2,2.8,3.1,2.7,5,0.1c6.7-9.1,13.6-18.1,20.3-27.2c3.5-4.8,6.7-4.9,10.1-0.1
		c21.9,30,43.8,60,65.7,90c1.8,2.5,3.1,5.2,0.2,7.5c-3.3,2.5-5.7,0-7.5-2.5c-12.5-17.2-24.9-34.6-37.5-51.8
		c-7.8-10.8-15.9-21.4-23.7-32.2c-2-2.8-2.9-2.5-4.8,0.1c-5.8,8-11.7,15.8-17.9,23.5c-2.2,2.7-2.5,4.8,0,7.3c1,1,1.9,2.4,2.5,3.7
		c0.8,2-0.1,3.7-1.8,4.7c-2.1,1.1-4.4,0.6-5.8-1.3c-2.6-3.4-5-7-7.5-10.6c-4.2-6-8.5-11.9-12.7-17.9c-1.2-1.7-2.4-3.2-4.7-3.3
		c-4.9-0.3-9.4-2.1-13.8-4.2c-4-2-7.2-1.3-10.4,1.7c-3.3,3.1-6.8,5.9-11.6,6.3c-5.7,0.5-10.6-1.5-14.5-5.4
		c-5.1-5.1-10.3-5.9-16.6-2.3c-4.4,2.4-9.1,4.1-14.2,4.4c-2.6,0.2-3.7,1.9-4.9,3.7c-15.3,21.8-30.5,43.7-45.8,65.5
		c-2,2.9-4,5.8-6.2,8.5c-1.6,2-3.4,4.7-6.5,2.2c-3-2.4-1.9-5-0.1-7.5c4.8-6.8,9.7-13.5,14.5-20.4c27.6-39.4,55.2-78.9,82.8-118.3
		c1.7-2.4,1.9-4.9,1.9-7.5c0.1-25,0.3-50,0.1-75c0-5.8,2.2-8.4,7.4-10c13-4.1,25.8-4.5,38.8-0.3c5.1,1.7,8.3,4.3,7.3,10
		c-0.8,4.7,1.6,6.1,5.7,6.5c9.4,1,18.2-0.6,26.8-4.4c6.2-2.8,7.7-1.8,7.7,5c0,7.7,0,15.3,0,23C260,121.6,260,121.6,259.9,121.6z"/>
	<path class="st1" d="M136.1,230.2c11.1-17.8,23.1-33.3,34.5-50.1c11.8,16.4,23.3,32.4,35.1,48.7c-3.3,0.3-5.7-1-8.1-2
		c-4.9-2-9.1-1.1-12.9,2.3c-1.6,1.4-3.3,2.8-5,4.1c-3.6,2.8-7.4,2.7-11.1,0.1c-1.7-1.3-3.4-2.7-5-4.1c-5.3-4.4-11-5.8-17.6-2.7
		C143.2,227.8,140.2,228.7,136.1,230.2z"/>
	<path class="st2" d="M174.9,132.9c0-13.9,0-27.2,0-40.5c0-2.2,1.5-2.7,3.2-3.2c10-3.1,19.9-3,30-0.2c2.2,0.6,3.4,1.6,3.4,4.1
		c0,12,0,23.9,0.1,35.9c0,1.3,0.1,3-2,2.3C197.9,127.8,186.5,128.5,174.9,132.9z"/>
	<path class="st3" d="M213.9,147c7.4-3.5,6-9.4,6-14.8c0.1-7.5,0.1-15,0-22.5c-0.1-2.9,0.8-3.7,3.7-3.3c8.2,1,16.3,0.2,24.2-2.2
		c2.9-0.9,3.8-0.3,3.7,2.8c-0.1,11.6,0,23.3,0.1,35c0,1.7,0.1,3.4-1.9,4.1C238.4,150.5,227,151,213.9,147z"/>
</g>
</svg>
