<?xml version="1.0" encoding="utf-8"?>
<!-- Generator: Adobe Illustrator 25.4.1, SVG Export Plug-In . SVG Version: 6.00 Build 0)  -->
<svg version="1.1" id="Слой_1" xmlns="http://www.w3.org/2000/svg" xmlns:xlink="http://www.w3.org/1999/xlink" x="0px" y="0px"
	 viewBox="0 0 400 400" style="enable-background:new 0 0 400 400;" xml:space="preserve">
<style type="text/css">
	.st0{display:none;}
	.st1{display:inline;fill:#044C4F;}
	.st2{display:inline;fill:#F9FAF6;}
	.st3{display:inline;fill:#F9FAF5;}
	.st4{display:inline;fill:#F9F9F4;}
	.st5{fill:#054D50;}
	.st6{fill:#F9FAF6;}
	.st7{fill:#F8F9F5;}
	.st8{fill:#F9F9F5;}
	.st9{fill:#E0ECE5;}
	.st10{fill:#DDF1EC;}
</style>
<g class="st0">
	<path class="st1" d="M259.9,121.6c0,8.2-0.1,16.3,0.1,24.5c0.1,2.9-1.1,4.7-3.6,5.9c-14.5,7-29.4,8.1-44.7,3.2
		c-6-1.9-7.4-4.3-6.8-11.5c0.3-3.8-0.7-5.3-4.6-5.8c-7.4-0.8-14.6-0.3-21.6,2.5c-2.6,1-4.1,2.3-3.9,5.4c0.3,7.5,0.2,15,0.2,22.5
		c0,2.4,1,4.1,2.3,5.9c18.2,25.3,36.5,50.5,54.6,75.8c2,2.8,3.1,2.7,5,0.1c6.7-9.1,13.6-18.1,20.3-27.2c3.5-4.8,6.7-4.9,10.1-0.1
		c21.9,30,43.8,60,65.7,90c1.8,2.5,3.1,5.2,0.2,7.5c-3.3,2.5-5.7,0-7.5-2.5c-12.5-17.2-24.9-34.6-37.5-51.8
		c-7.8-10.8-15.9-21.4-23.7-32.2c-2-2.8-2.9-2.5-4.8,0.1c-5.8,8-11.7,15.8-17.9,23.5c-2.2,2.7-2.5,4.8,0,7.3c1,1,1.9,2.4,2.5,3.7
		c0.8,2-0.1,3.7-1.8,4.7c-2.1,1.1-4.4,0.6-5.8-1.3c-2.6-3.4-5-7-7.5-10.6c-4.2-6-8.5-11.9-12.7-17.9c-1.2-1.7-2.4-3.2-4.7-3.3
		c-4.9-0.3-9.4-2.1-13.8-4.2c-4-2-7.2-1.3-10.4,1.7c-3.3,3.1-6.8,5.9-11.6,6.3c-5.7,0.5-10.6-1.5-14.5-5.4
		c-5.1-5.1-10.3-5.9-16.6-2.3c-4.4,2.4-9.1,4.1-14.2,4.4c-2.6,0.2-3.7,1.9-4.9,3.7c-15.3,21.8-30.5,43.7-45.8,65.5
		c-2,2.9-4,5.8-6.2,8.5c-1.6,2-3.4,4.7-6.5,2.2c-3-2.4-1.9-5-0.1-7.5c4.8-6.8,9.7-13.5,14.5-20.4c27.6-39.4,55.2-78.9,82.8-118.3
		c1.7-2.4,1.9-4.9,1.9-7.5c0.1-25,0.3-50,0.1-75c0-5.8,2.2-8.4,7.4-10c13-4.1,25.8-4.5,38.8-0.3c5.1,1.7,8.3,4.3,7.3,10
		c-0.8,4.7,1.6,6.1,5.7,6.5c9.4,1,18.2-0.6,26.8-4.4c6.2-2.8,7.7-1.8,7.7,5c0,7.7,0,15.3,0,23C260,121.6,260,121.6,259.9,121.6z"/>
	<path class="st2" d="M136.1,230.2c11.1-17.8,23.1-33.3,34.5-50.1c11.8,16.4,23.3,32.4,35.1,48.7c-3.3,0.3-5.7-1-8.1-2
		c-4.9-2-9.1-1.1-12.9,2.3c-1.6,1.4-3.3,2.8-5,4.1c-3.6,2.8-7.4,2.7-11.1,0.1c-1.7-1.3-3.4-2.7-5-4.1c-5.3-4.4-11-5.8-17.6-2.7
		C143.2,227.8,140.2,228.7,136.1,230.2z"/>
	<path class="st3" d="M174.9,132.9c0-13.9,0-27.2,0-40.5c0-2.2,1.5-2.7,3.2-3.2c10-3.1,19.9-3,30-0.2c2.2,0.6,3.4,1.6,3.4,4.1
		c0,12,0,23.9,0.1,35.9c0,1.3,0.1,3-2,2.3C197.9,127.8,186.5,128.5,174.9,132.9z"/>
	<path class="st4" d="M213.9,147c7.4-3.5,6-9.4,6-14.8c0.1-7.5,0.1-15,0-22.5c-0.1-2.9,0.8-3.7,3.7-3.3c8.2,1,16.3,0.2,24.2-2.2
		c2.9-0.9,3.8-0.3,3.7,2.8c-0.1,11.6,0,23.3,0.1,35c0,1.7,0.1,3.4-1.9,4.1C238.4,150.5,227,151,213.9,147z"/>
</g>
<g>
	<path class="st5" d="M240.8,294.3c-4.9,2.1-9.6,4.1-14.4,6.1c-6,2.6-12,4.9-18.4,6.2c-2.8,0.6-3.8,1.6-3.2,4.7
		c1.1,6.6,0.9,6.7,7.6,5.5c5.1-0.9,10.1-2.1,15.1-3.4c3.1-0.8,5.5-0.2,6.3,3c0.8,3.1-1.3,4.5-3.9,5.3c-20.2,6-40.3,6.2-60.5,0.1
		c-2.9-0.9-4.9-2.3-3.9-5.7c1-3.5,3.7-3.4,6.4-2.5c6.2,1.9,12.6,3.4,19.1,3.9c2,0.1,5.1,2,5.5-1.9c0.3-3.2,0.5-6.9-3.7-8.3
		c-5.1-1.6-10.2-3.2-15.2-4.9c-3.3-1.1-6.6-2.4-9.8-3.7c-2.9-1.2-5.9-3.6-8.7-3.4c-3,0.2-2.1,4.8-3.9,7.1
		c-4.6,6.3-10.4,7.6-16.8,3.1c-18-12.7-32.1-28.4-37.4-50.6c-2.4-10.2-1.7-20.2,1.9-30.4c-2.1,0.1-4,0.3-5.9,0.3
		c-12.6,0-23.3-8.9-25.6-21.1c-2.2-12.2,4.6-25.2,15.5-29.6c12.2-4.9,25-1,32.1,9.7c3.5,5.3,3.2,4.8,8.6,1.5
		c6.2-3.8,8.8-9.1,10.9-15.9c7.5-24.1,23.2-40.3,48.9-46.8c-9.1-6.2-13.8-14.7-13-25.5c0.5-6.5,3.5-12.1,8.3-16.6
		c10.2-9.4,25.7-9.4,35.3,0.1c12,11.8,10.9,25.9-3.7,42c16,4.4,28.8,13.3,38.4,26.9c5.2,7.5,9,15.6,10.7,24.5c0.8,4.2,2.4,7.3,6,9.6
		c2.8,1.8,5.1,4.2,7.9,6.6c3.9-7.9,9.1-14.4,17.9-17c6.1-1.8,12.2-1.5,18.1,1c11.7,4.9,18.1,17.8,15.3,30.5
		c-3.1,13.8-13.8,20.7-31.6,20c0.7,4.6,2.3,8.9,2.5,13.6c0.9,21-7.8,38.1-21.7,53c-4.7,5-9.8,9.5-15.4,13.5
		c-9.9,6.9-18.4,3.6-21-8.4C241.2,295.8,241,295.2,240.8,294.3z"/>
	<path class="st6" d="M145.9,174.9c3.7-23.7,26.9-43.3,51.4-44.6c30.8-1.6,49.6,19.7,56.3,40.6c1.2,3.9,1,5-3.6,4
		c-4-0.8-6.4-2.4-7.9-6.2c-2.6-6.2-6.7-11.5-11.4-16.2c-1.8-1.8-3.7-3.7-6.5-2.7c-2.9,1.1-3.8,3.7-3.8,6.5c0,13,0.1,26,0.2,39
		c0,3.8,2.1,5.8,6,5.6c4-0.2,8-0.6,12-0.4c9,0.4,16.3,4.3,21.8,11.4c3.4,4.4,3.8,8.9,0.8,13.9c-7.2,12.3-17.4,21.3-29.5,28.5
		c-1.3,0.8-2.6,1.5-3.8,2.4c-2,1.6-2.1,3.7-0.8,5.8c1.3,2.1,3.2,2.2,5.2,1c16-8.7,29.4-20.2,37.5-36.9c4.3-8.7,0.6-18.8-9.1-26.6
		c-7.8-6.2-16.6-8.8-26.6-8c-1.9,0.2-5,1.6-5-2.6c0-3.4-0.4-6.7,4.6-7c15.9-1.2,30.2,3.1,38.8,16.8c5.9,9.2,12.3,18.5,16.1,29
		c6,16.7,0.9,31.8-8,46c-6,9.6-14.3,17-23.4,23.7c-1.9,1.4-3.9,3-6.1,0.4c-2.2-2.6-2.8-5.5-0.5-8.1c2.1-2.3,4.7-4.3,7-6.3
		c8.6-7.4,15.5-16,19.7-26.7c1.2-3.1,2-6.4,2.3-9.7c0.2-1.9-0.6-3.3-2.4-3.9c-2-0.7-3.6,0-4.8,1.7c-0.5,0.8-0.9,1.8-1.1,2.8
		c-4.6,16.6-15.2,28.1-30.1,36.1c-11.5,6.2-23.3,11.6-36.1,14.5c-2.4,0.6-4.9,1.3-7.4,0.7c-18-4.1-35.4-9.6-50.1-21.4
		c-9.5-7.7-16.5-17.4-19.8-29.3c-0.8-2.8-1.5-5.9-5.5-4.9c-4.2,1.1-3.2,4.4-2.5,7.4c3.3,13.9,12,24.3,22.2,33.7
		c1.7,1.6,3.6,3,5.3,4.6c3.1,2.9,2.2,6,0,8.9c-2.3,3.1-4.5,0.7-6.4-0.7c-15.8-12-28.2-26.4-32.2-46.5c-2.4-12.1-0.1-23.2,7.8-32.9
		c3.5-4.4,6.1-9,7-14.7c0.8-4.6,4.6-7.3,7.8-10.1c10.1-9.1,22.1-12.7,35.6-10.5c3.7,0.6,5.9,5.1,4.2,8.2c-1.1,2-3,0.9-4.5,0.8
		c-10.8-0.8-20.3,1.6-28.8,8.7c-11.7,9.9-13.4,18.8-5.4,31.8c8.5,13.8,21,23,34.8,30.8c2.3,1.3,4.6,1.5,6.1-1.1
		c1.4-2.4,0.4-4.5-1.8-6c-4.8-3.3-9.7-6.5-14.5-9.8c-7.7-5.3-13.6-12.2-18.5-20.1c-4.1-6.5-3.6-9.8,1.3-15.8
		c8.4-10.1,19.5-11.2,31.4-10.1c7.7,0.7,8.3,0.2,8.4-7.5c0.1-11.8,0.1-23.7,0-35.5c0-2.9,0.4-6.4-3.1-7.7c-3.4-1.3-5.7,1.3-7.8,3.4
		c-3.9,3.9-7,8.5-9.5,13.4C155.3,174.5,155.3,174.5,145.9,174.9z"/>
	<path class="st7" d="M302.9,216.4c-10.3-0.1-18.1-7.6-17.9-17.4c0.1-10.7,7.9-18.4,18.3-18.3c9.9,0.1,17.5,7.9,17.5,18
		C320.7,208.6,312.7,216.5,302.9,216.4z"/>
	<path class="st7" d="M97.4,216.3c-10.1,0.1-18.1-7.5-18.1-17.2c0-10.4,7.9-18.3,18.3-18.3c9.8,0,17.1,7.8,17.3,18.1
		C115,208.2,106.9,216.2,97.4,216.3z"/>
	<path class="st8" d="M217.4,100.2c-0.1,9.4-8.1,17.2-17.4,16.9c-9.9-0.3-17.6-8.3-17.3-18.2c0.2-9,8.5-16.8,17.8-16.7
		C210,82.3,217.6,90.4,217.4,100.2z"/>
	<path class="st9" d="M229,165.4c2.6,1.3,3.1,3.6,4.4,5.2c0.7,0.9,1.7,2.1,0.6,3c-0.9,0.7-2.5,0.8-3.8,0.8c-1.7,0-1.6-1.3-1.6-2.5
		C228.8,169.9,228.9,167.8,229,165.4z"/>
	<path class="st10" d="M171.5,164.9c0,2.5,0,5.1,0,7.6c0,0.8,0,1.8-1.1,1.8c-1.3,0-2.7-0.1-3.8-0.6c-1-0.6-0.4-1.7,0.1-2.6
		c1.2-2.1,2.3-4.3,3.5-6.4C170.6,164.7,171.1,164.8,171.5,164.9z"/>
</g>
</svg>
