<svg id="Слой_1" data-name="Слой 1" xmlns="http://www.w3.org/2000/svg" xmlns:xlink="http://www.w3.org/1999/xlink" viewBox="0 0 1600 1600"><defs><style>.cls-1{fill:url(#Безымянный_градиент);}.cls-2{fill:url(#Безымянный_градиент-2);}.cls-3{fill:url(#Безымянный_градиент-3);}.cls-4{fill:url(#Безымянный_градиент_3);}.cls-5{fill:url(#Безымянный_градиент_3-2);}</style><linearGradient id="Безымянный_градиент" x1="100" y1="800" x2="1500" y2="800" gradientUnits="userSpaceOnUse"><stop offset="0" stop-color="#12768d"/><stop offset="1" stop-color="#0134aa"/></linearGradient><linearGradient id="Безымянный_градиент-2" x1="148.1" y1="614.57" x2="1220.51" y2="914.56" xlink:href="#Безымянный_градиент"/><linearGradient id="Безымянный_градиент-3" x1="991.35" y1="612.29" x2="1415.67" y2="493.59" xlink:href="#Безымянный_градиент"/><linearGradient id="Безымянный_градиент_3" x1="609.89" y1="632.3" x2="1370.87" y2="632.3" gradientUnits="userSpaceOnUse"><stop offset="0" stop-color="#15da5d"/><stop offset="1" stop-color="#139081"/></linearGradient><linearGradient id="Безымянный_градиент_3-2" x1="324.54" y1="718.11" x2="839.06" y2="227.14" gradientTransform="matrix(1, 0, 0, -1, 0, 1185.17)" xlink:href="#Безымянный_градиент_3"/></defs><g id="logo"><path class="cls-1" d="M800.19,1473.68l-16.55-9.49c-84.91-48.72-370-223.45-473.76-426.23l-10.77-21,16.06-17.33C340.54,972.21,367,945.18,392.64,919c-34.09,9.28-67.62,18.68-100.05,27.84L260.16,956l-9.26-32.41C194.75,727.21,133.33,493.44,103.46,248.94L100,220.66l27.29-8.19c171.17-51.38,367.72-78.62,618.56-85.7h.38c264.3-4.44,508.42,24.69,725.62,86.64l28.15,8-3.92,29c-36.45,269.6-101.7,544.21-193.92,816.21l-2.12,6.25-4.32,5c-131.22,151.79-296.8,285.45-478.85,386.53ZM381.37,1027.81c97.34,166.62,327,313.62,419.37,368.12,166.64-95,318.17-218.11,439.52-357.28,86.4-256,148.5-514.23,184.77-768.07-203.63-54.72-431.36-80.36-677.46-76.23-231.2,6.54-414.44,30.42-573.38,74.91,28.73,216.4,81.92,424.31,132.5,603.41,59.63-16.72,122.31-33.83,185-49.33l108.73-26.9L524.68,879c-27,29.45-55.63,58.67-83.33,86.92C421.52,986.15,401.16,1006.92,381.37,1027.81Z"/><path class="cls-2" d="M1259.64,465.93c-19.85,178-52.27,370.91-69,548.15l1.82.8c-4.1,11.75-38.18,40.09-49.49,50.08-109.6,95.53-222.23,190.49-342.32,272.26,68.88-166.58,230.12-560.31,301.32-727.78,8.4-20.26,26.93-51.19,10.68-71.32-13.45-16.65-42.36-16.53-62.28-18.38-38.72-4.18-185.8-16.69-227.23-21C650.38,484.08,433.26,462.38,260,447.9c-10.89-42-20.58-90.19-28-133.17A2385.85,2385.85,0,0,1,615.12,258q8.8-.6,17.62-1.14c-7.7.84-15.32,1.9-22.85,3.25C795.5,285.23,979.7,319.62,1162.6,360.27c29.45,8.67,65.81,9.16,86.52,34.39C1266.46,416,1263,440.18,1259.64,465.93Z"/><path class="cls-3" d="M1370.87,315.62c-45.39,235.79-104.62,471-178.43,699.26l-1.82-.8c16.75-177.24,49.17-370.11,69-548.15,3.36-25.75,6.82-49.89-10.52-71.27-20.71-25.23-57.07-25.72-86.52-34.39-182.9-40.65-367.1-75-552.71-100.13,7.53-1.35,15.15-2.41,22.85-3.25q35.75-2.22,71.56-3.51,71.57-2.59,143.2-1.35c3.84.05,7.7.11,11.54.2a2548.27,2548.27,0,0,1,300.29,24c3.5.48,7,1,10.46,1.5l10.78,1.58s0,0,0,0c5.8.89,11.58,1.77,17.37,2.68Q1285,295.61,1370.87,315.62Z"/><path class="cls-4" d="M1370.87,315.62c-45.39,235.79-104.62,471-178.43,699.26l-1.82-.8c16.75-177.24,49.17-370.11,69-548.15,3.36-25.75,6.82-49.89-10.52-71.27-20.71-25.23-57.07-25.72-86.52-34.39-182.9-40.65-367.1-76.94-552.71-102,189.52-18.05,382.44-5.75,570.73,21.08Q1276.37,293.75,1370.87,315.62Z"/><path class="cls-5" d="M274.43,515.28c200.41,27.53,465.51,65.88,665.87,95.63,75,9.26,21.43,90.34-6.81,122.91,0,0-65.4,94.11-65.4,94.11C783.94,952.66,697.48,1075.69,612.76,1200c-58.52-51.16-113.52-106.51-162.86-166.67,79.74-86.49,163-170.1,242.47-256.94-61-5.5-297.76-29.9-362.79-36C309,667.17,289.24,589.62,274.43,515.28Z"/></g></svg>